<?xml version="1.0" encoding="UTF-8" standalone="no"?>
<!-- Created with Inkscape (http://www.inkscape.org/) -->

<svg
   xmlns:ns0="http://www.iki.fi/pav/software/textext/"
   xmlns:dc="http://purl.org/dc/elements/1.1/"
   xmlns:cc="http://creativecommons.org/ns#"
   xmlns:rdf="http://www.w3.org/1999/02/22-rdf-syntax-ns#"
   xmlns:svg="http://www.w3.org/2000/svg"
   xmlns="http://www.w3.org/2000/svg"
   xmlns:xlink="http://www.w3.org/1999/xlink"
   xmlns:sodipodi="http://sodipodi.sourceforge.net/DTD/sodipodi-0.dtd"
   xmlns:inkscape="http://www.inkscape.org/namespaces/inkscape"
   width="17.783342mm"
   height="17.783342mm"
   viewBox="0 0 63.011843 63.011843"
   id="svg2"
   version="1.1"
   inkscape:version="0.91 r13725"
   sodipodi:docname="extrapolacion_esfuerzos.svg">
  <sodipodi:namedview
     id="base"
     pagecolor="#ffffff"
     bordercolor="#666666"
     borderopacity="1.0"
     inkscape:pageopacity="0.0"
     inkscape:pageshadow="2"
     inkscape:zoom="6.022677"
     inkscape:cx="1.473238"
     inkscape:cy="42.012331"
     inkscape:document-units="px"
     inkscape:current-layer="layer1"
     showgrid="true"
     inkscape:window-width="1920"
     inkscape:window-height="995"
     inkscape:window-x="0"
     inkscape:window-y="0"
     inkscape:window-maximized="1"
     fit-margin-top="0"
     fit-margin-left="0"
     fit-margin-right="0"
     fit-margin-bottom="0">
    <inkscape:grid
       type="xygrid"
       id="grid7462"
       originx="-58.499995"
       originy="-978.49997" />
  </sodipodi:namedview>
  <defs
     id="defs4">
    <marker
       inkscape:stockid="Arrow2Mstart"
       orient="auto"
       refY="0"
       refX="0"
       id="Arrow2Mstart"
       style="overflow:visible"
       inkscape:isstock="true">
      <path
         id="path7496"
         style="fill:#000000;fill-opacity:1;fill-rule:evenodd;stroke:#000000;stroke-width:0.625;stroke-linejoin:round;stroke-opacity:1"
         d="M 8.7185878,4.0337352 -2.2072895,0.01601326 8.7185884,-4.0017078 c -1.7454984,2.3720609 -1.7354408,5.6174519 -6e-7,8.035443 z"
         transform="scale(0.6,0.6)"
         inkscape:connector-curvature="0" />
    </marker>
    <marker
       inkscape:stockid="Arrow1Sstart"
       orient="auto"
       refY="0"
       refX="0"
       id="Arrow1Sstart"
       style="overflow:visible"
       inkscape:isstock="true">
      <path
         id="path7484"
         d="M 0,0 5,-5 -12.5,0 5,5 0,0 Z"
         style="fill:#000000;fill-opacity:1;fill-rule:evenodd;stroke:#000000;stroke-width:1pt;stroke-opacity:1"
         transform="matrix(0.2,0,0,0.2,1.2,0)"
         inkscape:connector-curvature="0" />
    </marker>
    <marker
       inkscape:stockid="Arrow2Mend"
       orient="auto"
       refY="0"
       refX="0"
       id="Arrow2Mend"
       style="overflow:visible"
       inkscape:isstock="true">
      <path
         id="path7499"
         style="fill:#000000;fill-opacity:1;fill-rule:evenodd;stroke:#000000;stroke-width:0.625;stroke-linejoin:round;stroke-opacity:1"
         d="M 8.7185878,4.0337352 -2.2072895,0.01601326 8.7185884,-4.0017078 c -1.7454984,2.3720609 -1.7354408,5.6174519 -6e-7,8.035443 z"
         transform="scale(-0.6,-0.6)"
         inkscape:connector-curvature="0" />
    </marker>
  </defs>
  <metadata
     id="metadata7">
    <rdf:RDF>
      <cc:Work
         rdf:about="">
        <dc:format>image/svg+xml</dc:format>
        <dc:type
           rdf:resource="http://purl.org/dc/dcmitype/StillImage" />
        <dc:title></dc:title>
      </cc:Work>
    </rdf:RDF>
  </metadata>
  <g
     inkscape:label="Layer 1"
     inkscape:groupmode="layer"
     id="layer1"
     transform="translate(-58.499996,-10.850367)">
    <g
       id="g7836">
      <path
         inkscape:connector-curvature="0"
         id="path7464"
         d="m 60,32.362205 40,0 0,40 -40,0 z"
         style="fill:none;fill-rule:evenodd;stroke:#000000;stroke-width:1px;stroke-linecap:butt;stroke-linejoin:miter;stroke-opacity:1" />
      <path
         inkscape:connector-curvature="0"
         id="path7466"
         d="m 120,52.362205 c 0,0 0,0 -40,0 0,-40 0,-40 0,-40"
         style="fill:none;fill-rule:evenodd;stroke:#000000;stroke-width:1px;stroke-linecap:butt;stroke-linejoin:miter;stroke-opacity:1;marker-start:url(#Arrow2Mstart);marker-end:url(#Arrow2Mend)" />
      <circle
         r="1.5"
         cy="32.362209"
         cx="59.999996"
         style="fill:#ff0000;stroke:none"
         id="path7818" />
      <circle
         id="circle7820"
         style="fill:#ff0000;stroke:none"
         cx="79.999992"
         cy="32.362209"
         r="1.5" />
      <circle
         r="1.5"
         cy="32.362209"
         cx="100"
         style="fill:#ff0000;stroke:none"
         id="circle7822" />
      <circle
         id="circle7824"
         style="fill:#ff0000;stroke:none"
         cx="100"
         cy="52.362202"
         r="1.5" />
      <circle
         r="1.5"
         cy="72.362213"
         cx="100"
         style="fill:#ff0000;stroke:none"
         id="circle7826" />
      <circle
         r="1.5"
         id="circle7828"
         style="fill:#ff0000;stroke:none"
         cx="79.999992"
         cy="72.362213" />
      <circle
         cy="72.362213"
         cx="59.999996"
         style="fill:#ff0000;stroke:none"
         id="circle7830"
         r="1.5" />
      <circle
         r="1.5"
         id="circle7832"
         style="fill:#ff0000;stroke:none"
         cx="59.999996"
         cy="52.362202" />
      <circle
         cy="52.362202"
         cx="59.999996"
         style="fill:#ff0000;stroke:none"
         id="circle7834"
         r="1.5" />
    </g>
    <circle
       id="path7849"
       style="fill:#0000ff;stroke:none"
       cx="92"
       cy="40.362206"
       r="1.5" />
    <circle
       id="path7851"
       style="fill:#0000ff;stroke:none"
       cx="92"
       cy="64.362206"
       r="1.5" />
    <circle
       id="path7853"
       style="fill:#0000ff;stroke:none"
       cx="68"
       cy="64.362206"
       r="1.5" />
    <circle
       id="path7855"
       style="fill:#0000ff;stroke:none"
       cx="68"
       cy="40.362206"
       r="1.5" />
    <text
       xml:space="preserve"
       style="font-style:normal;font-weight:normal;font-size:5px;line-height:125%;font-family:sans-serif;letter-spacing:0px;word-spacing:0px;fill:#000000;fill-opacity:1;stroke:none;stroke-width:1px;stroke-linecap:butt;stroke-linejoin:miter;stroke-opacity:1"
       x="70"
       y="67.362206"
       id="text7857"
       sodipodi:linespacing="125%"><tspan
         sodipodi:role="line"
         id="tspan7859"
         x="70"
         y="67.362206" /></text>
    <g
       id="g7980"
       ns0:preamble="/home/daalvarez/Documents/latex_inkscape_config_file.tex"
       ns0:text="$IV$"
       transform="matrix(0.5,0,0,0.5,10.751942,4.09629)">
      <defs
         id="defs7982">
        <g
           id="g7984">
          <symbol
             id="textext-1efb7a70-0"
             overflow="visible"
             style="overflow:visible">
            <path
               id="path7987"
               d=""
               style="stroke:none"
               inkscape:connector-curvature="0" />
          </symbol>
          <symbol
             id="textext-1efb7a70-1"
             overflow="visible"
             style="overflow:visible">
            <path
               id="path7990"
               d="M 3.734375,-6.046875 C 3.8125,-6.40625 3.84375,-6.5 4.640625,-6.5 c 0.234375,0 0.3125,0 0.3125,-0.1875 0,-0.125 -0.109375,-0.125 -0.140625,-0.125 -0.296875,0 -1.03125,0.03125 -1.328125,0.03125 -0.296875,0 -1.015625,-0.03125 -1.328125,-0.03125 -0.0625,0 -0.1875,0 -0.1875,0.203125 C 1.96875,-6.5 2.046875,-6.5 2.25,-6.5 c 0.40625,0 0.6875,0 0.6875,0.1875 0,0.046875 0,0.078125 -0.03125,0.15625 l -1.34375,5.375 c -0.09375,0.375 -0.109375,0.46875 -0.90625,0.46875 -0.234375,0 -0.3125,0 -0.3125,0.203125 C 0.34375,0 0.453125,0 0.484375,0 0.78125,0 1.5,-0.03125 1.796875,-0.03125 2.09375,-0.03125 2.828125,0 3.125,0 c 0.078125,0 0.203125,0 0.203125,-0.1875 0,-0.125 -0.078125,-0.125 -0.296875,-0.125 -0.1875,0 -0.234375,0 -0.421875,-0.015625 -0.21875,-0.015625 -0.25,-0.0625 -0.25,-0.171875 0,-0.078125 0.015625,-0.15625 0.03125,-0.234375 z m 0,0"
               style="stroke:none"
               inkscape:connector-curvature="0" />
          </symbol>
          <symbol
             id="textext-1efb7a70-2"
             overflow="visible"
             style="overflow:visible">
            <path
               id="path7993"
               d="M 6.265625,-5.671875 C 6.75,-6.453125 7.171875,-6.484375 7.53125,-6.5 c 0.125,-0.015625 0.140625,-0.171875 0.140625,-0.1875 0,-0.078125 -0.0625,-0.125 -0.140625,-0.125 -0.25,0 -0.546875,0.03125 -0.8125,0.03125 -0.328125,0 -0.671875,-0.03125 -0.984375,-0.03125 -0.0625,0 -0.1875,0 -0.1875,0.1875 0,0.109375 0.078125,0.125 0.15625,0.125 0.265625,0.015625 0.453125,0.125 0.453125,0.328125 0,0.15625 -0.140625,0.375 -0.140625,0.375 l -3.0625,4.875 -0.6875,-5.28125 C 2.265625,-6.375 2.5,-6.5 2.953125,-6.5 c 0.140625,0 0.25,0 0.25,-0.203125 0,-0.078125 -0.078125,-0.109375 -0.125,-0.109375 -0.40625,0 -0.828125,0.03125 -1.25,0.03125 -0.171875,0 -0.359375,0 -0.546875,0 -0.171875,0 -0.359375,-0.03125 -0.53125,-0.03125 -0.078125,0 -0.1875,0 -0.1875,0.1875 0,0.125 0.078125,0.125 0.25,0.125 0.546875,0 0.5625,0.09375 0.59375,0.34375 L 2.1875,-0.015625 C 2.21875,0.1875 2.265625,0.21875 2.390625,0.21875 c 0.15625,0 0.203125,-0.046875 0.28125,-0.171875 z m 0,0"
               style="stroke:none"
               inkscape:connector-curvature="0" />
          </symbol>
        </g>
      </defs>
      <g
         id="textext-1efb7a70-3">
        <g
           id="g7996"
           style="fill:#000000;fill-opacity:1">
          <use
             id="use7998"
             y="83.403"
             x="155.905"
             xlink:href="#textext-1efb7a70-1"
             width="100%"
             height="100%" />
        </g>
        <g
           id="g8000"
           style="fill:#000000;fill-opacity:1">
          <use
             id="use8002"
             y="83.403"
             x="161.07161"
             xlink:href="#textext-1efb7a70-2"
             width="100%"
             height="100%" />
        </g>
      </g>
    </g>
    <g
       ns0:text="$I$"
       ns0:preamble="/home/daalvarez/Documents/latex_inkscape_config_file.tex"
       transform="matrix(0.5,0,0,0.5,-11.276718,20.762237)"
       id="g8230">
      <defs
         id="defs8232">
        <g
           id="g8234">
          <symbol
             style="overflow:visible"
             overflow="visible"
             id="textext-70526308-0">
            <path
               inkscape:connector-curvature="0"
               style="stroke:none"
               d=""
               id="path8237" />
          </symbol>
          <symbol
             style="overflow:visible"
             overflow="visible"
             id="textext-70526308-1">
            <path
               inkscape:connector-curvature="0"
               style="stroke:none"
               d="M 3.734375,-6.046875 C 3.8125,-6.40625 3.84375,-6.5 4.640625,-6.5 c 0.234375,0 0.3125,0 0.3125,-0.1875 0,-0.125 -0.109375,-0.125 -0.140625,-0.125 -0.296875,0 -1.03125,0.03125 -1.328125,0.03125 -0.296875,0 -1.015625,-0.03125 -1.328125,-0.03125 -0.0625,0 -0.1875,0 -0.1875,0.203125 C 1.96875,-6.5 2.046875,-6.5 2.25,-6.5 c 0.40625,0 0.6875,0 0.6875,0.1875 0,0.046875 0,0.078125 -0.03125,0.15625 l -1.34375,5.375 c -0.09375,0.375 -0.109375,0.46875 -0.90625,0.46875 -0.234375,0 -0.3125,0 -0.3125,0.203125 C 0.34375,0 0.453125,0 0.484375,0 0.78125,0 1.5,-0.03125 1.796875,-0.03125 2.09375,-0.03125 2.828125,0 3.125,0 c 0.078125,0 0.203125,0 0.203125,-0.1875 0,-0.125 -0.078125,-0.125 -0.296875,-0.125 -0.1875,0 -0.234375,0 -0.421875,-0.015625 -0.21875,-0.015625 -0.25,-0.0625 -0.25,-0.171875 0,-0.078125 0.015625,-0.15625 0.03125,-0.234375 z m 0,0"
               id="path8240" />
          </symbol>
        </g>
      </defs>
      <g
         id="textext-70526308-2">
        <g
           style="fill:#000000;fill-opacity:1"
           id="g8243">
          <use
             height="100%"
             width="100%"
             xlink:href="#textext-70526308-1"
             x="155.905"
             y="83.403"
             id="use8245" />
        </g>
      </g>
    </g>
    <g
       id="g8395"
       transform="matrix(0.5,0,0,0.5,-12.568371,4.1509775)"
       ns0:preamble="/home/daalvarez/Documents/latex_inkscape_config_file.tex"
       ns0:text="$II$">
      <defs
         id="defs8397">
        <g
           id="g8399">
          <symbol
             style="overflow:visible"
             id="textext-b9c2f965-0"
             overflow="visible">
            <path
               inkscape:connector-curvature="0"
               id="path8402"
               d=""
               style="stroke:none" />
          </symbol>
          <symbol
             style="overflow:visible"
             id="textext-b9c2f965-1"
             overflow="visible">
            <path
               inkscape:connector-curvature="0"
               id="path8405"
               d="M 3.734375,-6.046875 C 3.8125,-6.40625 3.84375,-6.5 4.640625,-6.5 c 0.234375,0 0.3125,0 0.3125,-0.1875 0,-0.125 -0.109375,-0.125 -0.140625,-0.125 -0.296875,0 -1.03125,0.03125 -1.328125,0.03125 -0.296875,0 -1.015625,-0.03125 -1.328125,-0.03125 -0.0625,0 -0.1875,0 -0.1875,0.203125 C 1.96875,-6.5 2.046875,-6.5 2.25,-6.5 c 0.40625,0 0.6875,0 0.6875,0.1875 0,0.046875 0,0.078125 -0.03125,0.15625 l -1.34375,5.375 c -0.09375,0.375 -0.109375,0.46875 -0.90625,0.46875 -0.234375,0 -0.3125,0 -0.3125,0.203125 C 0.34375,0 0.453125,0 0.484375,0 0.78125,0 1.5,-0.03125 1.796875,-0.03125 2.09375,-0.03125 2.828125,0 3.125,0 c 0.078125,0 0.203125,0 0.203125,-0.1875 0,-0.125 -0.078125,-0.125 -0.296875,-0.125 -0.1875,0 -0.234375,0 -0.421875,-0.015625 -0.21875,-0.015625 -0.25,-0.0625 -0.25,-0.171875 0,-0.078125 0.015625,-0.15625 0.03125,-0.234375 z m 0,0"
               style="stroke:none" />
          </symbol>
        </g>
      </defs>
      <g
         id="textext-b9c2f965-2">
        <g
           id="g8408"
           style="fill:#000000;fill-opacity:1">
          <use
             height="100%"
             width="100%"
             id="use8410"
             y="83.403"
             x="155.905"
             xlink:href="#textext-b9c2f965-1" />
        </g>
        <g
           id="g8412"
           style="fill:#000000;fill-opacity:1">
          <use
             height="100%"
             width="100%"
             id="use8414"
             y="83.403"
             x="161.07161"
             xlink:href="#textext-b9c2f965-1" />
        </g>
      </g>
    </g>
    <g
       ns0:text="$III$"
       ns0:preamble="/home/daalvarez/Documents/latex_inkscape_config_file.tex"
       transform="matrix(0.5,0,0,0.5,10.142471,20.762237)"
       id="g8560">
      <defs
         id="defs8562">
        <g
           id="g8564">
          <symbol
             style="overflow:visible"
             overflow="visible"
             id="textext-e2c41b1c-0">
            <path
               inkscape:connector-curvature="0"
               style="stroke:none"
               d=""
               id="path8567" />
          </symbol>
          <symbol
             style="overflow:visible"
             overflow="visible"
             id="textext-e2c41b1c-1">
            <path
               inkscape:connector-curvature="0"
               style="stroke:none"
               d="M 3.734375,-6.046875 C 3.8125,-6.40625 3.84375,-6.5 4.640625,-6.5 c 0.234375,0 0.3125,0 0.3125,-0.1875 0,-0.125 -0.109375,-0.125 -0.140625,-0.125 -0.296875,0 -1.03125,0.03125 -1.328125,0.03125 -0.296875,0 -1.015625,-0.03125 -1.328125,-0.03125 -0.0625,0 -0.1875,0 -0.1875,0.203125 C 1.96875,-6.5 2.046875,-6.5 2.25,-6.5 c 0.40625,0 0.6875,0 0.6875,0.1875 0,0.046875 0,0.078125 -0.03125,0.15625 l -1.34375,5.375 c -0.09375,0.375 -0.109375,0.46875 -0.90625,0.46875 -0.234375,0 -0.3125,0 -0.3125,0.203125 C 0.34375,0 0.453125,0 0.484375,0 0.78125,0 1.5,-0.03125 1.796875,-0.03125 2.09375,-0.03125 2.828125,0 3.125,0 c 0.078125,0 0.203125,0 0.203125,-0.1875 0,-0.125 -0.078125,-0.125 -0.296875,-0.125 -0.1875,0 -0.234375,0 -0.421875,-0.015625 -0.21875,-0.015625 -0.25,-0.0625 -0.25,-0.171875 0,-0.078125 0.015625,-0.15625 0.03125,-0.234375 z m 0,0"
               id="path8570" />
          </symbol>
        </g>
      </defs>
      <g
         id="textext-e2c41b1c-2">
        <g
           style="fill:#000000;fill-opacity:1"
           id="g8573">
          <use
             height="100%"
             width="100%"
             xlink:href="#textext-e2c41b1c-1"
             x="155.905"
             y="83.403"
             id="use8575" />
        </g>
        <g
           style="fill:#000000;fill-opacity:1"
           id="g8577">
          <use
             height="100%"
             width="100%"
             xlink:href="#textext-e2c41b1c-1"
             x="161.07161"
             y="83.403"
             id="use8579" />
        </g>
        <g
           style="fill:#000000;fill-opacity:1"
           id="g8581">
          <use
             height="100%"
             width="100%"
             xlink:href="#textext-e2c41b1c-1"
             x="166.22824"
             y="83.403"
             id="use8583" />
        </g>
      </g>
    </g>
    <g
       transform="translate(-39.185232,-35.698411)"
       ns0:text="$\\xi$"
       ns0:preamble="/home/daalvarez/Documents/latex_inkscape_config_file.tex"
       id="g8999">
      <defs
         id="defs9001">
        <g
           id="g9003">
          <symbol
             style="overflow:visible"
             overflow="visible"
             id="textext-1a7e3ae3-0">
            <path
               inkscape:connector-curvature="0"
               style="stroke:none"
               d=""
               id="path9006" />
          </symbol>
          <symbol
             style="overflow:visible"
             overflow="visible"
             id="textext-1a7e3ae3-1">
            <path
               inkscape:connector-curvature="0"
               style="stroke:none"
               d="m 1.53125,-3.046875 c -1.078125,0.71875 -1.296875,1.65625 -1.296875,2.015625 0,0.46875 0.265625,0.75 0.28125,0.78125 0.328125,0.328125 0.40625,0.375 1.15625,0.65625 L 2.875,0.875 C 3.03125,0.9375 3.234375,1 3.234375,1.296875 c 0,0.234375 -0.1875,0.53125 -0.5,0.53125 -0.4375,0 -0.765625,-0.25 -0.875,-0.328125 C 1.796875,1.46875 1.796875,1.453125 1.75,1.453125 c -0.078125,0 -0.09375,0.078125 -0.09375,0.109375 0,0.125 0.53125,0.484375 1.078125,0.484375 0.625,0 1.046875,-0.578125 1.046875,-1.0625 C 3.78125,0.5 3.40625,0.3125 3.296875,0.265625 3.15625,0.21875 2.828125,0.09375 2.6875,0.046875 2.5,-0.046875 2.296875,-0.125 2.078125,-0.1875 l -0.59375,-0.234375 c -0.453125,-0.1875 -0.75,-0.46875 -0.75,-0.890625 0,-0.40625 0.390625,-1.28125 1.234375,-1.703125 C 2.328125,-2.875 2.625,-2.875 2.84375,-2.875 c 0.296875,0 0.921875,0 0.921875,-0.3125 0,-0.25 -0.421875,-0.265625 -0.8125,-0.265625 -0.1875,0 -0.46875,0 -0.84375,0.109375 -0.25,-0.25 -0.296875,-0.578125 -0.296875,-0.765625 0,-0.5625 0.359375,-1.328125 1.109375,-1.703125 0.171875,0.21875 0.40625,0.21875 0.640625,0.21875 0.25,0 0.890625,0 0.890625,-0.3125 0,-0.25 -0.453125,-0.265625 -0.828125,-0.265625 -0.140625,0 -0.375,0 -0.640625,0.046875 C 2.953125,-6.203125 2.9375,-6.28125 2.9375,-6.453125 c 0,-0.140625 0.046875,-0.34375 0.046875,-0.359375 0,-0.078125 -0.046875,-0.140625 -0.109375,-0.140625 -0.1875,0 -0.1875,0.46875 -0.1875,0.5 0,0.1875 0.0625,0.34375 0.078125,0.375 -1.078125,0.3125 -1.75,1.109375 -1.75,1.875 0,0.359375 0.1875,0.78125 0.65625,1.046875 z m 1.625,-2.859375 C 3.3125,-5.953125 3.515625,-5.953125 3.625,-5.953125 c 0.34375,0 0.375,0.015625 0.5625,0.0625 C 4.109375,-5.859375 4,-5.8125 3.5625,-5.8125 c -0.1875,0 -0.296875,0 -0.40625,-0.09375 z M 2.375,-3.1875 c 0.234375,-0.046875 0.453125,-0.046875 0.5625,-0.046875 0.359375,0 0.390625,0 0.578125,0.046875 -0.09375,0.046875 -0.1875,0.09375 -0.640625,0.09375 -0.234375,0 -0.328125,0 -0.5,-0.09375 z m 0,0"
               id="path9009" />
          </symbol>
        </g>
      </defs>
      <g
         id="textext-1a7e3ae3-2">
        <g
           style="fill:#000000;fill-opacity:1"
           id="g9012">
          <use
             height="100%"
             width="100%"
             xlink:href="#textext-1a7e3ae3-1"
             x="155.905"
             y="83.403"
             id="use9014" />
        </g>
      </g>
    </g>
    <g
       id="g9214"
       transform="translate(-72.060978,-65.087335)"
       ns0:preamble="/home/daalvarez/Documents/latex_inkscape_config_file.tex"
       ns0:text="$\\eta$">
      <defs
         id="defs9216">
        <g
           id="g9218">
          <symbol
             id="textext-49cd1ac7-0"
             overflow="visible"
             style="overflow:visible">
            <path
               id="path9221"
               d=""
               style="stroke:none"
               inkscape:connector-curvature="0" />
          </symbol>
          <symbol
             id="textext-49cd1ac7-1"
             overflow="visible"
             style="overflow:visible">
            <path
               id="path9224"
               d="M 4.859375,-2.765625 C 4.921875,-2.9375 4.9375,-3.078125 4.9375,-3.34375 c 0,-0.640625 -0.390625,-1.0625 -1.140625,-1.0625 -0.78125,0 -1.296875,0.515625 -1.546875,0.875 -0.046875,-0.578125 -0.46875,-0.875 -0.921875,-0.875 -0.453125,0 -0.640625,0.390625 -0.734375,0.5625 C 0.421875,-3.5 0.296875,-2.90625 0.296875,-2.875 c 0,0.109375 0.09375,0.109375 0.109375,0.109375 0.109375,0 0.109375,-0.015625 0.171875,-0.234375 0.171875,-0.703125 0.375,-1.1875 0.734375,-1.1875 0.15625,0 0.296875,0.078125 0.296875,0.453125 0,0.21875 -0.03125,0.328125 -0.15625,0.84375 L 0.875,-0.59375 c -0.03125,0.15625 -0.09375,0.390625 -0.09375,0.4375 0,0.171875 0.140625,0.265625 0.296875,0.265625 0.125,0 0.296875,-0.078125 0.375,-0.28125 0,-0.015625 0.125,-0.484375 0.1875,-0.734375 l 0.21875,-0.890625 C 1.90625,-2.03125 1.96875,-2.25 2.03125,-2.46875 2.046875,-2.53125 2.125,-2.859375 2.140625,-2.921875 2.15625,-3.015625 2.46875,-3.5625 2.8125,-3.84375 3.03125,-4 3.34375,-4.1875 3.765625,-4.1875 c 0.4375,0 0.546875,0.34375 0.546875,0.703125 0,0.046875 0,0.21875 -0.109375,0.625 l -1.125,4.578125 c -0.03125,0.125 -0.03125,0.140625 -0.03125,0.171875 0,0.140625 0.109375,0.265625 0.265625,0.265625 0.3125,0 0.390625,-0.296875 0.421875,-0.40625 z m 0,0"
               style="stroke:none"
               inkscape:connector-curvature="0" />
          </symbol>
        </g>
      </defs>
      <g
         id="textext-49cd1ac7-2">
        <g
           id="g9227"
           style="fill:#000000;fill-opacity:1">
          <use
             id="use9229"
             y="83.403"
             x="155.905"
             xlink:href="#textext-49cd1ac7-1"
             width="100%"
             height="100%" />
        </g>
      </g>
    </g>
  </g>
</svg>
