<?xml version="1.0" encoding="UTF-8" standalone="no"?>
<!-- Created with Inkscape (http://www.inkscape.org/) -->

<svg
   xmlns:ns0="http://www.iki.fi/pav/software/textext/"
   xmlns:dc="http://purl.org/dc/elements/1.1/"
   xmlns:cc="http://creativecommons.org/ns#"
   xmlns:rdf="http://www.w3.org/1999/02/22-rdf-syntax-ns#"
   xmlns:svg="http://www.w3.org/2000/svg"
   xmlns="http://www.w3.org/2000/svg"
   xmlns:xlink="http://www.w3.org/1999/xlink"
   xmlns:sodipodi="http://sodipodi.sourceforge.net/DTD/sodipodi-0.dtd"
   xmlns:inkscape="http://www.inkscape.org/namespaces/inkscape"
   width="101.58703mm"
   height="117.93362mm"
   viewBox="0 0 359.95404 417.87502"
   id="svg7001"
   version="1.1"
   inkscape:version="0.91 r13725"
   sodipodi:docname="interpolacion_isoparametrica.svg">
  <defs
     id="defs7003">
    <marker
       inkscape:stockid="Arrow1Mend"
       orient="auto"
       refY="0"
       refX="0"
       id="Arrow1Mend"
       style="overflow:visible">
      <path
         inkscape:connector-curvature="0"
         id="path3169"
         d="M 0,0 5,-5 -12.5,0 5,5 0,0 Z"
         style="fill-rule:evenodd;stroke:#000000;stroke-width:1pt;marker-start:none"
         transform="matrix(-0.4,0,0,-0.4,-4,0)" />
    </marker>
    <marker
       inkscape:stockid="Arrow1Mend"
       orient="auto"
       refY="0"
       refX="0"
       id="marker7295"
       style="overflow:visible">
      <path
         inkscape:connector-curvature="0"
         id="path7297"
         d="M 0,0 5,-5 -12.5,0 5,5 0,0 Z"
         style="fill-rule:evenodd;stroke:#000000;stroke-width:1pt;marker-start:none"
         transform="matrix(-0.4,0,0,-0.4,-4,0)" />
    </marker>
  </defs>
  <sodipodi:namedview
     id="base"
     pagecolor="#ffffff"
     bordercolor="#666666"
     borderopacity="1.0"
     inkscape:pageopacity="0.0"
     inkscape:pageshadow="2"
     inkscape:zoom="0.35"
     inkscape:cx="349.26274"
     inkscape:cy="-91.062491"
     inkscape:document-units="px"
     inkscape:current-layer="layer1"
     showgrid="false"
     inkscape:window-width="1920"
     inkscape:window-height="995"
     inkscape:window-x="0"
     inkscape:window-y="0"
     inkscape:window-maximized="1"
     fit-margin-top="0"
     fit-margin-left="0"
     fit-margin-right="0"
     fit-margin-bottom="0" />
  <metadata
     id="metadata7006">
    <rdf:RDF>
      <cc:Work
         rdf:about="">
        <dc:format>image/svg+xml</dc:format>
        <dc:type
           rdf:resource="http://purl.org/dc/dcmitype/StillImage" />
        <dc:title></dc:title>
      </cc:Work>
    </rdf:RDF>
  </metadata>
  <g
     inkscape:label="Layer 1"
     inkscape:groupmode="layer"
     id="layer1"
     transform="translate(-25.737261,-23.424704)">
    <g
       id="g7767"
       transform="translate(74.285714,25.714286)">
      <path
         id="path2385"
         d="m -19.634933,365.52542 c 300.000043,0 300.000043,0 300.000043,0"
         style="fill:none;fill-rule:evenodd;stroke:#000000;stroke-width:3;stroke-linecap:butt;stroke-linejoin:miter;stroke-miterlimit:4;stroke-dasharray:none;stroke-opacity:1;marker-end:url(#Arrow1Mend)"
         inkscape:connector-curvature="0" />
      <path
         style="fill:none;fill-rule:evenodd;stroke:#000000;stroke-width:3.32567263;stroke-linecap:butt;stroke-linejoin:miter;stroke-miterlimit:4;stroke-dasharray:none;stroke-opacity:1;marker-end:url(#Arrow1Mend)"
         d="m 0.36506735,385.36258 c 0,-380.4707911 0,-380.4707911 0,-380.4707911"
         id="path3935"
         inkscape:connector-curvature="0" />
      <path
         id="path3937"
         d="m 20.365067,355.52542 c 0,20 0,20 0,20"
         style="fill:none;fill-rule:evenodd;stroke:#000000;stroke-width:1px;stroke-linecap:butt;stroke-linejoin:miter;stroke-opacity:1"
         inkscape:connector-curvature="0" />
      <path
         id="path3939"
         d="m 110.36506,355.52542 c 0,20 0,20 0,20"
         style="fill:none;fill-rule:evenodd;stroke:#000000;stroke-width:1px;stroke-linecap:butt;stroke-linejoin:miter;stroke-opacity:1"
         inkscape:connector-curvature="0" />
      <path
         style="fill:none;fill-rule:evenodd;stroke:#000000;stroke-width:1px;stroke-linecap:butt;stroke-linejoin:miter;stroke-opacity:1"
         d="m 200.36511,355.52542 c 0,20 0,20 0,20"
         id="path3943"
         inkscape:connector-curvature="0" />
      <path
         id="path3945"
         d="m -9.6349327,335.52542 c 19.9999997,0 19.9999997,0 19.9999997,0"
         style="fill:none;fill-rule:evenodd;stroke:#000000;stroke-width:1px;stroke-linecap:butt;stroke-linejoin:miter;stroke-opacity:1"
         inkscape:connector-curvature="0" />
      <path
         id="path3947"
         d="m -9.6349327,285.52542 c 19.9999997,0 19.9999997,0 19.9999997,0"
         style="fill:none;fill-rule:evenodd;stroke:#000000;stroke-width:1px;stroke-linecap:butt;stroke-linejoin:miter;stroke-opacity:1"
         inkscape:connector-curvature="0" />
      <path
         id="path3949"
         d="m -9.6349327,65.525418 c 19.9999997,0 19.9999997,0 19.9999997,0 l 0,0 0,0"
         style="fill:none;fill-rule:evenodd;stroke:#000000;stroke-width:1px;stroke-linecap:butt;stroke-linejoin:miter;stroke-opacity:1"
         inkscape:connector-curvature="0" />
      <circle
         id="path3951"
         style="display:inline;overflow:visible;visibility:visible;opacity:1;fill:#000000;fill-opacity:1;fill-rule:evenodd;stroke:#000000;stroke-width:3;stroke-linecap:butt;stroke-linejoin:miter;stroke-miterlimit:4;stroke-dasharray:none;stroke-dashoffset:0;stroke-opacity:1;marker:none;marker-start:none;marker-mid:none;marker-end:none;enable-background:accumulate"
         cx="20.365061"
         cy="335.52545"
         r="5" />
      <circle
         style="display:inline;overflow:visible;visibility:visible;opacity:1;fill:#000000;fill-opacity:1;fill-rule:evenodd;stroke:#000000;stroke-width:3;stroke-linecap:butt;stroke-linejoin:miter;stroke-miterlimit:4;stroke-dasharray:none;stroke-dashoffset:0;stroke-opacity:1;marker:none;marker-start:none;marker-mid:none;marker-end:none;enable-background:accumulate"
         id="path3953"
         cx="110.36507"
         cy="285.52545"
         r="5" />
      <circle
         id="path3955"
         style="display:inline;overflow:visible;visibility:visible;opacity:1;fill:#000000;fill-opacity:1;fill-rule:evenodd;stroke:#000000;stroke-width:3;stroke-linecap:butt;stroke-linejoin:miter;stroke-miterlimit:4;stroke-dasharray:none;stroke-dashoffset:0;stroke-opacity:1;marker:none;marker-start:none;marker-mid:none;marker-end:none;enable-background:accumulate"
         cx="200.36501"
         cy="65.535591"
         r="5" />
      <path
         sodipodi:nodetypes="cc"
         id="path3959"
         d="M 20.365067,335.52542 C 151.50346,331.87798 190.36506,80.525418 200.36511,65.525418"
         style="fill:none;fill-rule:evenodd;stroke:#ff0000;stroke-width:3;stroke-linecap:butt;stroke-linejoin:miter;stroke-miterlimit:4;stroke-dasharray:none;stroke-opacity:1"
         inkscape:connector-curvature="0" />
      <g
         id="g3982"
         ns0:preamble="/home/diego/DiegoAndres/preamble_tex_text_inkscape.txt"
         ns0:text="$\\xi$"
         transform="matrix(4,0,0,4,-599.69744,-161.78707)">
        <defs
           id="defs3984">
          <g
             id="g3986">
            <symbol
               id="textext-3f2f8b9b-0"
               overflow="visible"
               style="overflow:visible">
              <path
                 id="path3989"
                 d=""
                 style="stroke:none"
                 inkscape:connector-curvature="0" />
            </symbol>
            <symbol
               id="textext-3f2f8b9b-1"
               overflow="visible"
               style="overflow:visible">
              <path
                 id="path3992"
                 d="m 2.921875,-3.609375 c 0.1875,0 0.296875,0.0625 0.4375,0.0625 0.171875,0 0.265625,-0.140625 0.265625,-0.359375 0,-0.109375 -0.046875,-0.140625 -0.15625,-0.140625 -0.1875,0 -0.1875,0.0625 -0.46875,0.0625 -0.515625,0 -0.625,-0.328125 -0.625,-0.640625 0,-0.5 0.171875,-0.875 0.671875,-1.203125 0.125,0.03125 0.296875,0.046875 0.421875,0.046875 0.421875,0 0.875,-0.09375 0.875,-0.578125 0,-0.09375 -0.046875,-0.109375 -0.25,-0.109375 -0.390625,0 -0.6875,0.015625 -1.21875,0.375 -0.296875,-0.1875 -0.46875,-0.25 -0.46875,-0.40625 0,-0.015625 0,-0.03125 0.109375,-0.25 L 2.375,-6.8125 c -0.3125,0.09375 -0.59375,0.203125 -0.59375,0.421875 0,0.234375 0.3125,0.328125 0.84375,0.484375 -0.609375,0.453125 -1,0.734375 -1,1.234375 0,0.328125 0.234375,0.703125 1.03125,0.859375 -2.109375,0.453125 -2.296875,1.3125 -2.296875,2.421875 0,0.765625 0.375,1.328125 1.5625,1.46875 0.359375,0.0625 0.765625,0.09375 0.765625,0.3125 0,0.515625 -0.515625,0.90625 -0.71875,1.109375 l 0.109375,0.171875 c 0.453125,-0.265625 1.375,-0.953125 1.375,-1.703125 0,-0.421875 -0.375,-0.53125 -0.859375,-0.625 L 2.515625,-0.671875 c -0.890625,-0.171875 -1.34375,-0.625 -1.34375,-1.25 0,-0.484375 0.28125,-1.6875 1.75,-1.6875 z"
                 style="stroke:none"
                 inkscape:connector-curvature="0" />
            </symbol>
          </g>
        </defs>
        <g
           id="textext-3f2f8b9b-2">
          <g
             id="g3995"
             style="fill:#000000;fill-opacity:1">
            <use
               id="use3997"
               y="134.765"
               x="223.43201"
               xlink:href="#textext-3f2f8b9b-1"
               width="744.09448"
               height="1052.3622" />
          </g>
        </g>
      </g>
      <g
         transform="matrix(4,0,0,4,-882.38494,-514.09958)"
         ns0:text="$x(\\xi)$"
         ns0:preamble="/home/diego/DiegoAndres/preamble_tex_text_inkscape.txt"
         id="g4059">
        <defs
           id="defs4061">
          <g
             id="g4063">
            <symbol
               style="overflow:visible"
               overflow="visible"
               id="textext-4f20d5f8-0">
              <path
                 style="stroke:none"
                 d=""
                 id="path4066"
                 inkscape:connector-curvature="0" />
            </symbol>
            <symbol
               style="overflow:visible"
               overflow="visible"
               id="textext-4f20d5f8-1">
              <path
                 style="stroke:none"
                 d="m 4.65625,-1.265625 c -0.21875,0.40625 -0.46875,0.90625 -0.734375,0.90625 -0.171875,0 -0.25,-0.21875 -0.453125,-1.03125 L 3.1875,-2.59375 C 3.515625,-3.1875 3.984375,-3.921875 4.25,-3.921875 c 0.078125,0 0.15625,0.03125 0.25,0.078125 0.09375,0.03125 0.1875,0.078125 0.296875,0.078125 0.203125,0 0.390625,-0.203125 0.390625,-0.4375 0,-0.296875 -0.203125,-0.40625 -0.46875,-0.40625 -0.484375,0 -0.890625,0.4375 -1.21875,0.953125 l -0.40625,0.625 -0.015625,0 -0.359375,-1.53125 -0.0625,-0.046875 -1.515625,0.46875 0.03125,0.21875 0.6875,-0.046875 C 2.03125,-3.984375 2.09375,-3.9375 2.1875,-3.515625 l 0.328125,1.328125 -0.25,0.4375 C 1.875,-1.078125 1.53125,-0.59375 1.3125,-0.59375 c -0.09375,0 -0.1875,-0.046875 -0.265625,-0.078125 -0.09375,-0.046875 -0.21875,-0.140625 -0.375,-0.140625 -0.234375,0 -0.390625,0.234375 -0.390625,0.453125 0,0.265625 0.21875,0.46875 0.59375,0.46875 0.625,0 0.984375,-0.625 1.359375,-1.234375 l 0.359375,-0.609375 0.015625,0 0.171875,0.71875 c 0.171875,0.734375 0.34375,1.125 0.8125,1.125 0.671875,0 1.015625,-0.6875 1.296875,-1.25 l -0.234375,-0.125 z"
                 id="path4069"
                 inkscape:connector-curvature="0" />
            </symbol>
            <symbol
               style="overflow:visible"
               overflow="visible"
               id="textext-4f20d5f8-2">
              <path
                 style="stroke:none"
                 d=""
                 id="path4072"
                 inkscape:connector-curvature="0" />
            </symbol>
            <symbol
               style="overflow:visible"
               overflow="visible"
               id="textext-4f20d5f8-3">
              <path
                 style="stroke:none"
                 d="m 1.609375,-2.59375 c 0,-2.609375 0.796875,-3.40625 1.375,-3.53125 l 0,-0.21875 c -1.609375,0.0625 -2.015625,2.046875 -2.015625,3.75 0,1.71875 0.40625,3.703125 2.015625,3.765625 l 0,-0.234375 c -0.53125,-0.109375 -1.375,-0.875 -1.375,-3.53125 z"
                 id="path4075"
                 inkscape:connector-curvature="0" />
            </symbol>
            <symbol
               style="overflow:visible"
               overflow="visible"
               id="textext-4f20d5f8-4">
              <path
                 style="stroke:none"
                 d="m 1.609375,-2.59375 c 0,2.65625 -0.84375,3.421875 -1.375,3.53125 l 0,0.234375 C 1.828125,1.109375 2.25,-0.875 2.25,-2.59375 c 0,-1.703125 -0.421875,-3.6875 -2.015625,-3.75 l 0,0.21875 c 0.578125,0.125 1.375,0.921875 1.375,3.53125 z"
                 id="path4078"
                 inkscape:connector-curvature="0" />
            </symbol>
            <symbol
               style="overflow:visible"
               overflow="visible"
               id="textext-4f20d5f8-5">
              <path
                 style="stroke:none"
                 d=""
                 id="path4081"
                 inkscape:connector-curvature="0" />
            </symbol>
            <symbol
               style="overflow:visible"
               overflow="visible"
               id="textext-4f20d5f8-6">
              <path
                 style="stroke:none"
                 d="m 2.921875,-3.609375 c 0.1875,0 0.296875,0.0625 0.4375,0.0625 0.171875,0 0.265625,-0.140625 0.265625,-0.359375 0,-0.109375 -0.046875,-0.140625 -0.15625,-0.140625 -0.1875,0 -0.1875,0.0625 -0.46875,0.0625 -0.515625,0 -0.625,-0.328125 -0.625,-0.640625 0,-0.5 0.171875,-0.875 0.671875,-1.203125 0.125,0.03125 0.296875,0.046875 0.421875,0.046875 0.421875,0 0.875,-0.09375 0.875,-0.578125 0,-0.09375 -0.046875,-0.109375 -0.25,-0.109375 -0.390625,0 -0.6875,0.015625 -1.21875,0.375 -0.296875,-0.1875 -0.46875,-0.25 -0.46875,-0.40625 0,-0.015625 0,-0.03125 0.109375,-0.25 L 2.375,-6.8125 c -0.3125,0.09375 -0.59375,0.203125 -0.59375,0.421875 0,0.234375 0.3125,0.328125 0.84375,0.484375 -0.609375,0.453125 -1,0.734375 -1,1.234375 0,0.328125 0.234375,0.703125 1.03125,0.859375 -2.109375,0.453125 -2.296875,1.3125 -2.296875,2.421875 0,0.765625 0.375,1.328125 1.5625,1.46875 0.359375,0.0625 0.765625,0.09375 0.765625,0.3125 0,0.515625 -0.515625,0.90625 -0.71875,1.109375 l 0.109375,0.171875 c 0.453125,-0.265625 1.375,-0.953125 1.375,-1.703125 0,-0.421875 -0.375,-0.53125 -0.859375,-0.625 L 2.515625,-0.671875 c -0.890625,-0.171875 -1.34375,-0.625 -1.34375,-1.25 0,-0.484375 0.28125,-1.6875 1.75,-1.6875 z"
                 id="path4084"
                 inkscape:connector-curvature="0" />
            </symbol>
          </g>
        </defs>
        <g
           id="textext-4f20d5f8-7">
          <g
             style="fill:#000000;fill-opacity:1"
             id="g4087">
            <use
               height="1052.3622"
               width="744.09448"
               xlink:href="#textext-4f20d5f8-1"
               x="223.631"
               y="134.765"
               id="use4089" />
          </g>
          <g
             style="fill:#000000;fill-opacity:1"
             id="g4091">
            <use
               height="1052.3622"
               width="744.09448"
               xlink:href="#textext-4f20d5f8-3"
               x="229.00101"
               y="134.765"
               id="use4093" />
          </g>
          <g
             style="fill:#000000;fill-opacity:1"
             id="g4095">
            <use
               height="1052.3622"
               width="744.09448"
               xlink:href="#textext-4f20d5f8-6"
               x="232.209"
               y="134.765"
               id="use4097" />
          </g>
          <g
             style="fill:#000000;fill-opacity:1"
             id="g4099">
            <use
               height="1052.3622"
               width="744.09448"
               xlink:href="#textext-4f20d5f8-4"
               x="236.912"
               y="134.765"
               id="use4101" />
          </g>
        </g>
      </g>
      <g
         id="g4267"
         transform="matrix(4,0,0,4,-944.19744,-467.91208)"
         ns0:preamble="/home/diego/DiegoAndres/preamble_tex_text_inkscape.txt"
         ns0:text="$x_3$">
        <defs
           id="defs4269">
          <g
             id="g4271">
            <symbol
               id="textext-1068627c-0"
               overflow="visible"
               style="overflow:visible">
              <path
                 id="path4274"
                 d=""
                 style="stroke:none"
                 inkscape:connector-curvature="0" />
            </symbol>
            <symbol
               id="textext-1068627c-1"
               overflow="visible"
               style="overflow:visible">
              <path
                 id="path4277"
                 d="m 4.65625,-1.265625 c -0.21875,0.40625 -0.46875,0.90625 -0.734375,0.90625 -0.171875,0 -0.25,-0.21875 -0.453125,-1.03125 L 3.1875,-2.59375 C 3.515625,-3.1875 3.984375,-3.921875 4.25,-3.921875 c 0.078125,0 0.15625,0.03125 0.25,0.078125 0.09375,0.03125 0.1875,0.078125 0.296875,0.078125 0.203125,0 0.390625,-0.203125 0.390625,-0.4375 0,-0.296875 -0.203125,-0.40625 -0.46875,-0.40625 -0.484375,0 -0.890625,0.4375 -1.21875,0.953125 l -0.40625,0.625 -0.015625,0 -0.359375,-1.53125 -0.0625,-0.046875 -1.515625,0.46875 0.03125,0.21875 0.6875,-0.046875 C 2.03125,-3.984375 2.09375,-3.9375 2.1875,-3.515625 l 0.328125,1.328125 -0.25,0.4375 C 1.875,-1.078125 1.53125,-0.59375 1.3125,-0.59375 c -0.09375,0 -0.1875,-0.046875 -0.265625,-0.078125 -0.09375,-0.046875 -0.21875,-0.140625 -0.375,-0.140625 -0.234375,0 -0.390625,0.234375 -0.390625,0.453125 0,0.265625 0.21875,0.46875 0.59375,0.46875 0.625,0 0.984375,-0.625 1.359375,-1.234375 l 0.359375,-0.609375 0.015625,0 0.171875,0.71875 c 0.171875,0.734375 0.34375,1.125 0.8125,1.125 0.671875,0 1.015625,-0.6875 1.296875,-1.25 l -0.234375,-0.125 z"
                 style="stroke:none"
                 inkscape:connector-curvature="0" />
            </symbol>
            <symbol
               id="textext-1068627c-2"
               overflow="visible"
               style="overflow:visible">
              <path
                 id="path4280"
                 d=""
                 style="stroke:none"
                 inkscape:connector-curvature="0" />
            </symbol>
            <symbol
               id="textext-1068627c-3"
               overflow="visible"
               style="overflow:visible">
              <path
                 id="path4283"
                 d="m 0.90625,-2.546875 c 0,0.109375 0.03125,0.1875 0.125,0.1875 0.078125,0 0.265625,-0.0625 0.609375,-0.0625 0.59375,0 0.921875,0.53125 0.921875,1.140625 0,0.828125 -0.40625,1.125 -0.90625,1.125 -0.453125,0 -0.75,-0.359375 -0.890625,-0.75 -0.046875,-0.125 -0.109375,-0.1875 -0.203125,-0.1875 -0.125,0 -0.375,0.125 -0.375,0.390625 0,0.296875 0.484375,0.78125 1.46875,0.78125 1,0 1.640625,-0.5 1.640625,-1.390625 0,-0.9375 -0.796875,-1.21875 -1.1875,-1.25 l 0,-0.03125 c 0.375,-0.0625 0.984375,-0.34375 0.984375,-1.03125 0,-0.765625 -0.609375,-1.109375 -1.359375,-1.109375 -0.90625,0 -1.359375,0.53125 -1.359375,0.828125 0,0.21875 0.234375,0.328125 0.328125,0.328125 0.09375,0 0.15625,-0.046875 0.1875,-0.140625 C 1.03125,-4.1875 1.296875,-4.5 1.6875,-4.5 2.25,-4.5 2.375,-4 2.375,-3.609375 c 0,0.40625 -0.140625,0.9375 -0.734375,0.9375 -0.34375,0 -0.53125,-0.078125 -0.609375,-0.078125 -0.09375,0 -0.125,0.078125 -0.125,0.203125 z"
                 style="stroke:none"
                 inkscape:connector-curvature="0" />
            </symbol>
          </g>
        </defs>
        <g
           id="textext-1068627c-4">
          <g
             id="g4286"
             style="fill:#000000;fill-opacity:1">
            <use
               id="use4288"
               y="134.765"
               x="223.631"
               xlink:href="#textext-1068627c-1"
               width="744.09448"
               height="1052.3622" />
          </g>
          <g
             id="g4290"
             style="fill:#000000;fill-opacity:1">
            <use
               id="use4292"
               y="136.259"
               x="228.662"
               xlink:href="#textext-1068627c-3"
               width="744.09448"
               height="1052.3622" />
          </g>
        </g>
      </g>
      <g
         ns0:text="$1$"
         ns0:preamble="/home/diego/DiegoAndres/preamble_tex_text_inkscape.txt"
         transform="matrix(4,0,0,4,-702.19744,-123.91207)"
         id="g4662">
        <defs
           id="defs4664">
          <g
             id="g4666">
            <symbol
               style="overflow:visible"
               overflow="visible"
               id="textext-51d4b89c-0">
              <path
                 style="stroke:none"
                 d=""
                 id="path4669"
                 inkscape:connector-curvature="0" />
            </symbol>
            <symbol
               style="overflow:visible"
               overflow="visible"
               id="textext-51d4b89c-1">
              <path
                 style="stroke:none"
                 d="m 4.015625,0 0,-0.265625 -0.78125,-0.0625 C 3.046875,-0.34375 2.9375,-0.421875 2.9375,-0.78125 l 0,-5.40625 L 2.890625,-6.234375 1,-5.921875 1,-5.6875 1.859375,-5.578125 c 0.15625,0.015625 0.21875,0.078125 0.21875,0.34375 l 0,4.453125 c 0,0.171875 -0.03125,0.28125 -0.09375,0.34375 C 1.9375,-0.359375 1.875,-0.34375 1.765625,-0.328125 L 1,-0.265625 1,0 4.015625,0 Z"
                 id="path4672"
                 inkscape:connector-curvature="0" />
            </symbol>
          </g>
        </defs>
        <g
           id="textext-51d4b89c-2">
          <g
             style="fill:#000000;fill-opacity:1"
             id="g4675">
            <use
               height="1052.3622"
               width="744.09448"
               xlink:href="#textext-51d4b89c-1"
               x="223.43201"
               y="134.765"
               id="use4677" />
          </g>
        </g>
      </g>
      <g
         id="g4955"
         transform="matrix(4,0,0,4,-794.19744,-123.91207)"
         ns0:preamble="/home/diego/DiegoAndres/preamble_tex_text_inkscape.txt"
         ns0:text="$0$">
        <defs
           id="defs4957">
          <g
             id="g4959">
            <symbol
               style="overflow:visible"
               id="textext-f8bc1b7a-0"
               overflow="visible">
              <path
                 id="path4962"
                 d=""
                 style="stroke:none"
                 inkscape:connector-curvature="0" />
            </symbol>
            <symbol
               style="overflow:visible"
               id="textext-f8bc1b7a-1"
               overflow="visible">
              <path
                 id="path4965"
                 d="m 2.4375,-5.921875 c 0.859375,0 1.109375,1.359375 1.109375,2.859375 0,1.5 -0.25,2.84375 -1.109375,2.84375 -0.875,0 -1.125,-1.34375 -1.125,-2.84375 0,-1.5 0.25,-2.859375 1.125,-2.859375 z m 0,-0.3125 c -1.515625,0 -2.0625,1.34375 -2.0625,3.171875 0,1.828125 0.546875,3.171875 2.0625,3.171875 1.5,0 2.046875,-1.34375 2.046875,-3.171875 0,-1.828125 -0.546875,-3.171875 -2.046875,-3.171875 z"
                 style="stroke:none"
                 inkscape:connector-curvature="0" />
            </symbol>
          </g>
        </defs>
        <g
           id="textext-f8bc1b7a-2">
          <g
             id="g4968"
             style="fill:#000000;fill-opacity:1">
            <use
               height="1052.3622"
               width="744.09448"
               id="use4970"
               y="134.765"
               x="223.43201"
               xlink:href="#textext-f8bc1b7a-1" />
          </g>
        </g>
      </g>
      <g
         ns0:text="$-1$"
         ns0:preamble="/home/diego/DiegoAndres/preamble_tex_text_inkscape.txt"
         transform="matrix(4,0,0,4,-908.19744,-123.91207)"
         id="g5236">
        <defs
           id="defs5238">
          <g
             id="g5240">
            <symbol
               style="overflow:visible"
               overflow="visible"
               id="textext-d4a7d2d2-0">
              <path
                 style="stroke:none"
                 d=""
                 id="path5243"
                 inkscape:connector-curvature="0" />
            </symbol>
            <symbol
               style="overflow:visible"
               overflow="visible"
               id="textext-d4a7d2d2-1">
              <path
                 style="stroke:none"
                 d="m 5.828125,-2.328125 0,-0.53125 -5.046875,0 0,0.53125 5.046875,0 z"
                 id="path5246"
                 inkscape:connector-curvature="0" />
            </symbol>
            <symbol
               style="overflow:visible"
               overflow="visible"
               id="textext-d4a7d2d2-2">
              <path
                 style="stroke:none"
                 d=""
                 id="path5249"
                 inkscape:connector-curvature="0" />
            </symbol>
            <symbol
               style="overflow:visible"
               overflow="visible"
               id="textext-d4a7d2d2-3">
              <path
                 style="stroke:none"
                 d="m 4.015625,0 0,-0.265625 -0.78125,-0.0625 C 3.046875,-0.34375 2.9375,-0.421875 2.9375,-0.78125 l 0,-5.40625 L 2.890625,-6.234375 1,-5.921875 1,-5.6875 1.859375,-5.578125 c 0.15625,0.015625 0.21875,0.078125 0.21875,0.34375 l 0,4.453125 c 0,0.171875 -0.03125,0.28125 -0.09375,0.34375 C 1.9375,-0.359375 1.875,-0.34375 1.765625,-0.328125 L 1,-0.265625 1,0 4.015625,0 Z"
                 id="path5252"
                 inkscape:connector-curvature="0" />
            </symbol>
          </g>
        </defs>
        <g
           id="textext-d4a7d2d2-4">
          <g
             style="fill:#000000;fill-opacity:1"
             id="g5255">
            <use
               height="1052.3622"
               width="744.09448"
               xlink:href="#textext-d4a7d2d2-1"
               x="223.43201"
               y="134.765"
               id="use5257" />
          </g>
          <g
             style="fill:#000000;fill-opacity:1"
             id="g5259">
            <use
               height="1052.3622"
               width="744.09448"
               xlink:href="#textext-d4a7d2d2-3"
               x="230.02699"
               y="134.765"
               id="use5261" />
          </g>
        </g>
      </g>
      <g
         id="g5527"
         transform="matrix(4,0,0,4,-944.19744,-197.91207)"
         ns0:preamble="/home/diego/DiegoAndres/preamble_tex_text_inkscape.txt"
         ns0:text="$x_1$">
        <defs
           id="defs5529">
          <g
             id="g5531">
            <symbol
               style="overflow:visible"
               id="textext-83d43742-0"
               overflow="visible">
              <path
                 id="path5534"
                 d=""
                 style="stroke:none"
                 inkscape:connector-curvature="0" />
            </symbol>
            <symbol
               style="overflow:visible"
               id="textext-83d43742-1"
               overflow="visible">
              <path
                 id="path5537"
                 d="m 4.65625,-1.265625 c -0.21875,0.40625 -0.46875,0.90625 -0.734375,0.90625 -0.171875,0 -0.25,-0.21875 -0.453125,-1.03125 L 3.1875,-2.59375 C 3.515625,-3.1875 3.984375,-3.921875 4.25,-3.921875 c 0.078125,0 0.15625,0.03125 0.25,0.078125 0.09375,0.03125 0.1875,0.078125 0.296875,0.078125 0.203125,0 0.390625,-0.203125 0.390625,-0.4375 0,-0.296875 -0.203125,-0.40625 -0.46875,-0.40625 -0.484375,0 -0.890625,0.4375 -1.21875,0.953125 l -0.40625,0.625 -0.015625,0 -0.359375,-1.53125 -0.0625,-0.046875 -1.515625,0.46875 0.03125,0.21875 0.6875,-0.046875 C 2.03125,-3.984375 2.09375,-3.9375 2.1875,-3.515625 l 0.328125,1.328125 -0.25,0.4375 C 1.875,-1.078125 1.53125,-0.59375 1.3125,-0.59375 c -0.09375,0 -0.1875,-0.046875 -0.265625,-0.078125 -0.09375,-0.046875 -0.21875,-0.140625 -0.375,-0.140625 -0.234375,0 -0.390625,0.234375 -0.390625,0.453125 0,0.265625 0.21875,0.46875 0.59375,0.46875 0.625,0 0.984375,-0.625 1.359375,-1.234375 l 0.359375,-0.609375 0.015625,0 0.171875,0.71875 c 0.171875,0.734375 0.34375,1.125 0.8125,1.125 0.671875,0 1.015625,-0.6875 1.296875,-1.25 l -0.234375,-0.125 z"
                 style="stroke:none"
                 inkscape:connector-curvature="0" />
            </symbol>
            <symbol
               style="overflow:visible"
               id="textext-83d43742-2"
               overflow="visible">
              <path
                 id="path5540"
                 d=""
                 style="stroke:none"
                 inkscape:connector-curvature="0" />
            </symbol>
            <symbol
               style="overflow:visible"
               id="textext-83d43742-3"
               overflow="visible">
              <path
                 id="path5543"
                 d="m 3.046875,0 0,-0.203125 L 2.453125,-0.25 C 2.3125,-0.265625 2.234375,-0.328125 2.234375,-0.59375 l 0,-4.109375 L 2.1875,-4.734375 0.765625,-4.5 l 0,0.171875 L 1.40625,-4.25 c 0.125,0.015625 0.171875,0.078125 0.171875,0.28125 l 0,3.375 c 0,0.140625 -0.03125,0.21875 -0.0625,0.265625 -0.03125,0.046875 -0.09375,0.0625 -0.171875,0.078125 l -0.578125,0.046875 0,0.203125 2.28125,0 z"
                 style="stroke:none"
                 inkscape:connector-curvature="0" />
            </symbol>
          </g>
        </defs>
        <g
           id="textext-83d43742-4">
          <g
             id="g5546"
             style="fill:#000000;fill-opacity:1">
            <use
               height="1052.3622"
               width="744.09448"
               id="use5548"
               y="134.765"
               x="223.631"
               xlink:href="#textext-83d43742-1" />
          </g>
          <g
             id="g5550"
             style="fill:#000000;fill-opacity:1">
            <use
               height="1052.3622"
               width="744.09448"
               id="use5552"
               y="136.259"
               x="228.662"
               xlink:href="#textext-83d43742-3" />
          </g>
        </g>
      </g>
      <g
         ns0:text="$x_2$"
         ns0:preamble="/home/diego/DiegoAndres/preamble_tex_text_inkscape.txt"
         transform="matrix(4,0,0,4,-944.19744,-245.91207)"
         id="g5818">
        <defs
           id="defs5820">
          <g
             id="g5822">
            <symbol
               style="overflow:visible"
               overflow="visible"
               id="textext-fdcc1eb7-0">
              <path
                 style="stroke:none"
                 d=""
                 id="path5825"
                 inkscape:connector-curvature="0" />
            </symbol>
            <symbol
               style="overflow:visible"
               overflow="visible"
               id="textext-fdcc1eb7-1">
              <path
                 style="stroke:none"
                 d="m 4.65625,-1.265625 c -0.21875,0.40625 -0.46875,0.90625 -0.734375,0.90625 -0.171875,0 -0.25,-0.21875 -0.453125,-1.03125 L 3.1875,-2.59375 C 3.515625,-3.1875 3.984375,-3.921875 4.25,-3.921875 c 0.078125,0 0.15625,0.03125 0.25,0.078125 0.09375,0.03125 0.1875,0.078125 0.296875,0.078125 0.203125,0 0.390625,-0.203125 0.390625,-0.4375 0,-0.296875 -0.203125,-0.40625 -0.46875,-0.40625 -0.484375,0 -0.890625,0.4375 -1.21875,0.953125 l -0.40625,0.625 -0.015625,0 -0.359375,-1.53125 -0.0625,-0.046875 -1.515625,0.46875 0.03125,0.21875 0.6875,-0.046875 C 2.03125,-3.984375 2.09375,-3.9375 2.1875,-3.515625 l 0.328125,1.328125 -0.25,0.4375 C 1.875,-1.078125 1.53125,-0.59375 1.3125,-0.59375 c -0.09375,0 -0.1875,-0.046875 -0.265625,-0.078125 -0.09375,-0.046875 -0.21875,-0.140625 -0.375,-0.140625 -0.234375,0 -0.390625,0.234375 -0.390625,0.453125 0,0.265625 0.21875,0.46875 0.59375,0.46875 0.625,0 0.984375,-0.625 1.359375,-1.234375 l 0.359375,-0.609375 0.015625,0 0.171875,0.71875 c 0.171875,0.734375 0.34375,1.125 0.8125,1.125 0.671875,0 1.015625,-0.6875 1.296875,-1.25 l -0.234375,-0.125 z"
                 id="path5828"
                 inkscape:connector-curvature="0" />
            </symbol>
            <symbol
               style="overflow:visible"
               overflow="visible"
               id="textext-fdcc1eb7-2">
              <path
                 style="stroke:none"
                 d=""
                 id="path5831"
                 inkscape:connector-curvature="0" />
            </symbol>
            <symbol
               style="overflow:visible"
               overflow="visible"
               id="textext-fdcc1eb7-3">
              <path
                 style="stroke:none"
                 d="m 3.375,-0.921875 -0.1875,-0.03125 c -0.15625,0.375 -0.28125,0.421875 -0.5625,0.421875 l -1.78125,0 C 0.953125,-0.890625 1.359375,-1.390625 2,-1.859375 2.671875,-2.34375 3.1875,-2.65625 3.1875,-3.4375 c 0,-0.96875 -0.640625,-1.296875 -1.375,-1.296875 -0.953125,0 -1.4375,0.578125 -1.4375,0.9375 0,0.234375 0.265625,0.34375 0.375,0.34375 0.125,0 0.171875,-0.0625 0.203125,-0.1875 C 1.0625,-4.109375 1.34375,-4.5 1.765625,-4.5 c 0.546875,0 0.6875,0.453125 0.6875,0.96875 0,0.75 -0.375,1.15625 -0.96875,1.703125 C 0.625,-1.09375 0.328125,-0.609375 0.1875,-0.0625 L 0.265625,0 3.140625,0 3.375,-0.921875 Z"
                 id="path5834"
                 inkscape:connector-curvature="0" />
            </symbol>
          </g>
        </defs>
        <g
           id="textext-fdcc1eb7-4">
          <g
             style="fill:#000000;fill-opacity:1"
             id="g5837">
            <use
               height="1052.3622"
               width="744.09448"
               xlink:href="#textext-fdcc1eb7-1"
               x="223.631"
               y="134.765"
               id="use5839" />
          </g>
          <g
             style="fill:#000000;fill-opacity:1"
             id="g5841">
            <use
               height="1052.3622"
               width="744.09448"
               xlink:href="#textext-fdcc1eb7-3"
               x="228.662"
               y="136.259"
               id="use5843" />
          </g>
        </g>
      </g>
    </g>
  </g>
</svg>
