<?xml version="1.0" encoding="UTF-8" standalone="no"?>
<!-- Created with Inkscape (http://www.inkscape.org/) -->
<svg
   xmlns:ns0="http://www.iki.fi/pav/software/textext/"
   xmlns:dc="http://purl.org/dc/elements/1.1/"
   xmlns:cc="http://creativecommons.org/ns#"
   xmlns:rdf="http://www.w3.org/1999/02/22-rdf-syntax-ns#"
   xmlns:svg="http://www.w3.org/2000/svg"
   xmlns="http://www.w3.org/2000/svg"
   xmlns:xlink="http://www.w3.org/1999/xlink"
   xmlns:sodipodi="http://sodipodi.sourceforge.net/DTD/sodipodi-0.dtd"
   xmlns:inkscape="http://www.inkscape.org/namespaces/inkscape"
   width="744.09448819"
   height="1052.3622047"
   id="svg2"
   sodipodi:version="0.32"
   inkscape:version="0.46"
   sodipodi:docname="interpolacion_isoparametrica.svg"
   inkscape:output_extension="org.inkscape.output.svg.inkscape">
  <sodipodi:namedview
     id="base"
     pagecolor="#ffffff"
     bordercolor="#666666"
     borderopacity="1.0"
     gridtolerance="10000"
     guidetolerance="10"
     objecttolerance="10"
     inkscape:pageopacity="0.0"
     inkscape:pageshadow="2"
     inkscape:zoom="0.98994949"
     inkscape:cx="560.33732"
     inkscape:cy="824.12219"
     inkscape:document-units="px"
     inkscape:current-layer="layer1"
     showgrid="false"
     inkscape:window-width="1672"
     inkscape:window-height="971"
     inkscape:window-x="0"
     inkscape:window-y="0">
    <inkscape:grid
       type="xygrid"
       id="grid2383" />
  </sodipodi:namedview>
  <defs
     id="defs4">
    <marker
       inkscape:stockid="Arrow1Mend"
       orient="auto"
       refY="0.0"
       refX="0.0"
       id="Arrow1Mend"
       style="overflow:visible;">
      <path
         id="path3169"
         d="M 0.0,0.0 L 5.0,-5.0 L -12.5,0.0 L 5.0,5.0 L 0.0,0.0 z "
         style="fill-rule:evenodd;stroke:#000000;stroke-width:1.0pt;marker-start:none;"
         transform="scale(0.4) rotate(180) translate(10,0)" />
    </marker>
    <inkscape:perspective
       sodipodi:type="inkscape:persp3d"
       inkscape:vp_x="0 : 526.18109 : 1"
       inkscape:vp_y="0 : 1000 : 0"
       inkscape:vp_z="744.09448 : 526.18109 : 1"
       inkscape:persp3d-origin="372.04724 : 350.78739 : 1"
       id="perspective10" />
  </defs>
  <metadata
     id="metadata7">
    <rdf:RDF>
      <cc:Work
         rdf:about="">
        <dc:format>image/svg+xml</dc:format>
        <dc:type
           rdf:resource="http://purl.org/dc/dcmitype/StillImage" />
      </cc:Work>
    </rdf:RDF>
  </metadata>
  <g
     inkscape:label="Layer 1"
     inkscape:groupmode="layer"
     id="layer1">
    <path
       style="fill:none;fill-rule:evenodd;stroke:#000000;stroke-width:3;stroke-linecap:butt;stroke-linejoin:miter;marker-end:url(#Arrow1Mend);stroke-miterlimit:4;stroke-dasharray:none;stroke-opacity:1"
       d="M 129.29442,452.27086 C 429.29442,452.27086 429.29442,452.27086 429.29442,452.27086"
       id="path2385" />
    <path
       id="path3935"
       d="M 149.29442,472.10802 C 149.29442,91.637229 149.29442,91.637229 149.29442,91.637229"
       style="fill:none;fill-rule:evenodd;stroke:#000000;stroke-width:3.32567263;stroke-linecap:butt;stroke-linejoin:miter;marker-end:url(#Arrow1Mend);stroke-miterlimit:4;stroke-dasharray:none;stroke-opacity:1" />
    <path
       style="fill:none;fill-rule:evenodd;stroke:#000000;stroke-width:1px;stroke-linecap:butt;stroke-linejoin:miter;stroke-opacity:1"
       d="M 169.29442,442.27086 C 169.29442,462.27086 169.29442,462.27086 169.29442,462.27086"
       id="path3937" />
    <path
       style="fill:none;fill-rule:evenodd;stroke:#000000;stroke-width:1px;stroke-linecap:butt;stroke-linejoin:miter;stroke-opacity:1"
       d="M 259.29442,442.27086 C 259.29442,462.27086 259.29442,462.27086 259.29442,462.27086"
       id="path3939" />
    <path
       id="path3943"
       d="M 349.29442,442.27086 C 349.29442,462.27086 349.29442,462.27086 349.29442,462.27086"
       style="fill:none;fill-rule:evenodd;stroke:#000000;stroke-width:1px;stroke-linecap:butt;stroke-linejoin:miter;stroke-opacity:1" />
    <path
       style="fill:none;fill-rule:evenodd;stroke:#000000;stroke-width:1px;stroke-linecap:butt;stroke-linejoin:miter;stroke-opacity:1"
       d="M 139.29442,422.27086 C 159.29442,422.27086 159.29442,422.27086 159.29442,422.27086"
       id="path3945" />
    <path
       style="fill:none;fill-rule:evenodd;stroke:#000000;stroke-width:1px;stroke-linecap:butt;stroke-linejoin:miter;stroke-opacity:1"
       d="M 139.29442,372.27086 C 159.29442,372.27086 159.29442,372.27086 159.29442,372.27086"
       id="path3947" />
    <path
       style="fill:none;fill-rule:evenodd;stroke:#000000;stroke-width:1px;stroke-linecap:butt;stroke-linejoin:miter;stroke-opacity:1"
       d="M 139.29442,152.27086 C 159.29442,152.27086 159.29442,152.27086 159.29442,152.27086 L 159.29442,152.27086 L 159.29442,152.27086"
       id="path3949" />
    <path
       sodipodi:type="arc"
       style="opacity:1;fill:#000000;fill-opacity:1;fill-rule:evenodd;stroke:#000000;stroke-width:3;stroke-linecap:butt;stroke-linejoin:miter;marker:none;marker-start:none;marker-mid:none;marker-end:none;stroke-miterlimit:4;stroke-dasharray:none;stroke-dashoffset:0;stroke-opacity:1;visibility:visible;display:inline;overflow:visible;enable-background:accumulate"
       id="path3951"
       sodipodi:cx="185"
       sodipodi:cy="227.36218"
       sodipodi:rx="5"
       sodipodi:ry="5"
       d="M 190,227.36218 A 5,5 0 1 1 180,227.36218 A 5,5 0 1 1 190,227.36218 z"
       transform="translate(-15.705576,194.90868)" />
    <path
       transform="translate(74.294424,144.90868)"
       d="M 190,227.36218 A 5,5 0 1 1 180,227.36218 A 5,5 0 1 1 190,227.36218 z"
       sodipodi:ry="5"
       sodipodi:rx="5"
       sodipodi:cy="227.36218"
       sodipodi:cx="185"
       id="path3953"
       style="opacity:1;fill:#000000;fill-opacity:1;fill-rule:evenodd;stroke:#000000;stroke-width:3;stroke-linecap:butt;stroke-linejoin:miter;marker:none;marker-start:none;marker-mid:none;marker-end:none;stroke-miterlimit:4;stroke-dasharray:none;stroke-dashoffset:0;stroke-opacity:1;visibility:visible;display:inline;overflow:visible;enable-background:accumulate"
       sodipodi:type="arc" />
    <path
       sodipodi:type="arc"
       style="opacity:1;fill:#000000;fill-opacity:1;fill-rule:evenodd;stroke:#000000;stroke-width:3;stroke-linecap:butt;stroke-linejoin:miter;marker:none;marker-start:none;marker-mid:none;marker-end:none;stroke-miterlimit:4;stroke-dasharray:none;stroke-dashoffset:0;stroke-opacity:1;visibility:visible;display:inline;overflow:visible;enable-background:accumulate"
       id="path3955"
       sodipodi:cx="185"
       sodipodi:cy="227.36218"
       sodipodi:rx="5"
       sodipodi:ry="5"
       d="M 190,227.36218 A 5,5 0 1 1 180,227.36218 A 5,5 0 1 1 190,227.36218 z"
       transform="translate(164.29442,-75.081161)" />
    <path
       style="fill:none;fill-rule:evenodd;stroke:#ff0000;stroke-width:3;stroke-linecap:butt;stroke-linejoin:miter;stroke-miterlimit:4;stroke-dasharray:none;stroke-opacity:1"
       d="M 169.29442,422.27086 C 300.43282,418.62342 339.29442,167.27086 349.29442,152.27086"
       id="path3959"
       sodipodi:nodetypes="cc" />
    <g
       transform="matrix(4,0,0,4,-450.76808,-75.041641)"
       ns0:text="$\\xi$"
       ns0:preamble="/home/diego/DiegoAndres/preamble_tex_text_inkscape.txt"
       id="g3982">
      <defs
         id="defs3984">
        <g
           id="g3986">
          <symbol
             style="overflow:visible"
             overflow="visible"
             id="textext-3f2f8b9b-0">
            <path
               style="stroke:none"
               d=""
               id="path3989" />
          </symbol>
          <symbol
             style="overflow:visible"
             overflow="visible"
             id="textext-3f2f8b9b-1">
            <path
               style="stroke:none"
               d="M 2.921875,-3.609375 C 3.109375,-3.609375 3.21875,-3.546875 3.359375,-3.546875 C 3.53125,-3.546875 3.625,-3.6875 3.625,-3.90625 C 3.625,-4.015625 3.578125,-4.046875 3.46875,-4.046875 C 3.28125,-4.046875 3.28125,-3.984375 3,-3.984375 C 2.484375,-3.984375 2.375,-4.3125 2.375,-4.625 C 2.375,-5.125 2.546875,-5.5 3.046875,-5.828125 C 3.171875,-5.796875 3.34375,-5.78125 3.46875,-5.78125 C 3.890625,-5.78125 4.34375,-5.875 4.34375,-6.359375 C 4.34375,-6.453125 4.296875,-6.46875 4.09375,-6.46875 C 3.703125,-6.46875 3.40625,-6.453125 2.875,-6.09375 C 2.578125,-6.28125 2.40625,-6.34375 2.40625,-6.5 C 2.40625,-6.515625 2.40625,-6.53125 2.515625,-6.75 L 2.375,-6.8125 C 2.0625,-6.71875 1.78125,-6.609375 1.78125,-6.390625 C 1.78125,-6.15625 2.09375,-6.0625 2.625,-5.90625 C 2.015625,-5.453125 1.625,-5.171875 1.625,-4.671875 C 1.625,-4.34375 1.859375,-3.96875 2.65625,-3.8125 C 0.546875,-3.359375 0.359375,-2.5 0.359375,-1.390625 C 0.359375,-0.625 0.734375,-0.0625 1.921875,0.078125 C 2.28125,0.140625 2.6875,0.171875 2.6875,0.390625 C 2.6875,0.90625 2.171875,1.296875 1.96875,1.5 L 2.078125,1.671875 C 2.53125,1.40625 3.453125,0.71875 3.453125,-0.03125 C 3.453125,-0.453125 3.078125,-0.5625 2.59375,-0.65625 L 2.515625,-0.671875 C 1.625,-0.84375 1.171875,-1.296875 1.171875,-1.921875 C 1.171875,-2.40625 1.453125,-3.609375 2.921875,-3.609375 z"
               id="path3992" />
          </symbol>
        </g>
      </defs>
      <g
         id="textext-3f2f8b9b-2">
        <g
           style="fill:#000000;fill-opacity:1"
           id="g3995">
          <use
             height="1052.3622"
             width="744.09448"
             xlink:href="#textext-3f2f8b9b-1"
             x="223.43201"
             y="134.765"
             id="use3997" />
        </g>
      </g>
    </g>
    <g
       id="g4059"
       ns0:preamble="/home/diego/DiegoAndres/preamble_tex_text_inkscape.txt"
       ns0:text="$x(\\xi)$"
       transform="matrix(4,0,0,4,-733.45558,-427.35414)">
      <defs
         id="defs4061">
        <g
           id="g4063">
          <symbol
             id="textext-4f20d5f8-0"
             overflow="visible"
             style="overflow:visible">
            <path
               id="path4066"
               d=""
               style="stroke:none" />
          </symbol>
          <symbol
             id="textext-4f20d5f8-1"
             overflow="visible"
             style="overflow:visible">
            <path
               id="path4069"
               d="M 4.65625,-1.265625 C 4.4375,-0.859375 4.1875,-0.359375 3.921875,-0.359375 C 3.75,-0.359375 3.671875,-0.578125 3.46875,-1.390625 L 3.1875,-2.59375 C 3.515625,-3.1875 3.984375,-3.921875 4.25,-3.921875 C 4.328125,-3.921875 4.40625,-3.890625 4.5,-3.84375 C 4.59375,-3.8125 4.6875,-3.765625 4.796875,-3.765625 C 5,-3.765625 5.1875,-3.96875 5.1875,-4.203125 C 5.1875,-4.5 4.984375,-4.609375 4.71875,-4.609375 C 4.234375,-4.609375 3.828125,-4.171875 3.5,-3.65625 L 3.09375,-3.03125 L 3.078125,-3.03125 L 2.71875,-4.5625 L 2.65625,-4.609375 L 1.140625,-4.140625 L 1.171875,-3.921875 L 1.859375,-3.96875 C 2.03125,-3.984375 2.09375,-3.9375 2.1875,-3.515625 L 2.515625,-2.1875 L 2.265625,-1.75 C 1.875,-1.078125 1.53125,-0.59375 1.3125,-0.59375 C 1.21875,-0.59375 1.125,-0.640625 1.046875,-0.671875 C 0.953125,-0.71875 0.828125,-0.8125 0.671875,-0.8125 C 0.4375,-0.8125 0.28125,-0.578125 0.28125,-0.359375 C 0.28125,-0.09375 0.5,0.109375 0.875,0.109375 C 1.5,0.109375 1.859375,-0.515625 2.234375,-1.125 L 2.59375,-1.734375 L 2.609375,-1.734375 L 2.78125,-1.015625 C 2.953125,-0.28125 3.125,0.109375 3.59375,0.109375 C 4.265625,0.109375 4.609375,-0.578125 4.890625,-1.140625 L 4.65625,-1.265625 z"
               style="stroke:none" />
          </symbol>
          <symbol
             id="textext-4f20d5f8-2"
             overflow="visible"
             style="overflow:visible">
            <path
               id="path4072"
               d=""
               style="stroke:none" />
          </symbol>
          <symbol
             id="textext-4f20d5f8-3"
             overflow="visible"
             style="overflow:visible">
            <path
               id="path4075"
               d="M 1.609375,-2.59375 C 1.609375,-5.203125 2.40625,-6 2.984375,-6.125 L 2.984375,-6.34375 C 1.375,-6.28125 0.96875,-4.296875 0.96875,-2.59375 C 0.96875,-0.875 1.375,1.109375 2.984375,1.171875 L 2.984375,0.9375 C 2.453125,0.828125 1.609375,0.0625 1.609375,-2.59375 z"
               style="stroke:none" />
          </symbol>
          <symbol
             id="textext-4f20d5f8-4"
             overflow="visible"
             style="overflow:visible">
            <path
               id="path4078"
               d="M 1.609375,-2.59375 C 1.609375,0.0625 0.765625,0.828125 0.234375,0.9375 L 0.234375,1.171875 C 1.828125,1.109375 2.25,-0.875 2.25,-2.59375 C 2.25,-4.296875 1.828125,-6.28125 0.234375,-6.34375 L 0.234375,-6.125 C 0.8125,-6 1.609375,-5.203125 1.609375,-2.59375 z"
               style="stroke:none" />
          </symbol>
          <symbol
             id="textext-4f20d5f8-5"
             overflow="visible"
             style="overflow:visible">
            <path
               id="path4081"
               d=""
               style="stroke:none" />
          </symbol>
          <symbol
             id="textext-4f20d5f8-6"
             overflow="visible"
             style="overflow:visible">
            <path
               id="path4084"
               d="M 2.921875,-3.609375 C 3.109375,-3.609375 3.21875,-3.546875 3.359375,-3.546875 C 3.53125,-3.546875 3.625,-3.6875 3.625,-3.90625 C 3.625,-4.015625 3.578125,-4.046875 3.46875,-4.046875 C 3.28125,-4.046875 3.28125,-3.984375 3,-3.984375 C 2.484375,-3.984375 2.375,-4.3125 2.375,-4.625 C 2.375,-5.125 2.546875,-5.5 3.046875,-5.828125 C 3.171875,-5.796875 3.34375,-5.78125 3.46875,-5.78125 C 3.890625,-5.78125 4.34375,-5.875 4.34375,-6.359375 C 4.34375,-6.453125 4.296875,-6.46875 4.09375,-6.46875 C 3.703125,-6.46875 3.40625,-6.453125 2.875,-6.09375 C 2.578125,-6.28125 2.40625,-6.34375 2.40625,-6.5 C 2.40625,-6.515625 2.40625,-6.53125 2.515625,-6.75 L 2.375,-6.8125 C 2.0625,-6.71875 1.78125,-6.609375 1.78125,-6.390625 C 1.78125,-6.15625 2.09375,-6.0625 2.625,-5.90625 C 2.015625,-5.453125 1.625,-5.171875 1.625,-4.671875 C 1.625,-4.34375 1.859375,-3.96875 2.65625,-3.8125 C 0.546875,-3.359375 0.359375,-2.5 0.359375,-1.390625 C 0.359375,-0.625 0.734375,-0.0625 1.921875,0.078125 C 2.28125,0.140625 2.6875,0.171875 2.6875,0.390625 C 2.6875,0.90625 2.171875,1.296875 1.96875,1.5 L 2.078125,1.671875 C 2.53125,1.40625 3.453125,0.71875 3.453125,-0.03125 C 3.453125,-0.453125 3.078125,-0.5625 2.59375,-0.65625 L 2.515625,-0.671875 C 1.625,-0.84375 1.171875,-1.296875 1.171875,-1.921875 C 1.171875,-2.40625 1.453125,-3.609375 2.921875,-3.609375 z"
               style="stroke:none" />
          </symbol>
        </g>
      </defs>
      <g
         id="textext-4f20d5f8-7">
        <g
           id="g4087"
           style="fill:#000000;fill-opacity:1">
          <use
             id="use4089"
             y="134.765"
             x="223.631"
             xlink:href="#textext-4f20d5f8-1"
             width="744.09448"
             height="1052.3622" />
        </g>
        <g
           id="g4091"
           style="fill:#000000;fill-opacity:1">
          <use
             id="use4093"
             y="134.765"
             x="229.00101"
             xlink:href="#textext-4f20d5f8-3"
             width="744.09448"
             height="1052.3622" />
        </g>
        <g
           id="g4095"
           style="fill:#000000;fill-opacity:1">
          <use
             id="use4097"
             y="134.765"
             x="232.209"
             xlink:href="#textext-4f20d5f8-6"
             width="744.09448"
             height="1052.3622" />
        </g>
        <g
           id="g4099"
           style="fill:#000000;fill-opacity:1">
          <use
             id="use4101"
             y="134.765"
             x="236.912"
             xlink:href="#textext-4f20d5f8-4"
             width="744.09448"
             height="1052.3622" />
        </g>
      </g>
    </g>
    <g
       ns0:text="$x_3$"
       ns0:preamble="/home/diego/DiegoAndres/preamble_tex_text_inkscape.txt"
       transform="matrix(4,0,0,4,-795.26808,-381.16664)"
       id="g4267">
      <defs
         id="defs4269">
        <g
           id="g4271">
          <symbol
             style="overflow:visible"
             overflow="visible"
             id="textext-1068627c-0">
            <path
               style="stroke:none"
               d=""
               id="path4274" />
          </symbol>
          <symbol
             style="overflow:visible"
             overflow="visible"
             id="textext-1068627c-1">
            <path
               style="stroke:none"
               d="M 4.65625,-1.265625 C 4.4375,-0.859375 4.1875,-0.359375 3.921875,-0.359375 C 3.75,-0.359375 3.671875,-0.578125 3.46875,-1.390625 L 3.1875,-2.59375 C 3.515625,-3.1875 3.984375,-3.921875 4.25,-3.921875 C 4.328125,-3.921875 4.40625,-3.890625 4.5,-3.84375 C 4.59375,-3.8125 4.6875,-3.765625 4.796875,-3.765625 C 5,-3.765625 5.1875,-3.96875 5.1875,-4.203125 C 5.1875,-4.5 4.984375,-4.609375 4.71875,-4.609375 C 4.234375,-4.609375 3.828125,-4.171875 3.5,-3.65625 L 3.09375,-3.03125 L 3.078125,-3.03125 L 2.71875,-4.5625 L 2.65625,-4.609375 L 1.140625,-4.140625 L 1.171875,-3.921875 L 1.859375,-3.96875 C 2.03125,-3.984375 2.09375,-3.9375 2.1875,-3.515625 L 2.515625,-2.1875 L 2.265625,-1.75 C 1.875,-1.078125 1.53125,-0.59375 1.3125,-0.59375 C 1.21875,-0.59375 1.125,-0.640625 1.046875,-0.671875 C 0.953125,-0.71875 0.828125,-0.8125 0.671875,-0.8125 C 0.4375,-0.8125 0.28125,-0.578125 0.28125,-0.359375 C 0.28125,-0.09375 0.5,0.109375 0.875,0.109375 C 1.5,0.109375 1.859375,-0.515625 2.234375,-1.125 L 2.59375,-1.734375 L 2.609375,-1.734375 L 2.78125,-1.015625 C 2.953125,-0.28125 3.125,0.109375 3.59375,0.109375 C 4.265625,0.109375 4.609375,-0.578125 4.890625,-1.140625 L 4.65625,-1.265625 z"
               id="path4277" />
          </symbol>
          <symbol
             style="overflow:visible"
             overflow="visible"
             id="textext-1068627c-2">
            <path
               style="stroke:none"
               d=""
               id="path4280" />
          </symbol>
          <symbol
             style="overflow:visible"
             overflow="visible"
             id="textext-1068627c-3">
            <path
               style="stroke:none"
               d="M 0.90625,-2.546875 C 0.90625,-2.4375 0.9375,-2.359375 1.03125,-2.359375 C 1.109375,-2.359375 1.296875,-2.421875 1.640625,-2.421875 C 2.234375,-2.421875 2.5625,-1.890625 2.5625,-1.28125 C 2.5625,-0.453125 2.15625,-0.15625 1.65625,-0.15625 C 1.203125,-0.15625 0.90625,-0.515625 0.765625,-0.90625 C 0.71875,-1.03125 0.65625,-1.09375 0.5625,-1.09375 C 0.4375,-1.09375 0.1875,-0.96875 0.1875,-0.703125 C 0.1875,-0.40625 0.671875,0.078125 1.65625,0.078125 C 2.65625,0.078125 3.296875,-0.421875 3.296875,-1.3125 C 3.296875,-2.25 2.5,-2.53125 2.109375,-2.5625 L 2.109375,-2.59375 C 2.484375,-2.65625 3.09375,-2.9375 3.09375,-3.625 C 3.09375,-4.390625 2.484375,-4.734375 1.734375,-4.734375 C 0.828125,-4.734375 0.375,-4.203125 0.375,-3.90625 C 0.375,-3.6875 0.609375,-3.578125 0.703125,-3.578125 C 0.796875,-3.578125 0.859375,-3.625 0.890625,-3.71875 C 1.03125,-4.1875 1.296875,-4.5 1.6875,-4.5 C 2.25,-4.5 2.375,-4 2.375,-3.609375 C 2.375,-3.203125 2.234375,-2.671875 1.640625,-2.671875 C 1.296875,-2.671875 1.109375,-2.75 1.03125,-2.75 C 0.9375,-2.75 0.90625,-2.671875 0.90625,-2.546875 z"
               id="path4283" />
          </symbol>
        </g>
      </defs>
      <g
         id="textext-1068627c-4">
        <g
           style="fill:#000000;fill-opacity:1"
           id="g4286">
          <use
             height="1052.3622"
             width="744.09448"
             xlink:href="#textext-1068627c-1"
             x="223.631"
             y="134.765"
             id="use4288" />
        </g>
        <g
           style="fill:#000000;fill-opacity:1"
           id="g4290">
          <use
             height="1052.3622"
             width="744.09448"
             xlink:href="#textext-1068627c-3"
             x="228.662"
             y="136.259"
             id="use4292" />
        </g>
      </g>
    </g>
    <g
       id="g4662"
       transform="matrix(4,0,0,4,-553.26808,-37.166641)"
       ns0:preamble="/home/diego/DiegoAndres/preamble_tex_text_inkscape.txt"
       ns0:text="$1$">
      <defs
         id="defs4664">
        <g
           id="g4666">
          <symbol
             id="textext-51d4b89c-0"
             overflow="visible"
             style="overflow:visible">
            <path
               id="path4669"
               d=""
               style="stroke:none" />
          </symbol>
          <symbol
             id="textext-51d4b89c-1"
             overflow="visible"
             style="overflow:visible">
            <path
               id="path4672"
               d="M 4.015625,0 L 4.015625,-0.265625 L 3.234375,-0.328125 C 3.046875,-0.34375 2.9375,-0.421875 2.9375,-0.78125 L 2.9375,-6.1875 L 2.890625,-6.234375 L 1,-5.921875 L 1,-5.6875 L 1.859375,-5.578125 C 2.015625,-5.5625 2.078125,-5.5 2.078125,-5.234375 L 2.078125,-0.78125 C 2.078125,-0.609375 2.046875,-0.5 1.984375,-0.4375 C 1.9375,-0.359375 1.875,-0.34375 1.765625,-0.328125 L 1,-0.265625 L 1,0 L 4.015625,0 z"
               style="stroke:none" />
          </symbol>
        </g>
      </defs>
      <g
         id="textext-51d4b89c-2">
        <g
           id="g4675"
           style="fill:#000000;fill-opacity:1">
          <use
             id="use4677"
             y="134.765"
             x="223.43201"
             xlink:href="#textext-51d4b89c-1"
             width="744.09448"
             height="1052.3622" />
        </g>
      </g>
    </g>
    <g
       ns0:text="$0$"
       ns0:preamble="/home/diego/DiegoAndres/preamble_tex_text_inkscape.txt"
       transform="matrix(4,0,0,4,-645.26808,-37.166641)"
       id="g4955">
      <defs
         id="defs4957">
        <g
           id="g4959">
          <symbol
             overflow="visible"
             id="textext-f8bc1b7a-0"
             style="overflow:visible">
            <path
               style="stroke:none"
               d=""
               id="path4962" />
          </symbol>
          <symbol
             overflow="visible"
             id="textext-f8bc1b7a-1"
             style="overflow:visible">
            <path
               style="stroke:none"
               d="M 2.4375,-5.921875 C 3.296875,-5.921875 3.546875,-4.5625 3.546875,-3.0625 C 3.546875,-1.5625 3.296875,-0.21875 2.4375,-0.21875 C 1.5625,-0.21875 1.3125,-1.5625 1.3125,-3.0625 C 1.3125,-4.5625 1.5625,-5.921875 2.4375,-5.921875 z M 2.4375,-6.234375 C 0.921875,-6.234375 0.375,-4.890625 0.375,-3.0625 C 0.375,-1.234375 0.921875,0.109375 2.4375,0.109375 C 3.9375,0.109375 4.484375,-1.234375 4.484375,-3.0625 C 4.484375,-4.890625 3.9375,-6.234375 2.4375,-6.234375 z"
               id="path4965" />
          </symbol>
        </g>
      </defs>
      <g
         id="textext-f8bc1b7a-2">
        <g
           style="fill:#000000;fill-opacity:1"
           id="g4968">
          <use
             xlink:href="#textext-f8bc1b7a-1"
             x="223.43201"
             y="134.765"
             id="use4970"
             width="744.09448"
             height="1052.3622" />
        </g>
      </g>
    </g>
    <g
       id="g5236"
       transform="matrix(4,0,0,4,-759.26808,-37.166641)"
       ns0:preamble="/home/diego/DiegoAndres/preamble_tex_text_inkscape.txt"
       ns0:text="$-1$">
      <defs
         id="defs5238">
        <g
           id="g5240">
          <symbol
             id="textext-d4a7d2d2-0"
             overflow="visible"
             style="overflow:visible">
            <path
               id="path5243"
               d=""
               style="stroke:none" />
          </symbol>
          <symbol
             id="textext-d4a7d2d2-1"
             overflow="visible"
             style="overflow:visible">
            <path
               id="path5246"
               d="M 5.828125,-2.328125 L 5.828125,-2.859375 L 0.78125,-2.859375 L 0.78125,-2.328125 L 5.828125,-2.328125 z"
               style="stroke:none" />
          </symbol>
          <symbol
             id="textext-d4a7d2d2-2"
             overflow="visible"
             style="overflow:visible">
            <path
               id="path5249"
               d=""
               style="stroke:none" />
          </symbol>
          <symbol
             id="textext-d4a7d2d2-3"
             overflow="visible"
             style="overflow:visible">
            <path
               id="path5252"
               d="M 4.015625,0 L 4.015625,-0.265625 L 3.234375,-0.328125 C 3.046875,-0.34375 2.9375,-0.421875 2.9375,-0.78125 L 2.9375,-6.1875 L 2.890625,-6.234375 L 1,-5.921875 L 1,-5.6875 L 1.859375,-5.578125 C 2.015625,-5.5625 2.078125,-5.5 2.078125,-5.234375 L 2.078125,-0.78125 C 2.078125,-0.609375 2.046875,-0.5 1.984375,-0.4375 C 1.9375,-0.359375 1.875,-0.34375 1.765625,-0.328125 L 1,-0.265625 L 1,0 L 4.015625,0 z"
               style="stroke:none" />
          </symbol>
        </g>
      </defs>
      <g
         id="textext-d4a7d2d2-4">
        <g
           id="g5255"
           style="fill:#000000;fill-opacity:1">
          <use
             id="use5257"
             y="134.765"
             x="223.43201"
             xlink:href="#textext-d4a7d2d2-1"
             width="744.09448"
             height="1052.3622" />
        </g>
        <g
           id="g5259"
           style="fill:#000000;fill-opacity:1">
          <use
             id="use5261"
             y="134.765"
             x="230.02699"
             xlink:href="#textext-d4a7d2d2-3"
             width="744.09448"
             height="1052.3622" />
        </g>
      </g>
    </g>
    <g
       ns0:text="$x_1$"
       ns0:preamble="/home/diego/DiegoAndres/preamble_tex_text_inkscape.txt"
       transform="matrix(4,0,0,4,-795.26808,-111.16664)"
       id="g5527">
      <defs
         id="defs5529">
        <g
           id="g5531">
          <symbol
             overflow="visible"
             id="textext-83d43742-0"
             style="overflow:visible">
            <path
               style="stroke:none"
               d=""
               id="path5534" />
          </symbol>
          <symbol
             overflow="visible"
             id="textext-83d43742-1"
             style="overflow:visible">
            <path
               style="stroke:none"
               d="M 4.65625,-1.265625 C 4.4375,-0.859375 4.1875,-0.359375 3.921875,-0.359375 C 3.75,-0.359375 3.671875,-0.578125 3.46875,-1.390625 L 3.1875,-2.59375 C 3.515625,-3.1875 3.984375,-3.921875 4.25,-3.921875 C 4.328125,-3.921875 4.40625,-3.890625 4.5,-3.84375 C 4.59375,-3.8125 4.6875,-3.765625 4.796875,-3.765625 C 5,-3.765625 5.1875,-3.96875 5.1875,-4.203125 C 5.1875,-4.5 4.984375,-4.609375 4.71875,-4.609375 C 4.234375,-4.609375 3.828125,-4.171875 3.5,-3.65625 L 3.09375,-3.03125 L 3.078125,-3.03125 L 2.71875,-4.5625 L 2.65625,-4.609375 L 1.140625,-4.140625 L 1.171875,-3.921875 L 1.859375,-3.96875 C 2.03125,-3.984375 2.09375,-3.9375 2.1875,-3.515625 L 2.515625,-2.1875 L 2.265625,-1.75 C 1.875,-1.078125 1.53125,-0.59375 1.3125,-0.59375 C 1.21875,-0.59375 1.125,-0.640625 1.046875,-0.671875 C 0.953125,-0.71875 0.828125,-0.8125 0.671875,-0.8125 C 0.4375,-0.8125 0.28125,-0.578125 0.28125,-0.359375 C 0.28125,-0.09375 0.5,0.109375 0.875,0.109375 C 1.5,0.109375 1.859375,-0.515625 2.234375,-1.125 L 2.59375,-1.734375 L 2.609375,-1.734375 L 2.78125,-1.015625 C 2.953125,-0.28125 3.125,0.109375 3.59375,0.109375 C 4.265625,0.109375 4.609375,-0.578125 4.890625,-1.140625 L 4.65625,-1.265625 z"
               id="path5537" />
          </symbol>
          <symbol
             overflow="visible"
             id="textext-83d43742-2"
             style="overflow:visible">
            <path
               style="stroke:none"
               d=""
               id="path5540" />
          </symbol>
          <symbol
             overflow="visible"
             id="textext-83d43742-3"
             style="overflow:visible">
            <path
               style="stroke:none"
               d="M 3.046875,0 L 3.046875,-0.203125 L 2.453125,-0.25 C 2.3125,-0.265625 2.234375,-0.328125 2.234375,-0.59375 L 2.234375,-4.703125 L 2.1875,-4.734375 L 0.765625,-4.5 L 0.765625,-4.328125 L 1.40625,-4.25 C 1.53125,-4.234375 1.578125,-4.171875 1.578125,-3.96875 L 1.578125,-0.59375 C 1.578125,-0.453125 1.546875,-0.375 1.515625,-0.328125 C 1.484375,-0.28125 1.421875,-0.265625 1.34375,-0.25 L 0.765625,-0.203125 L 0.765625,0 L 3.046875,0 z"
               id="path5543" />
          </symbol>
        </g>
      </defs>
      <g
         id="textext-83d43742-4">
        <g
           style="fill:#000000;fill-opacity:1"
           id="g5546">
          <use
             xlink:href="#textext-83d43742-1"
             x="223.631"
             y="134.765"
             id="use5548"
             width="744.09448"
             height="1052.3622" />
        </g>
        <g
           style="fill:#000000;fill-opacity:1"
           id="g5550">
          <use
             xlink:href="#textext-83d43742-3"
             x="228.662"
             y="136.259"
             id="use5552"
             width="744.09448"
             height="1052.3622" />
        </g>
      </g>
    </g>
    <g
       id="g5818"
       transform="matrix(4,0,0,4,-795.26808,-159.16664)"
       ns0:preamble="/home/diego/DiegoAndres/preamble_tex_text_inkscape.txt"
       ns0:text="$x_2$">
      <defs
         id="defs5820">
        <g
           id="g5822">
          <symbol
             id="textext-fdcc1eb7-0"
             overflow="visible"
             style="overflow:visible">
            <path
               id="path5825"
               d=""
               style="stroke:none" />
          </symbol>
          <symbol
             id="textext-fdcc1eb7-1"
             overflow="visible"
             style="overflow:visible">
            <path
               id="path5828"
               d="M 4.65625,-1.265625 C 4.4375,-0.859375 4.1875,-0.359375 3.921875,-0.359375 C 3.75,-0.359375 3.671875,-0.578125 3.46875,-1.390625 L 3.1875,-2.59375 C 3.515625,-3.1875 3.984375,-3.921875 4.25,-3.921875 C 4.328125,-3.921875 4.40625,-3.890625 4.5,-3.84375 C 4.59375,-3.8125 4.6875,-3.765625 4.796875,-3.765625 C 5,-3.765625 5.1875,-3.96875 5.1875,-4.203125 C 5.1875,-4.5 4.984375,-4.609375 4.71875,-4.609375 C 4.234375,-4.609375 3.828125,-4.171875 3.5,-3.65625 L 3.09375,-3.03125 L 3.078125,-3.03125 L 2.71875,-4.5625 L 2.65625,-4.609375 L 1.140625,-4.140625 L 1.171875,-3.921875 L 1.859375,-3.96875 C 2.03125,-3.984375 2.09375,-3.9375 2.1875,-3.515625 L 2.515625,-2.1875 L 2.265625,-1.75 C 1.875,-1.078125 1.53125,-0.59375 1.3125,-0.59375 C 1.21875,-0.59375 1.125,-0.640625 1.046875,-0.671875 C 0.953125,-0.71875 0.828125,-0.8125 0.671875,-0.8125 C 0.4375,-0.8125 0.28125,-0.578125 0.28125,-0.359375 C 0.28125,-0.09375 0.5,0.109375 0.875,0.109375 C 1.5,0.109375 1.859375,-0.515625 2.234375,-1.125 L 2.59375,-1.734375 L 2.609375,-1.734375 L 2.78125,-1.015625 C 2.953125,-0.28125 3.125,0.109375 3.59375,0.109375 C 4.265625,0.109375 4.609375,-0.578125 4.890625,-1.140625 L 4.65625,-1.265625 z"
               style="stroke:none" />
          </symbol>
          <symbol
             id="textext-fdcc1eb7-2"
             overflow="visible"
             style="overflow:visible">
            <path
               id="path5831"
               d=""
               style="stroke:none" />
          </symbol>
          <symbol
             id="textext-fdcc1eb7-3"
             overflow="visible"
             style="overflow:visible">
            <path
               id="path5834"
               d="M 3.375,-0.921875 L 3.1875,-0.953125 C 3.03125,-0.578125 2.90625,-0.53125 2.625,-0.53125 L 0.84375,-0.53125 C 0.953125,-0.890625 1.359375,-1.390625 2,-1.859375 C 2.671875,-2.34375 3.1875,-2.65625 3.1875,-3.4375 C 3.1875,-4.40625 2.546875,-4.734375 1.8125,-4.734375 C 0.859375,-4.734375 0.375,-4.15625 0.375,-3.796875 C 0.375,-3.5625 0.640625,-3.453125 0.75,-3.453125 C 0.875,-3.453125 0.921875,-3.515625 0.953125,-3.640625 C 1.0625,-4.109375 1.34375,-4.5 1.765625,-4.5 C 2.3125,-4.5 2.453125,-4.046875 2.453125,-3.53125 C 2.453125,-2.78125 2.078125,-2.375 1.484375,-1.828125 C 0.625,-1.09375 0.328125,-0.609375 0.1875,-0.0625 L 0.265625,0 L 3.140625,0 L 3.375,-0.921875 z"
               style="stroke:none" />
          </symbol>
        </g>
      </defs>
      <g
         id="textext-fdcc1eb7-4">
        <g
           id="g5837"
           style="fill:#000000;fill-opacity:1">
          <use
             id="use5839"
             y="134.765"
             x="223.631"
             xlink:href="#textext-fdcc1eb7-1"
             width="744.09448"
             height="1052.3622" />
        </g>
        <g
           id="g5841"
           style="fill:#000000;fill-opacity:1">
          <use
             id="use5843"
             y="136.259"
             x="228.662"
             xlink:href="#textext-fdcc1eb7-3"
             width="744.09448"
             height="1052.3622" />
        </g>
      </g>
    </g>
  </g>
</svg>
