<?xml version="1.0" encoding="UTF-8" standalone="no"?>
<!-- Created with Inkscape (http://www.inkscape.org/) -->

<svg
   xmlns:ns0="http://www.iki.fi/pav/software/textext/"
   xmlns:dc="http://purl.org/dc/elements/1.1/"
   xmlns:cc="http://creativecommons.org/ns#"
   xmlns:rdf="http://www.w3.org/1999/02/22-rdf-syntax-ns#"
   xmlns:svg="http://www.w3.org/2000/svg"
   xmlns="http://www.w3.org/2000/svg"
   xmlns:xlink="http://www.w3.org/1999/xlink"
   xmlns:sodipodi="http://sodipodi.sourceforge.net/DTD/sodipodi-0.dtd"
   xmlns:inkscape="http://www.inkscape.org/namespaces/inkscape"
   inkscape:output_extension="org.inkscape.output.svg.inkscape"
   sodipodi:version="0.32"
   sodipodi:docname="viga_EB_carga_trapezoidal.svg"
   inkscape:version="0.91 r13725"
   version="1.1"
   id="svg7778"
   viewBox="0 0 1152.4025 342.21268"
   height="96.580017mm"
   width="325.23358mm">
  <sodipodi:namedview
     fit-margin-bottom="0"
     fit-margin-right="0"
     fit-margin-left="0"
     fit-margin-top="0"
     inkscape:window-maximized="1"
     inkscape:window-y="259"
     inkscape:window-x="1250"
     inkscape:window-height="965"
     inkscape:window-width="1680"
     showgrid="false"
     inkscape:current-layer="svg7778"
     inkscape:document-units="px"
     inkscape:cy="174.38126"
     inkscape:cx="672.68513"
     inkscape:zoom="0.60811183"
     inkscape:pageshadow="2"
     inkscape:pageopacity="0.0"
     borderopacity="1.0"
     bordercolor="#666666"
     pagecolor="#ffffff"
     id="base"
     borderlayer="true">
    <inkscape:grid
       originy="-1056.8362"
       originx="-230.05829"
       id="grid9238"
       type="xygrid" />
  </sodipodi:namedview>
  <defs
     id="defs7780">
    <inkscape:perspective
       id="perspective112"
       inkscape:persp3d-origin="556.58351 : 92.619129 : 1"
       inkscape:vp_z="1113.167 : 138.9287 : 1"
       inkscape:vp_y="0 : 999.99999 : 0"
       inkscape:vp_x="0 : 138.9287 : 1"
       sodipodi:type="inkscape:persp3d" />
    <marker
       inkscape:stockid="Arrow2Mend"
       orient="auto"
       refY="0"
       refX="0"
       id="marker20731"
       style="overflow:visible"
       inkscape:isstock="true">
      <path
         inkscape:connector-curvature="0"
         id="path20733"
         style="fill:#0000ff;fill-opacity:1;fill-rule:evenodd;stroke:#0000ff;stroke-width:0.625;stroke-linejoin:round;stroke-opacity:1"
         d="M 8.7185878,4.0337352 -2.2072895,0.01601326 8.7185884,-4.0017078 c -1.7454984,2.3720609 -1.7354408,5.6174519 -6e-7,8.035443 z"
         transform="scale(-0.6,-0.6)" />
    </marker>
    <marker
       inkscape:collect="always"
       inkscape:isstock="true"
       style="overflow:visible"
       id="marker19444"
       refX="0"
       refY="0"
       orient="auto"
       inkscape:stockid="Arrow2Mend">
      <path
         transform="scale(-0.6,-0.6)"
         d="M 8.7185878,4.0337352 -2.2072895,0.01601326 8.7185884,-4.0017078 c -1.7454984,2.3720609 -1.7354408,5.6174519 -6e-7,8.035443 z"
         style="fill:#0000ff;fill-opacity:1;fill-rule:evenodd;stroke:#0000ff;stroke-width:0.625;stroke-linejoin:round;stroke-opacity:1"
         id="path19446"
         inkscape:connector-curvature="0" />
    </marker>
    <marker
       inkscape:collect="always"
       inkscape:stockid="Arrow2Mend"
       orient="auto"
       refY="0"
       refX="0"
       id="marker18106"
       style="overflow:visible"
       inkscape:isstock="true">
      <path
         inkscape:connector-curvature="0"
         id="path18108"
         style="fill:#0000ff;fill-opacity:1;fill-rule:evenodd;stroke:#0000ff;stroke-width:0.625;stroke-linejoin:round;stroke-opacity:1"
         d="M 8.7185878,4.0337352 -2.2072895,0.01601326 8.7185884,-4.0017078 c -1.7454984,2.3720609 -1.7354408,5.6174519 -6e-7,8.035443 z"
         transform="scale(-0.6,-0.6)" />
    </marker>
    <marker
       inkscape:isstock="true"
       style="overflow:visible"
       id="marker13316"
       refX="0"
       refY="0"
       orient="auto"
       inkscape:stockid="Arrow2Mend">
      <path
         transform="scale(-0.6,-0.6)"
         d="M 8.7185878,4.0337352 -2.2072895,0.01601326 8.7185884,-4.0017078 c -1.7454984,2.3720609 -1.7354408,5.6174519 -6e-7,8.035443 z"
         style="fill:#0000ff;fill-opacity:1;fill-rule:evenodd;stroke:#0000ff;stroke-width:0.625;stroke-linejoin:round;stroke-opacity:1"
         id="path13318"
         inkscape:connector-curvature="0" />
    </marker>
    <marker
       inkscape:collect="always"
       inkscape:stockid="Arrow2Mend"
       orient="auto"
       refY="0"
       refX="0"
       id="marker11054"
       style="overflow:visible"
       inkscape:isstock="true">
      <path
         inkscape:connector-curvature="0"
         id="path11056"
         style="fill:#0000ff;fill-opacity:1;fill-rule:evenodd;stroke:#0000ff;stroke-width:0.625;stroke-linejoin:round;stroke-opacity:1"
         d="M 8.7185878,4.0337352 -2.2072895,0.01601326 8.7185884,-4.0017078 c -1.7454984,2.3720609 -1.7354408,5.6174519 -6e-7,8.035443 z"
         transform="scale(-0.6,-0.6)" />
    </marker>
    <marker
       inkscape:collect="always"
       inkscape:isstock="true"
       style="overflow:visible"
       id="marker8283"
       refX="0"
       refY="0"
       orient="auto"
       inkscape:stockid="Arrow2Mend">
      <path
         transform="scale(-0.6,-0.6)"
         d="M 8.7185878,4.0337352 -2.2072895,0.01601326 8.7185884,-4.0017078 c -1.7454984,2.3720609 -1.7354408,5.6174519 -6e-7,8.035443 z"
         style="fill:#0000ff;fill-opacity:1;fill-rule:evenodd;stroke:#0000ff;stroke-width:0.625;stroke-linejoin:round;stroke-opacity:1"
         id="path8285"
         inkscape:connector-curvature="0" />
    </marker>
    <marker
       inkscape:collect="always"
       inkscape:isstock="true"
       style="overflow:visible"
       id="StopL"
       refX="0"
       refY="0"
       orient="auto"
       inkscape:stockid="StopL">
      <path
         transform="scale(0.8,0.8)"
         style="fill:none;fill-opacity:0.75;fill-rule:evenodd;stroke:#000000;stroke-width:1pt;stroke-opacity:1"
         d="M 0,5.65 0,-5.65"
         id="path7704"
         inkscape:connector-curvature="0" />
    </marker>
  </defs>
  <metadata
     id="metadata7783">
    <rdf:RDF>
      <cc:Work
         rdf:about="">
        <dc:format>image/svg+xml</dc:format>
        <dc:type
           rdf:resource="http://purl.org/dc/dcmitype/StillImage" />
        <dc:title></dc:title>
      </cc:Work>
    </rdf:RDF>
  </metadata>
  <g
     transform="translate(-230.05821,346.68669)"
     id="layer1"
     inkscape:groupmode="layer"
     inkscape:label="Layer 1">
    <g
       transform="translate(-1.7857144,-324.06541)"
       id="g8960">
      <path
         style="fill:none;fill-rule:evenodd;stroke:#000000;stroke-width:0.9109863px;stroke-linecap:butt;stroke-linejoin:miter;stroke-opacity:1"
         d="m 252.38502,134.02539 c 0,124.48441 0,124.48441 0,124.48441"
         id="path7475"
         inkscape:connector-curvature="0" />
      <path
         style="fill:none;fill-rule:evenodd;stroke:#000000;stroke-width:1px;stroke-linecap:butt;stroke-linejoin:miter;stroke-opacity:1"
         d="m 232.19748,154.02539 c 20,-20 20,-20 20,-20"
         id="path7477"
         inkscape:connector-curvature="0" />
      <path
         style="fill:none;fill-rule:evenodd;stroke:#000000;stroke-width:1px;stroke-linecap:butt;stroke-linejoin:miter;stroke-opacity:1"
         d="m 232.19748,164.41077 c 20,-20 20,-20 20,-20"
         id="path7479"
         inkscape:connector-curvature="0" />
      <path
         style="fill:none;fill-rule:evenodd;stroke:#000000;stroke-width:1px;stroke-linecap:butt;stroke-linejoin:miter;stroke-opacity:1"
         d="m 232.19748,174.7962 c 20,-20 20,-20 20,-20"
         id="path7481"
         inkscape:connector-curvature="0" />
      <path
         inkscape:connector-curvature="0"
         id="path7483"
         d="m 232.19748,185.18158 c 20,-20 20,-20 20,-20"
         style="fill:none;fill-rule:evenodd;stroke:#000000;stroke-width:1px;stroke-linecap:butt;stroke-linejoin:miter;stroke-opacity:1" />
      <path
         inkscape:connector-curvature="0"
         id="path7485"
         d="m 232.19748,195.56695 c 20,-20 20,-20 20,-20"
         style="fill:none;fill-rule:evenodd;stroke:#000000;stroke-width:1px;stroke-linecap:butt;stroke-linejoin:miter;stroke-opacity:1" />
      <path
         inkscape:connector-curvature="0"
         id="path7487"
         d="m 232.19748,205.95239 c 20,-20 20,-20 20,-20"
         style="fill:none;fill-rule:evenodd;stroke:#000000;stroke-width:1px;stroke-linecap:butt;stroke-linejoin:miter;stroke-opacity:1" />
      <path
         style="fill:none;fill-rule:evenodd;stroke:#000000;stroke-width:1px;stroke-linecap:butt;stroke-linejoin:miter;stroke-opacity:1"
         d="m 232.19748,216.33777 c 20,-20 20,-20 20,-20"
         id="path7489"
         inkscape:connector-curvature="0" />
      <path
         style="fill:none;fill-rule:evenodd;stroke:#000000;stroke-width:1px;stroke-linecap:butt;stroke-linejoin:miter;stroke-opacity:1"
         d="m 232.19748,226.7232 c 20,-20 20,-20 20,-20"
         id="path7491"
         inkscape:connector-curvature="0" />
      <path
         style="fill:none;fill-rule:evenodd;stroke:#000000;stroke-width:1px;stroke-linecap:butt;stroke-linejoin:miter;stroke-opacity:1"
         d="m 232.19748,237.10858 c 20,-20 20,-20 20,-20"
         id="path7493"
         inkscape:connector-curvature="0" />
      <path
         inkscape:connector-curvature="0"
         id="path7495"
         d="m 232.19748,247.49396 c 20,-20 20,-20 20,-20"
         style="fill:none;fill-rule:evenodd;stroke:#000000;stroke-width:1px;stroke-linecap:butt;stroke-linejoin:miter;stroke-opacity:1" />
      <path
         inkscape:connector-curvature="0"
         id="path7497"
         d="m 232.19748,257.87939 c 20,-20 20,-20 20,-20"
         style="fill:none;fill-rule:evenodd;stroke:#000000;stroke-width:1px;stroke-linecap:butt;stroke-linejoin:miter;stroke-opacity:1" />
      <path
         style="color:#000000;clip-rule:nonzero;display:inline;overflow:visible;visibility:visible;opacity:1;isolation:auto;mix-blend-mode:normal;color-interpolation:sRGB;color-interpolation-filters:linearRGB;solid-color:#000000;solid-opacity:1;fill:none;fill-opacity:1;fill-rule:evenodd;stroke:#000000;stroke-width:1px;stroke-linecap:butt;stroke-linejoin:miter;stroke-miterlimit:4;stroke-dasharray:none;stroke-dashoffset:0;stroke-opacity:1;color-rendering:auto;image-rendering:auto;shape-rendering:auto;text-rendering:auto;enable-background:accumulate"
         d="m 241.87831,259.56286 c 10.48733,-10.48733 10.48733,-10.48733 10.48733,-10.48733"
         id="path9256"
         inkscape:connector-curvature="0" />
    </g>
    <path
       inkscape:connector-curvature="0"
       id="path8281"
       d="m 850.72151,-59.63198 c 0,-50 0,-50 0,-50"
       style="fill:#0000ff;fill-rule:evenodd;stroke:#0000ff;stroke-width:2.5;stroke-linecap:butt;stroke-linejoin:miter;stroke-miterlimit:4;stroke-dasharray:none;stroke-opacity:1;marker-end:url(#marker8283)" />
    <path
       inkscape:connector-curvature="0"
       id="path8677"
       d="m 250.94845,-50.11747 c 419.09591,0 419.09591,0 419.09591,0"
       style="fill:none;fill-rule:evenodd;stroke:#000000;stroke-width:1.38021064px;stroke-linecap:butt;stroke-linejoin:miter;stroke-opacity:1;marker-start:url(#StopL);marker-end:url(#StopL)" />
    <g
       transform="translate(-3.9285717,-310.72387)"
       id="g8946">
      <path
         inkscape:connector-curvature="0"
         id="path8920"
         d="m 674.58137,244.81471 c 0,-124.48441 0,-124.48441 0,-124.48441"
         style="fill:none;fill-rule:evenodd;stroke:#000000;stroke-width:0.9109863px;stroke-linecap:butt;stroke-linejoin:miter;stroke-opacity:1" />
      <path
         inkscape:connector-curvature="0"
         id="path8922"
         d="m 694.76891,224.81471 c -20,20 -20,20 -20,20"
         style="fill:none;fill-rule:evenodd;stroke:#000000;stroke-width:1px;stroke-linecap:butt;stroke-linejoin:miter;stroke-opacity:1" />
      <path
         inkscape:connector-curvature="0"
         id="path8924"
         d="m 694.76891,214.42933 c -20,20 -20,20 -20,20"
         style="fill:none;fill-rule:evenodd;stroke:#000000;stroke-width:1px;stroke-linecap:butt;stroke-linejoin:miter;stroke-opacity:1" />
      <path
         inkscape:connector-curvature="0"
         id="path8926"
         d="m 694.76891,204.0439 c -20,20 -20,20 -20,20"
         style="fill:none;fill-rule:evenodd;stroke:#000000;stroke-width:1px;stroke-linecap:butt;stroke-linejoin:miter;stroke-opacity:1" />
      <path
         style="fill:none;fill-rule:evenodd;stroke:#000000;stroke-width:1px;stroke-linecap:butt;stroke-linejoin:miter;stroke-opacity:1"
         d="m 694.76891,193.65852 c -20,20 -20,20 -20,20"
         id="path8928"
         inkscape:connector-curvature="0" />
      <path
         style="fill:none;fill-rule:evenodd;stroke:#000000;stroke-width:1px;stroke-linecap:butt;stroke-linejoin:miter;stroke-opacity:1"
         d="m 694.76891,183.27315 c -20,20 -20,20 -20,20"
         id="path8930"
         inkscape:connector-curvature="0" />
      <path
         style="fill:none;fill-rule:evenodd;stroke:#000000;stroke-width:1px;stroke-linecap:butt;stroke-linejoin:miter;stroke-opacity:1"
         d="m 694.76891,172.88771 c -20,20 -20,20 -20,20"
         id="path8932"
         inkscape:connector-curvature="0" />
      <path
         inkscape:connector-curvature="0"
         id="path8934"
         d="m 694.76891,162.50233 c -20,20 -20,20 -20,20"
         style="fill:none;fill-rule:evenodd;stroke:#000000;stroke-width:1px;stroke-linecap:butt;stroke-linejoin:miter;stroke-opacity:1" />
      <path
         inkscape:connector-curvature="0"
         id="path8936"
         d="m 694.76891,152.1169 c -20,20 -20,20 -20,20"
         style="fill:none;fill-rule:evenodd;stroke:#000000;stroke-width:1px;stroke-linecap:butt;stroke-linejoin:miter;stroke-opacity:1" />
      <path
         inkscape:connector-curvature="0"
         id="path8938"
         d="m 694.76891,141.73152 c -20,20 -20,20 -20,20"
         style="fill:none;fill-rule:evenodd;stroke:#000000;stroke-width:1px;stroke-linecap:butt;stroke-linejoin:miter;stroke-opacity:1" />
      <path
         style="fill:none;fill-rule:evenodd;stroke:#000000;stroke-width:1px;stroke-linecap:butt;stroke-linejoin:miter;stroke-opacity:1"
         d="m 694.76891,131.34614 c -20,20 -20,20 -20,20"
         id="path8940"
         inkscape:connector-curvature="0" />
      <path
         style="fill:none;fill-rule:evenodd;stroke:#000000;stroke-width:1px;stroke-linecap:butt;stroke-linejoin:miter;stroke-opacity:1"
         d="m 694.76891,120.96071 c -20,20 -20,20 -20,20"
         id="path8942"
         inkscape:connector-curvature="0" />
      <path
         inkscape:connector-curvature="0"
         id="path9240"
         d="M 684.76413,120.96549 C 674.59512,131.1345 674.59512,131.1345 674.59512,131.1345"
         style="color:#000000;clip-rule:nonzero;display:inline;overflow:visible;visibility:visible;opacity:1;isolation:auto;mix-blend-mode:normal;color-interpolation:sRGB;color-interpolation-filters:linearRGB;solid-color:#000000;solid-opacity:1;fill:none;fill-opacity:1;fill-rule:evenodd;stroke:#000000;stroke-width:1px;stroke-linecap:butt;stroke-linejoin:miter;stroke-miterlimit:4;stroke-dasharray:none;stroke-dashoffset:0;stroke-opacity:1;color-rendering:auto;image-rendering:auto;shape-rendering:auto;text-rendering:auto;enable-background:accumulate" />
    </g>
    <path
       inkscape:connector-curvature="0"
       id="path11044"
       d="M 250.13682,-212.18527 C 670.68541,-318.26304 670.68541,-318.26304 670.68541,-318.26304"
       style="fill:#0000ff;fill-rule:evenodd;stroke:#0000ff;stroke-width:1.96530211;stroke-linecap:butt;stroke-linejoin:miter;stroke-miterlimit:4;stroke-dasharray:none;stroke-opacity:1" />
    <path
       inkscape:connector-curvature="0"
       id="path11046"
       d="m 615.2172,-138.82762 c 0,-160.98844 0,-160.98844 0,-160.98844"
       style="color:#000000;clip-rule:nonzero;display:inline;overflow:visible;visibility:visible;opacity:1;isolation:auto;mix-blend-mode:normal;color-interpolation:sRGB;color-interpolation-filters:linearRGB;solid-color:#000000;solid-opacity:1;fill:#0000ff;fill-opacity:1;fill-rule:evenodd;stroke:#0000ff;stroke-width:2.45277667;stroke-linecap:butt;stroke-linejoin:miter;stroke-miterlimit:4;stroke-dasharray:none;stroke-dashoffset:0;stroke-opacity:1;marker-end:url(#marker11054);color-rendering:auto;image-rendering:auto;shape-rendering:auto;text-rendering:auto;enable-background:accumulate" />
    <path
       style="color:#000000;clip-rule:nonzero;display:inline;overflow:visible;visibility:visible;opacity:1;isolation:auto;mix-blend-mode:normal;color-interpolation:sRGB;color-interpolation-filters:linearRGB;solid-color:#000000;solid-opacity:1;fill:#0000ff;fill-opacity:1;fill-rule:evenodd;stroke:#0000ff;stroke-width:2.45277667;stroke-linecap:butt;stroke-linejoin:miter;stroke-miterlimit:4;stroke-dasharray:none;stroke-dashoffset:0;stroke-opacity:1;marker-end:url(#marker11054);color-rendering:auto;image-rendering:auto;shape-rendering:auto;text-rendering:auto;enable-background:accumulate"
       d="m 311.94663,-138.53782 c 0,-85.58796 0,-85.58796 0,-85.58796"
       id="path12042"
       inkscape:connector-curvature="0" />
    <path
       inkscape:connector-curvature="0"
       id="path12408"
       d="m 372.60072,-138.6044 c 0,-100.39078 0,-100.39078 0,-100.39078"
       style="color:#000000;clip-rule:nonzero;display:inline;overflow:visible;visibility:visible;opacity:1;isolation:auto;mix-blend-mode:normal;color-interpolation:sRGB;color-interpolation-filters:linearRGB;solid-color:#000000;solid-opacity:1;fill:#0000ff;fill-opacity:1;fill-rule:evenodd;stroke:#0000ff;stroke-width:2.45277667;stroke-linecap:butt;stroke-linejoin:miter;stroke-miterlimit:4;stroke-dasharray:none;stroke-dashoffset:0;stroke-opacity:1;marker-end:url(#marker11054);color-rendering:auto;image-rendering:auto;shape-rendering:auto;text-rendering:auto;enable-background:accumulate" />
    <path
       style="color:#000000;clip-rule:nonzero;display:inline;overflow:visible;visibility:visible;opacity:1;isolation:auto;mix-blend-mode:normal;color-interpolation:sRGB;color-interpolation-filters:linearRGB;solid-color:#000000;solid-opacity:1;fill:#0000ff;fill-opacity:1;fill-rule:evenodd;stroke:#0000ff;stroke-width:2.45277667;stroke-linecap:butt;stroke-linejoin:miter;stroke-miterlimit:4;stroke-dasharray:none;stroke-dashoffset:0;stroke-opacity:1;marker-end:url(#marker11054);color-rendering:auto;image-rendering:auto;shape-rendering:auto;text-rendering:auto;enable-background:accumulate"
       d="m 433.25482,-138.66694 c 0,-115.60751 0,-115.60751 0,-115.60751"
       id="path12708"
       inkscape:connector-curvature="0" />
    <path
       inkscape:connector-curvature="0"
       id="path13026"
       d="m 493.90895,-138.72391 c 0,-130.63401 0,-130.63401 0,-130.63401"
       style="color:#000000;clip-rule:nonzero;display:inline;overflow:visible;visibility:visible;opacity:1;isolation:auto;mix-blend-mode:normal;color-interpolation:sRGB;color-interpolation-filters:linearRGB;solid-color:#000000;solid-opacity:1;fill:#0000ff;fill-opacity:1;fill-rule:evenodd;stroke:#0000ff;stroke-width:2.45277667;stroke-linecap:butt;stroke-linejoin:miter;stroke-miterlimit:4;stroke-dasharray:none;stroke-dashoffset:0;stroke-opacity:1;marker-end:url(#marker11054);color-rendering:auto;image-rendering:auto;shape-rendering:auto;text-rendering:auto;enable-background:accumulate" />
    <path
       style="color:#000000;clip-rule:nonzero;display:inline;overflow:visible;visibility:visible;opacity:1;isolation:auto;mix-blend-mode:normal;color-interpolation:sRGB;color-interpolation-filters:linearRGB;solid-color:#000000;solid-opacity:1;fill:#0000ff;fill-opacity:1;fill-rule:evenodd;stroke:#0000ff;stroke-width:2.45277667;stroke-linecap:butt;stroke-linejoin:miter;stroke-miterlimit:4;stroke-dasharray:none;stroke-dashoffset:0;stroke-opacity:1;marker-end:url(#marker11054);color-rendering:auto;image-rendering:auto;shape-rendering:auto;text-rendering:auto;enable-background:accumulate"
       d="m 554.56306,-138.77767 c 0,-145.86919 0,-145.86919 0,-145.86919"
       id="path13314"
       inkscape:connector-curvature="0" />
    <rect
       style="color:#000000;clip-rule:nonzero;display:inline;overflow:visible;visibility:visible;opacity:1;isolation:auto;mix-blend-mode:normal;color-interpolation:sRGB;color-interpolation-filters:linearRGB;solid-color:#000000;solid-opacity:1;fill:#f4d7d7;fill-opacity:1;fill-rule:evenodd;stroke:#000000;stroke-width:2.00080633;stroke-linecap:butt;stroke-linejoin:miter;stroke-miterlimit:4;stroke-dasharray:none;stroke-dashoffset:0;stroke-opacity:1;color-rendering:auto;image-rendering:auto;shape-rendering:auto;text-rendering:auto;enable-background:accumulate"
       id="rect17634"
       width="420.1936"
       height="19.122185"
       x="849.56494"
       y="-137.53568" />
    <path
       style="fill:#0000ff;fill-rule:evenodd;stroke:#0000ff;stroke-width:2.5;stroke-linecap:butt;stroke-linejoin:miter;stroke-miterlimit:4;stroke-dasharray:none;stroke-opacity:1;marker-end:url(#marker18106)"
       d="m 1270.7215,-59.63198 c 0,-50 0,-50 0,-50"
       id="path18104"
       inkscape:connector-curvature="0" />
    <path
       sodipodi:nodetypes="csc"
       inkscape:connector-curvature="0"
       id="path19436"
       d="m 829.39387,-163.07509 c -17.14496,0.74543 -30.50111,15.14251 -29.96014,32.29515 0.54097,17.15263 15.65288,27.21538 31.93565,30.34304"
       style="color:#000000;clip-rule:nonzero;display:inline;overflow:visible;visibility:visible;opacity:1;isolation:auto;mix-blend-mode:normal;color-interpolation:sRGB;color-interpolation-filters:linearRGB;solid-color:#000000;solid-opacity:1;fill:none;fill-opacity:1;fill-rule:evenodd;stroke:#0000ff;stroke-width:2.50695181;stroke-linecap:butt;stroke-linejoin:miter;stroke-miterlimit:4;stroke-dasharray:none;stroke-dashoffset:0;stroke-opacity:1;marker-end:url(#marker19444);color-rendering:auto;image-rendering:auto;shape-rendering:auto;text-rendering:auto;enable-background:accumulate" />
    <path
       style="color:#000000;clip-rule:nonzero;display:inline;overflow:visible;visibility:visible;opacity:1;isolation:auto;mix-blend-mode:normal;color-interpolation:sRGB;color-interpolation-filters:linearRGB;solid-color:#000000;solid-opacity:1;fill:none;fill-opacity:1;fill-rule:evenodd;stroke:#0000ff;stroke-width:2.50695181;stroke-linecap:butt;stroke-linejoin:miter;stroke-miterlimit:4;stroke-dasharray:none;stroke-dashoffset:0;stroke-opacity:1;marker-end:url(#marker20731);color-rendering:auto;image-rendering:auto;shape-rendering:auto;text-rendering:auto;enable-background:accumulate"
       d="m 1289.8659,-161.07509 c 17.1449,0.74543 30.5011,15.14251 29.9601,32.29515 -0.541,17.15263 -15.6529,27.21538 -31.9356,30.343042"
       id="path20729"
       inkscape:connector-curvature="0"
       sodipodi:nodetypes="csc" />
    <path
       style="color:#000000;clip-rule:nonzero;display:inline;overflow:visible;visibility:visible;opacity:1;isolation:auto;mix-blend-mode:normal;color-interpolation:sRGB;color-interpolation-filters:linearRGB;solid-color:#000000;solid-opacity:1;fill:#0000ff;fill-opacity:1;fill-rule:evenodd;stroke:#0000ff;stroke-width:2.45277667;stroke-linecap:butt;stroke-linejoin:miter;stroke-miterlimit:4;stroke-dasharray:none;stroke-dashoffset:0;stroke-opacity:1;marker-end:url(#marker11054);color-rendering:auto;image-rendering:auto;shape-rendering:auto;text-rendering:auto;enable-background:accumulate"
       d="m 670.58422,-138.87091 c 0,-174.84476 0,-174.84476 0,-174.84476"
       id="path2493"
       inkscape:connector-curvature="0" />
    <path
       inkscape:connector-curvature="0"
       id="path2495"
       d="m 250.52841,-138.4618 c 0,-70.39725 0,-70.39725 0,-70.39725"
       style="color:#000000;clip-rule:nonzero;display:inline;overflow:visible;visibility:visible;opacity:1;isolation:auto;mix-blend-mode:normal;color-interpolation:sRGB;color-interpolation-filters:linearRGB;solid-color:#000000;solid-opacity:1;fill:#0000ff;fill-opacity:1;fill-rule:evenodd;stroke:#0000ff;stroke-width:2.45277667;stroke-linecap:butt;stroke-linejoin:miter;stroke-miterlimit:4;stroke-dasharray:none;stroke-dashoffset:0;stroke-opacity:1;marker-end:url(#marker11054);color-rendering:auto;image-rendering:auto;shape-rendering:auto;text-rendering:auto;enable-background:accumulate" />
    <rect
       y="-137.5381"
       x="251.56253"
       height="19.127029"
       width="418.0556"
       id="rect7513"
       style="color:#000000;clip-rule:nonzero;display:inline;overflow:visible;visibility:visible;opacity:1;isolation:auto;mix-blend-mode:normal;color-interpolation:sRGB;color-interpolation-filters:linearRGB;solid-color:#000000;solid-opacity:1;fill:#f4d7d7;fill-opacity:1;fill-rule:evenodd;stroke:#000000;stroke-width:1.99596238;stroke-linecap:butt;stroke-linejoin:miter;stroke-miterlimit:4;stroke-dasharray:none;stroke-dashoffset:0;stroke-opacity:1;color-rendering:auto;image-rendering:auto;shape-rendering:auto;text-rendering:auto;enable-background:accumulate" />
  </g>
  <g
     id="g7958"
     ns0:preamble="/home/daalvarez/Documents/latex_inkscape_config_file.tex"
     ns0:text="$w_1$"
     transform="matrix(4,0,0,4,-619.76752,-217.14977)">
    <defs
       id="defs7960">
      <g
         id="g7962">
        <symbol
           id="textext-5b52f066-0"
           overflow="visible"
           style="overflow:visible">
          <path
             id="path7965"
             d=""
             style="stroke:none"
             inkscape:connector-curvature="0" />
        </symbol>
        <symbol
           id="textext-5b52f066-1"
           overflow="visible"
           style="overflow:visible">
          <path
             id="path7968"
             d="M 4.609375,-3.375 C 4.65625,-3.59375 4.75,-3.96875 4.75,-4.03125 c 0,-0.171875 -0.140625,-0.265625 -0.28125,-0.265625 -0.125,0 -0.296875,0.078125 -0.375,0.28125 -0.03125,0.0625 -0.5,1.96875 -0.5625,2.234375 C 3.453125,-1.484375 3.4375,-1.3125 3.4375,-1.125 c 0,0.109375 0,0.125 0.015625,0.171875 -0.234375,0.53125 -0.53125,0.84375 -0.921875,0.84375 -0.796875,0 -0.796875,-0.734375 -0.796875,-0.90625 0,-0.3125 0.046875,-0.703125 0.515625,-1.9375 0.109375,-0.296875 0.171875,-0.4375 0.171875,-0.640625 0,-0.4375 -0.328125,-0.8125 -0.8125,-0.8125 -0.953125,0 -1.3125,1.453125 -1.3125,1.53125 0,0.109375 0.09375,0.109375 0.109375,0.109375 0.109375,0 0.109375,-0.03125 0.15625,-0.1875 C 0.84375,-3.875 1.21875,-4.1875 1.578125,-4.1875 c 0.09375,0 0.25,0.015625 0.25,0.328125 0,0.25 -0.109375,0.53125 -0.1875,0.703125 -0.4375,1.171875 -0.546875,1.625 -0.546875,2.015625 0,0.90625 0.65625,1.25 1.40625,1.25 0.171875,0 0.640625,0 1.03125,-0.703125 0.265625,0.640625 0.953125,0.703125 1.25,0.703125 0.75,0 1.1875,-0.625 1.453125,-1.21875 0.328125,-0.78125 0.65625,-2.125 0.65625,-2.59375 0,-0.546875 -0.265625,-0.703125 -0.4375,-0.703125 -0.25,0 -0.5,0.265625 -0.5,0.484375 0,0.125 0.0625,0.1875 0.140625,0.265625 0.109375,0.109375 0.359375,0.359375 0.359375,0.84375 0,0.34375 -0.28125,1.3125 -0.546875,1.828125 -0.25,0.53125 -0.609375,0.875 -1.09375,0.875 -0.46875,0 -0.734375,-0.296875 -0.734375,-0.875 0,-0.265625 0.0625,-0.578125 0.109375,-0.71875 z m 0,0"
             style="stroke:none"
             inkscape:connector-curvature="0" />
        </symbol>
        <symbol
           id="textext-5b52f066-2"
           overflow="visible"
           style="overflow:visible">
          <path
             id="path7971"
             d=""
             style="stroke:none"
             inkscape:connector-curvature="0" />
        </symbol>
        <symbol
           id="textext-5b52f066-3"
           overflow="visible"
           style="overflow:visible">
          <path
             id="path7974"
             d="m 2.328125,-4.4375 c 0,-0.1875 0,-0.1875 -0.203125,-0.1875 -0.453125,0.4375 -1.078125,0.4375 -1.359375,0.4375 l 0,0.25 c 0.15625,0 0.625,0 1,-0.1875 l 0,3.546875 c 0,0.234375 0,0.328125 -0.6875,0.328125 l -0.265625,0 0,0.25 c 0.125,0 0.984375,-0.03125 1.234375,-0.03125 0.21875,0 1.09375,0.03125 1.25,0.03125 l 0,-0.25 -0.265625,0 c -0.703125,0 -0.703125,-0.09375 -0.703125,-0.328125 z m 0,0"
             style="stroke:none"
             inkscape:connector-curvature="0" />
        </symbol>
      </g>
    </defs>
    <g
       id="textext-5b52f066-4">
      <g
         id="g7977"
         style="fill:#000000;fill-opacity:1">
        <use
           id="use7979"
           y="83.403"
           x="155.905"
           xlink:href="#textext-5b52f066-1"
           width="100%"
           height="100%" />
      </g>
      <g
         id="g7981"
         style="fill:#000000;fill-opacity:1">
        <use
           id="use7983"
           y="84.898003"
           x="163.03799"
           xlink:href="#textext-5b52f066-3"
           width="100%"
           height="100%" />
      </g>
    </g>
  </g>
  <g
     ns0:text="$w_2$"
     ns0:preamble="/home/daalvarez/Documents/latex_inkscape_config_file.tex"
     transform="matrix(4,0,0,4,-200.58142,-315.987)"
     id="g8255">
    <defs
       id="defs8257">
      <g
         id="g8259">
        <symbol
           overflow="visible"
           id="textext-dc7fd631-0"
           style="overflow:visible">
          <path
             style="stroke:none"
             d=""
             id="path8262"
             inkscape:connector-curvature="0" />
        </symbol>
        <symbol
           overflow="visible"
           id="textext-dc7fd631-1"
           style="overflow:visible">
          <path
             style="stroke:none"
             d="M 4.609375,-3.375 C 4.65625,-3.59375 4.75,-3.96875 4.75,-4.03125 c 0,-0.171875 -0.140625,-0.265625 -0.28125,-0.265625 -0.125,0 -0.296875,0.078125 -0.375,0.28125 -0.03125,0.0625 -0.5,1.96875 -0.5625,2.234375 C 3.453125,-1.484375 3.4375,-1.3125 3.4375,-1.125 c 0,0.109375 0,0.125 0.015625,0.171875 -0.234375,0.53125 -0.53125,0.84375 -0.921875,0.84375 -0.796875,0 -0.796875,-0.734375 -0.796875,-0.90625 0,-0.3125 0.046875,-0.703125 0.515625,-1.9375 0.109375,-0.296875 0.171875,-0.4375 0.171875,-0.640625 0,-0.4375 -0.328125,-0.8125 -0.8125,-0.8125 -0.953125,0 -1.3125,1.453125 -1.3125,1.53125 0,0.109375 0.09375,0.109375 0.109375,0.109375 0.109375,0 0.109375,-0.03125 0.15625,-0.1875 C 0.84375,-3.875 1.21875,-4.1875 1.578125,-4.1875 c 0.09375,0 0.25,0.015625 0.25,0.328125 0,0.25 -0.109375,0.53125 -0.1875,0.703125 -0.4375,1.171875 -0.546875,1.625 -0.546875,2.015625 0,0.90625 0.65625,1.25 1.40625,1.25 0.171875,0 0.640625,0 1.03125,-0.703125 0.265625,0.640625 0.953125,0.703125 1.25,0.703125 0.75,0 1.1875,-0.625 1.453125,-1.21875 0.328125,-0.78125 0.65625,-2.125 0.65625,-2.59375 0,-0.546875 -0.265625,-0.703125 -0.4375,-0.703125 -0.25,0 -0.5,0.265625 -0.5,0.484375 0,0.125 0.0625,0.1875 0.140625,0.265625 0.109375,0.109375 0.359375,0.359375 0.359375,0.84375 0,0.34375 -0.28125,1.3125 -0.546875,1.828125 -0.25,0.53125 -0.609375,0.875 -1.09375,0.875 -0.46875,0 -0.734375,-0.296875 -0.734375,-0.875 0,-0.265625 0.0625,-0.578125 0.109375,-0.71875 z m 0,0"
             id="path8265"
             inkscape:connector-curvature="0" />
        </symbol>
        <symbol
           overflow="visible"
           id="textext-dc7fd631-2"
           style="overflow:visible">
          <path
             style="stroke:none"
             d=""
             id="path8268"
             inkscape:connector-curvature="0" />
        </symbol>
        <symbol
           overflow="visible"
           id="textext-dc7fd631-3"
           style="overflow:visible">
          <path
             style="stroke:none"
             d="m 3.515625,-1.265625 -0.234375,0 c -0.015625,0.15625 -0.09375,0.5625 -0.1875,0.625 -0.046875,0.046875 -0.578125,0.046875 -0.6875,0.046875 l -1.28125,0 c 0.734375,-0.640625 0.984375,-0.84375 1.390625,-1.171875 0.515625,-0.40625 1,-0.84375 1,-1.5 0,-0.84375 -0.734375,-1.359375 -1.625,-1.359375 -0.859375,0 -1.453125,0.609375 -1.453125,1.25 0,0.34375 0.296875,0.390625 0.375,0.390625 0.15625,0 0.359375,-0.125 0.359375,-0.375 0,-0.125 -0.046875,-0.375 -0.40625,-0.375 C 0.984375,-4.21875 1.453125,-4.375 1.78125,-4.375 c 0.703125,0 1.0625,0.546875 1.0625,1.109375 0,0.609375 -0.4375,1.078125 -0.65625,1.328125 L 0.515625,-0.265625 C 0.4375,-0.203125 0.4375,-0.1875 0.4375,0 l 2.875,0 z m 0,0"
             id="path8271"
             inkscape:connector-curvature="0" />
        </symbol>
      </g>
    </defs>
    <g
       id="textext-dc7fd631-4">
      <g
         style="fill:#000000;fill-opacity:1"
         id="g8274">
        <use
           xlink:href="#textext-dc7fd631-1"
           x="155.905"
           y="83.403"
           id="use8276"
           width="100%"
           height="100%" />
      </g>
      <g
         style="fill:#000000;fill-opacity:1"
         id="g8278">
        <use
           xlink:href="#textext-dc7fd631-3"
           x="163.03799"
           y="84.898003"
           id="use8280"
           width="100%"
           height="100%" />
      </g>
    </g>
  </g>
  <g
     id="g8576"
     transform="matrix(4,0,0,4,-406.77555,4.361876)"
     ns0:preamble="/home/daalvarez/Documents/latex_inkscape_config_file.tex"
     ns0:text="$L$">
    <defs
       id="defs8578">
      <g
         id="g8580">
        <symbol
           id="textext-e295464c-0"
           overflow="visible"
           style="overflow:visible">
          <path
             id="path8583"
             d=""
             style="stroke:none"
             inkscape:connector-curvature="0" />
        </symbol>
        <symbol
           id="textext-e295464c-1"
           overflow="visible"
           style="overflow:visible">
          <path
             id="path8586"
             d="M 3.734375,-6.03125 C 3.8125,-6.390625 3.84375,-6.5 4.78125,-6.5 c 0.296875,0 0.375,0 0.375,-0.1875 0,-0.125 -0.109375,-0.125 -0.15625,-0.125 -0.328125,0 -1.140625,0.03125 -1.46875,0.03125 -0.296875,0 -1.03125,-0.03125 -1.328125,-0.03125 -0.0625,0 -0.1875,0 -0.1875,0.203125 0,0.109375 0.09375,0.109375 0.28125,0.109375 0.015625,0 0.203125,0 0.375,0.015625 0.171875,0.03125 0.265625,0.03125 0.265625,0.171875 0,0.03125 0,0.0625 -0.03125,0.1875 L 1.5625,-0.78125 c -0.09375,0.390625 -0.109375,0.46875 -0.90625,0.46875 -0.171875,0 -0.265625,0 -0.265625,0.203125 C 0.390625,0 0.484375,0 0.65625,0 l 4.625,0 C 5.515625,0 5.515625,0 5.578125,-0.171875 L 6.375,-2.328125 c 0.03125,-0.109375 0.03125,-0.125 0.03125,-0.140625 0,-0.03125 -0.03125,-0.109375 -0.109375,-0.109375 -0.09375,0 -0.109375,0.0625 -0.171875,0.21875 -0.34375,0.90625 -0.78125,2.046875 -2.5,2.046875 l -0.9375,0 c -0.140625,0 -0.171875,0 -0.21875,0 -0.109375,-0.015625 -0.140625,-0.03125 -0.140625,-0.109375 0,-0.03125 0,-0.046875 0.046875,-0.21875 z m 0,0"
             style="stroke:none"
             inkscape:connector-curvature="0" />
        </symbol>
      </g>
    </defs>
    <g
       id="textext-e295464c-2">
      <g
         id="g8589"
         style="fill:#000000;fill-opacity:1">
        <use
           id="use8591"
           y="83.403"
           x="155.905"
           xlink:href="#textext-e295464c-1"
           width="100%"
           height="100%" />
      </g>
    </g>
  </g>
  <g
     transform="matrix(3.75,0,0,3.75,-27.112246,-176.93968)"
     ns0:version="0.11.0"
     ns0:texconverter="pdflatex"
     ns0:pdfconverter="pdf2svg"
     ns0:text="$\\frac{(7 w_1 + 3w_2)L}{20}$"
     ns0:preamble="/home/daalvarez/.config/inkscape/extensions/textext/default_packages.tex"
     ns0:scale="3.0"
     ns0:alignment="middle center"
     inkscapeversion="0.91"
     ns0:jacobian_sqrt="3.75"
     id="g5227">
    <g
       id="surface1">
      <g
         style="fill:#000000;fill-opacity:1"
         id="g5230">
        <path
           inkscape:connector-curvature="0"
           style="stroke:none;stroke-width:0"
           d="M 2.46875,-5.21875 C 1.15625,-4.296875 0.796875,-2.8125 0.796875,-1.75 c 0,0.984375 0.296875,2.515625 1.671875,3.484375 0.0625,0 0.140625,0 0.140625,-0.078125 0,-0.046875 -0.015625,-0.0625 -0.0625,-0.109375 C 1.609375,0.703125 1.28125,-0.46875 1.28125,-1.734375 1.28125,-3.625 2,-4.546875 2.5625,-5.0625 2.59375,-5.09375 2.609375,-5.109375 2.609375,-5.140625 2.609375,-5.21875 2.53125,-5.21875 2.46875,-5.21875 Z m 0,0"
           transform="translate(149.908,130.032)"
           id="path5232" />
        <path
           inkscape:connector-curvature="0"
           style="stroke:none;stroke-width:0"
           d="m 3.734375,-4.203125 c 0.0625,-0.09375 0.0625,-0.109375 0.0625,-0.28125 l -1.828125,0 C 1.6875,-4.484375 1.609375,-4.5 1.359375,-4.515625 1,-4.546875 0.984375,-4.59375 0.96875,-4.703125 l -0.234375,0 -0.25,1.484375 0.234375,0 c 0.015625,-0.109375 0.09375,-0.5625 0.203125,-0.640625 0.046875,-0.03125 0.625,-0.03125 0.71875,-0.03125 l 1.515625,0 c -0.21875,0.28125 -0.578125,0.71875 -0.71875,0.921875 -0.90625,1.1875 -1,2.296875 -1,2.703125 0,0.078125 0,0.40625 0.328125,0.40625 0.34375,0 0.34375,-0.3125 0.34375,-0.40625 l 0,-0.28125 c 0,-1.34375 0.28125,-1.96875 0.578125,-2.34375 z m 0,0"
           transform="translate(153.0211,130.032)"
           id="path5234" />
      </g>
      <g
         style="fill:#000000;fill-opacity:1"
         id="g5236">
        <path
           inkscape:connector-curvature="0"
           style="stroke:none;stroke-width:0"
           d="m 3.671875,-2.21875 c 0.046875,-0.1875 0.125,-0.53125 0.125,-0.5625 C 3.796875,-2.921875 3.6875,-3 3.5625,-3 3.4375,-3 3.3125,-2.921875 3.265625,-2.796875 3.25,-2.75 3.171875,-2.453125 3.125,-2.28125 3.03125,-1.875 3.03125,-1.875 2.921875,-1.484375 2.84375,-1.09375 2.828125,-1.03125 2.8125,-0.84375 2.84375,-0.703125 2.78125,-0.5625 2.625,-0.359375 2.53125,-0.25 2.390625,-0.125 2.15625,-0.125 1.875,-0.125 1.53125,-0.21875 1.53125,-0.765625 1.53125,-1.125 1.71875,-1.640625 1.859375,-2 1.984375,-2.296875 2,-2.359375 2,-2.484375 2,-2.8125 1.71875,-3.078125 1.34375,-3.078125 0.640625,-3.078125 0.328125,-2.125 0.328125,-2 c 0,0.078125 0.09375,0.078125 0.125,0.078125 0.09375,0 0.09375,-0.03125 0.125,-0.109375 C 0.75,-2.609375 1.046875,-2.875 1.328125,-2.875 1.4375,-2.875 1.5,-2.796875 1.5,-2.640625 c 0,0.171875 -0.0625,0.3125 -0.09375,0.40625 C 1,-1.21875 1,-1.078125 1,-0.859375 1,-0.03125 1.75,0.0625 2.125,0.0625 c 0.140625,0 0.46875,0 0.78125,-0.453125 C 3.078125,-0.078125 3.453125,0.0625 3.875,0.0625 4.5,0.0625 4.8125,-0.46875 4.953125,-0.75 5.25,-1.34375 5.4375,-2.203125 5.4375,-2.53125 c 0,-0.515625 -0.296875,-0.546875 -0.34375,-0.546875 -0.1875,0 -0.390625,0.1875 -0.390625,0.375 0,0.109375 0.078125,0.171875 0.125,0.203125 C 5,-2.359375 5.09375,-2.15625 5.09375,-1.9375 c 0,0.09375 -0.296875,1.8125 -1.1875,1.8125 -0.5625,0 -0.5625,-0.5 -0.5625,-0.625 0,-0.1875 0.03125,-0.296875 0.125,-0.6875 z m 0,0"
           transform="translate(156.992,130.032)"
           id="path5238" />
      </g>
      <g
         style="fill:#000000;fill-opacity:1"
         id="g5240">
        <path
           inkscape:connector-curvature="0"
           style="stroke:none;stroke-width:0"
           d="M 1.984375,-3.171875 C 1.984375,-3.3125 1.96875,-3.3125 1.796875,-3.3125 1.453125,-3 0.890625,-3 0.796875,-3 l -0.078125,0 0,0.21875 0.078125,0 c 0.109375,0 0.4375,-0.015625 0.734375,-0.140625 l 0,2.5 c 0,0.140625 0,0.203125 -0.53125,0.203125 l -0.25,0 L 0.75,0 c 0.265625,-0.015625 0.71875,-0.015625 1,-0.015625 0.296875,0 0.734375,0 1.015625,0.015625 l 0,-0.21875 -0.25,0 c -0.53125,0 -0.53125,-0.0625 -0.53125,-0.203125 z m 0,0"
           transform="translate(162.756,131.029)"
           id="path5242" />
      </g>
      <g
         style="fill:#000000;fill-opacity:1"
         id="g5244">
        <path
           inkscape:connector-curvature="0"
           style="stroke:none;stroke-width:0"
           d="m 3.21875,-1.578125 2.140625,0 c 0.09375,0 0.25,0 0.25,-0.15625 0,-0.1875 -0.15625,-0.1875 -0.25,-0.1875 l -2.140625,0 0,-2.140625 c 0,-0.078125 0,-0.25 -0.15625,-0.25 -0.171875,0 -0.171875,0.15625 -0.171875,0.25 l 0,2.140625 -2.140625,0 c -0.09375,0 -0.265625,0 -0.265625,0.171875 0,0.171875 0.15625,0.171875 0.265625,0.171875 l 2.140625,0 0,2.140625 c 0,0.09375 0,0.265625 0.15625,0.265625 0.171875,0 0.171875,-0.171875 0.171875,-0.265625 z m 0,0"
           transform="translate(166.644,130.032)"
           id="path5246" />
        <path
           inkscape:connector-curvature="0"
           style="stroke:none;stroke-width:0"
           d="m 1.90625,-2.328125 c 0.546875,0 0.9375,0.375 0.9375,1.125 0,0.859375 -0.515625,1.125 -0.90625,1.125 -0.28125,0 -0.90625,-0.078125 -1.1875,-0.5 0.328125,0 0.40625,-0.234375 0.40625,-0.390625 0,-0.21875 -0.171875,-0.375 -0.390625,-0.375 -0.1875,0 -0.390625,0.125 -0.390625,0.40625 0,0.65625 0.71875,1.078125 1.5625,1.078125 0.96875,0 1.640625,-0.65625 1.640625,-1.34375 0,-0.546875 -0.4375,-1.09375 -1.203125,-1.25 0.71875,-0.265625 0.984375,-0.78125 0.984375,-1.21875 0,-0.546875 -0.625,-0.953125 -1.40625,-0.953125 -0.765625,0 -1.359375,0.375 -1.359375,0.9375 0,0.234375 0.15625,0.359375 0.359375,0.359375 0.21875,0 0.359375,-0.15625 0.359375,-0.34375 0,-0.203125 -0.140625,-0.359375 -0.359375,-0.375 0.25,-0.296875 0.71875,-0.375 0.984375,-0.375 0.3125,0 0.75,0.15625 0.75,0.75 0,0.296875 -0.09375,0.625 -0.28125,0.828125 -0.21875,0.265625 -0.421875,0.28125 -0.765625,0.3125 -0.171875,0.015625 -0.1875,0.015625 -0.21875,0.015625 -0.015625,0 -0.078125,0.015625 -0.078125,0.09375 0,0.09375 0.0625,0.09375 0.1875,0.09375 z m 0,0"
           transform="translate(172.76002,130.032)"
           id="path5248" />
      </g>
      <g
         style="fill:#000000;fill-opacity:1"
         id="g5250">
        <path
           inkscape:connector-curvature="0"
           style="stroke:none;stroke-width:0"
           d="m 3.671875,-2.21875 c 0.046875,-0.1875 0.125,-0.53125 0.125,-0.5625 C 3.796875,-2.921875 3.6875,-3 3.5625,-3 3.4375,-3 3.3125,-2.921875 3.265625,-2.796875 3.25,-2.75 3.171875,-2.453125 3.125,-2.28125 3.03125,-1.875 3.03125,-1.875 2.921875,-1.484375 2.84375,-1.09375 2.828125,-1.03125 2.8125,-0.84375 2.84375,-0.703125 2.78125,-0.5625 2.625,-0.359375 2.53125,-0.25 2.390625,-0.125 2.15625,-0.125 1.875,-0.125 1.53125,-0.21875 1.53125,-0.765625 1.53125,-1.125 1.71875,-1.640625 1.859375,-2 1.984375,-2.296875 2,-2.359375 2,-2.484375 2,-2.8125 1.71875,-3.078125 1.34375,-3.078125 0.640625,-3.078125 0.328125,-2.125 0.328125,-2 c 0,0.078125 0.09375,0.078125 0.125,0.078125 0.09375,0 0.09375,-0.03125 0.125,-0.109375 C 0.75,-2.609375 1.046875,-2.875 1.328125,-2.875 1.4375,-2.875 1.5,-2.796875 1.5,-2.640625 c 0,0.171875 -0.0625,0.3125 -0.09375,0.40625 C 1,-1.21875 1,-1.078125 1,-0.859375 1,-0.03125 1.75,0.0625 2.125,0.0625 c 0.140625,0 0.46875,0 0.78125,-0.453125 C 3.078125,-0.078125 3.453125,0.0625 3.875,0.0625 4.5,0.0625 4.8125,-0.46875 4.953125,-0.75 5.25,-1.34375 5.4375,-2.203125 5.4375,-2.53125 c 0,-0.515625 -0.296875,-0.546875 -0.34375,-0.546875 -0.1875,0 -0.390625,0.1875 -0.390625,0.375 0,0.109375 0.078125,0.171875 0.125,0.203125 C 5,-2.359375 5.09375,-2.15625 5.09375,-1.9375 c 0,0.09375 -0.296875,1.8125 -1.1875,1.8125 -0.5625,0 -0.5625,-0.5 -0.5625,-0.625 0,-0.1875 0.03125,-0.296875 0.125,-0.6875 z m 0,0"
           transform="translate(176.731,130.032)"
           id="path5252" />
      </g>
      <g
         style="fill:#000000;fill-opacity:1"
         id="g5254">
        <path
           inkscape:connector-curvature="0"
           style="stroke:none;stroke-width:0"
           d="m 2.9375,-0.96875 -0.21875,0 c 0,0.09375 -0.0625,0.40625 -0.140625,0.453125 -0.03125,0.03125 -0.453125,0.03125 -0.53125,0.03125 l -0.96875,0 C 1.40625,-0.71875 1.765625,-1 2.0625,-1.203125 c 0.453125,-0.3125 0.875,-0.59375 0.875,-1.125 0,-0.640625 -0.609375,-0.984375 -1.3125,-0.984375 -0.671875,0 -1.171875,0.375 -1.171875,0.875 0,0.25 0.21875,0.296875 0.296875,0.296875 0.125,0 0.28125,-0.09375 0.28125,-0.296875 0,-0.171875 -0.125,-0.28125 -0.28125,-0.28125 0.140625,-0.234375 0.4375,-0.375 0.765625,-0.375 0.484375,0 0.890625,0.28125 0.890625,0.765625 0,0.421875 -0.296875,0.75 -0.671875,1.0625 l -1.21875,1.03125 C 0.46875,-0.1875 0.453125,-0.1875 0.453125,-0.15625 l 0,0.15625 2.3125,0 z m 0,0"
           transform="translate(182.495,131.029)"
           id="path5256" />
      </g>
      <g
         style="fill:#000000;fill-opacity:1"
         id="g5258">
        <path
           inkscape:connector-curvature="0"
           style="stroke:none;stroke-width:0"
           d="m 0.625,-5.21875 c -0.046875,0 -0.125,0 -0.125,0.078125 0,0.03125 0.015625,0.046875 0.0625,0.109375 0.59375,0.546875 1.265625,1.484375 1.265625,3.28125 0,1.453125 -0.453125,2.5625 -1.203125,3.234375 -0.125,0.125 -0.125,0.125 -0.125,0.171875 0,0.03125 0.015625,0.078125 0.078125,0.078125 0.09375,0 0.75,-0.453125 1.21875,-1.328125 0.296875,-0.578125 0.5,-1.328125 0.5,-2.140625 C 2.296875,-2.71875 2,-4.25 0.625,-5.21875 Z m 0,0"
           transform="translate(186.383,130.032)"
           id="path5260" />
      </g>
      <g
         style="fill:#000000;fill-opacity:1"
         id="g5262">
        <path
           inkscape:connector-curvature="0"
           style="stroke:none;stroke-width:0"
           d="m 2.875,-4.1875 c 0.0625,-0.25 0.078125,-0.328125 0.71875,-0.328125 0.21875,0 0.28125,0 0.28125,-0.140625 0,-0.015625 0,-0.109375 -0.109375,-0.109375 -0.15625,0 -0.34375,0.015625 -0.515625,0.03125 -0.171875,0 -0.390625,0 -0.5625,0 -0.140625,0 -0.328125,0 -0.484375,0 -0.140625,0 -0.3125,-0.03125 -0.453125,-0.03125 -0.03125,0 -0.140625,0 -0.140625,0.15625 0,0.09375 0.078125,0.09375 0.21875,0.09375 0.015625,0 0.140625,0 0.265625,0.015625 0.15625,0.015625 0.171875,0.03125 0.171875,0.109375 0,0 0,0.046875 -0.03125,0.140625 l -0.9375,3.703125 C 1.234375,-0.3125 1.21875,-0.25 0.6875,-0.25 c -0.109375,0 -0.203125,0 -0.203125,0.140625 C 0.484375,0 0.5625,0 0.6875,0 l 3.5,0 c 0.1875,0 0.1875,0 0.25,-0.140625 0.0625,-0.1875 0.59375,-1.53125 0.59375,-1.59375 0,-0.015625 -0.015625,-0.09375 -0.125,-0.09375 -0.078125,0 -0.09375,0.03125 -0.140625,0.140625 C 4.5,-1.03125 4.1875,-0.25 2.921875,-0.25 l -0.796875,0 c -0.203125,0 -0.21875,-0.015625 -0.21875,-0.078125 0,0 0,-0.03125 0.03125,-0.140625 z m 0,0"
           transform="translate(189.496,130.032)"
           id="path5264" />
      </g>
      <path
         inkscape:connector-curvature="0"
         style="fill:none;stroke:#000000;stroke-width:0.398;stroke-linecap:butt;stroke-linejoin:miter;stroke-miterlimit:10;stroke-opacity:1"
         d="m -0.00175,-0.001 45.054687,0"
         transform="matrix(1,0,0,-1,149.908,132.374)"
         id="path5266" />
      <g
         style="fill:#000000;fill-opacity:1"
         id="g5268">
        <path
           inkscape:connector-curvature="0"
           style="stroke:none;stroke-width:0"
           d="m 3.515625,-1.265625 -0.234375,0 c -0.015625,0.15625 -0.09375,0.5625 -0.1875,0.625 -0.046875,0.046875 -0.578125,0.046875 -0.6875,0.046875 l -1.28125,0 c 0.734375,-0.640625 0.984375,-0.84375 1.390625,-1.171875 0.515625,-0.40625 1,-0.84375 1,-1.5 0,-0.84375 -0.734375,-1.359375 -1.625,-1.359375 -0.859375,0 -1.453125,0.609375 -1.453125,1.25 0,0.34375 0.296875,0.390625 0.375,0.390625 0.15625,0 0.359375,-0.125 0.359375,-0.375 0,-0.125 -0.046875,-0.375 -0.40625,-0.375 C 0.984375,-4.21875 1.453125,-4.375 1.78125,-4.375 c 0.703125,0 1.0625,0.546875 1.0625,1.109375 0,0.609375 -0.4375,1.078125 -0.65625,1.328125 L 0.515625,-0.265625 C 0.4375,-0.203125 0.4375,-0.1875 0.4375,0 l 2.875,0 z m 0,0"
           transform="translate(168.464,138.3)"
           id="path5270" />
        <path
           inkscape:connector-curvature="0"
           style="stroke:none;stroke-width:0"
           d="M 3.59375,-2.21875 C 3.59375,-2.984375 3.5,-3.546875 3.1875,-4.03125 2.96875,-4.34375 2.53125,-4.625 1.984375,-4.625 c -1.625,0 -1.625,1.90625 -1.625,2.40625 0,0.5 0,2.359375 1.625,2.359375 1.609375,0 1.609375,-1.859375 1.609375,-2.359375 z M 1.984375,-0.0625 c -0.328125,0 -0.75,-0.1875 -0.890625,-0.75 C 1,-1.21875 1,-1.796875 1,-2.3125 1,-2.828125 1,-3.359375 1.09375,-3.734375 1.25,-4.28125 1.6875,-4.4375 1.984375,-4.4375 c 0.375,0 0.734375,0.234375 0.859375,0.640625 0.109375,0.375 0.125,0.875 0.125,1.484375 0,0.515625 0,1.03125 -0.09375,1.46875 -0.140625,0.640625 -0.609375,0.78125 -0.890625,0.78125 z m 0,0"
           transform="translate(172.43558,138.3)"
           id="path5272" />
      </g>
    </g>
  </g>
  <g
     id="g6216"
     ns0:jacobian_sqrt="3.75"
     inkscapeversion="0.91"
     ns0:alignment="middle center"
     ns0:scale="3.0"
     ns0:preamble="/home/daalvarez/.config/inkscape/extensions/textext/default_packages.tex"
     ns0:text="$\\frac{(3w_1 + 7w_2)L}{20}$"
     ns0:pdfconverter="pdf2svg"
     ns0:texconverter="pdflatex"
     ns0:version="0.11.0"
     transform="matrix(3.75,0,0,3.75,392.88776,-176.93968)">
    <g
       id="g6218">
      <g
         id="g6220"
         style="fill:#000000;fill-opacity:1">
        <path
           id="path6222"
           transform="translate(149.908,130.032)"
           d="M 2.46875,-5.21875 C 1.15625,-4.296875 0.796875,-2.8125 0.796875,-1.75 c 0,0.984375 0.296875,2.515625 1.671875,3.484375 0.0625,0 0.140625,0 0.140625,-0.078125 0,-0.046875 -0.015625,-0.0625 -0.0625,-0.109375 C 1.609375,0.703125 1.28125,-0.46875 1.28125,-1.734375 1.28125,-3.625 2,-4.546875 2.5625,-5.0625 2.59375,-5.09375 2.609375,-5.109375 2.609375,-5.140625 2.609375,-5.21875 2.53125,-5.21875 2.46875,-5.21875 Z m 0,0"
           style="stroke:none;stroke-width:0"
           inkscape:connector-curvature="0" />
        <path
           id="path6224"
           transform="translate(153.0211,130.032)"
           d="m 1.90625,-2.328125 c 0.546875,0 0.9375,0.375 0.9375,1.125 0,0.859375 -0.515625,1.125 -0.90625,1.125 -0.28125,0 -0.90625,-0.078125 -1.1875,-0.5 0.328125,0 0.40625,-0.234375 0.40625,-0.390625 0,-0.21875 -0.171875,-0.375 -0.390625,-0.375 -0.1875,0 -0.390625,0.125 -0.390625,0.40625 0,0.65625 0.71875,1.078125 1.5625,1.078125 0.96875,0 1.640625,-0.65625 1.640625,-1.34375 0,-0.546875 -0.4375,-1.09375 -1.203125,-1.25 0.71875,-0.265625 0.984375,-0.78125 0.984375,-1.21875 0,-0.546875 -0.625,-0.953125 -1.40625,-0.953125 -0.765625,0 -1.359375,0.375 -1.359375,0.9375 0,0.234375 0.15625,0.359375 0.359375,0.359375 0.21875,0 0.359375,-0.15625 0.359375,-0.34375 0,-0.203125 -0.140625,-0.359375 -0.359375,-0.375 0.25,-0.296875 0.71875,-0.375 0.984375,-0.375 0.3125,0 0.75,0.15625 0.75,0.75 0,0.296875 -0.09375,0.625 -0.28125,0.828125 -0.21875,0.265625 -0.421875,0.28125 -0.765625,0.3125 -0.171875,0.015625 -0.1875,0.015625 -0.21875,0.015625 -0.015625,0 -0.078125,0.015625 -0.078125,0.09375 0,0.09375 0.0625,0.09375 0.1875,0.09375 z m 0,0"
           style="stroke:none;stroke-width:0"
           inkscape:connector-curvature="0" />
      </g>
      <g
         id="g6226"
         style="fill:#000000;fill-opacity:1">
        <path
           id="path6228"
           transform="translate(156.992,130.032)"
           d="m 3.671875,-2.21875 c 0.046875,-0.1875 0.125,-0.53125 0.125,-0.5625 C 3.796875,-2.921875 3.6875,-3 3.5625,-3 3.4375,-3 3.3125,-2.921875 3.265625,-2.796875 3.25,-2.75 3.171875,-2.453125 3.125,-2.28125 3.03125,-1.875 3.03125,-1.875 2.921875,-1.484375 2.84375,-1.09375 2.828125,-1.03125 2.8125,-0.84375 2.84375,-0.703125 2.78125,-0.5625 2.625,-0.359375 2.53125,-0.25 2.390625,-0.125 2.15625,-0.125 1.875,-0.125 1.53125,-0.21875 1.53125,-0.765625 1.53125,-1.125 1.71875,-1.640625 1.859375,-2 1.984375,-2.296875 2,-2.359375 2,-2.484375 2,-2.8125 1.71875,-3.078125 1.34375,-3.078125 0.640625,-3.078125 0.328125,-2.125 0.328125,-2 c 0,0.078125 0.09375,0.078125 0.125,0.078125 0.09375,0 0.09375,-0.03125 0.125,-0.109375 C 0.75,-2.609375 1.046875,-2.875 1.328125,-2.875 1.4375,-2.875 1.5,-2.796875 1.5,-2.640625 c 0,0.171875 -0.0625,0.3125 -0.09375,0.40625 C 1,-1.21875 1,-1.078125 1,-0.859375 1,-0.03125 1.75,0.0625 2.125,0.0625 c 0.140625,0 0.46875,0 0.78125,-0.453125 C 3.078125,-0.078125 3.453125,0.0625 3.875,0.0625 4.5,0.0625 4.8125,-0.46875 4.953125,-0.75 5.25,-1.34375 5.4375,-2.203125 5.4375,-2.53125 c 0,-0.515625 -0.296875,-0.546875 -0.34375,-0.546875 -0.1875,0 -0.390625,0.1875 -0.390625,0.375 0,0.109375 0.078125,0.171875 0.125,0.203125 C 5,-2.359375 5.09375,-2.15625 5.09375,-1.9375 c 0,0.09375 -0.296875,1.8125 -1.1875,1.8125 -0.5625,0 -0.5625,-0.5 -0.5625,-0.625 0,-0.1875 0.03125,-0.296875 0.125,-0.6875 z m 0,0"
           style="stroke:none;stroke-width:0"
           inkscape:connector-curvature="0" />
      </g>
      <g
         id="g6230"
         style="fill:#000000;fill-opacity:1">
        <path
           id="path6232"
           transform="translate(162.756,131.029)"
           d="M 1.984375,-3.171875 C 1.984375,-3.3125 1.96875,-3.3125 1.796875,-3.3125 1.453125,-3 0.890625,-3 0.796875,-3 l -0.078125,0 0,0.21875 0.078125,0 c 0.109375,0 0.4375,-0.015625 0.734375,-0.140625 l 0,2.5 c 0,0.140625 0,0.203125 -0.53125,0.203125 l -0.25,0 L 0.75,0 c 0.265625,-0.015625 0.71875,-0.015625 1,-0.015625 0.296875,0 0.734375,0 1.015625,0.015625 l 0,-0.21875 -0.25,0 c -0.53125,0 -0.53125,-0.0625 -0.53125,-0.203125 z m 0,0"
           style="stroke:none;stroke-width:0"
           inkscape:connector-curvature="0" />
      </g>
      <g
         id="g6234"
         style="fill:#000000;fill-opacity:1">
        <path
           id="path6236"
           transform="translate(166.644,130.032)"
           d="m 3.21875,-1.578125 2.140625,0 c 0.09375,0 0.25,0 0.25,-0.15625 0,-0.1875 -0.15625,-0.1875 -0.25,-0.1875 l -2.140625,0 0,-2.140625 c 0,-0.078125 0,-0.25 -0.15625,-0.25 -0.171875,0 -0.171875,0.15625 -0.171875,0.25 l 0,2.140625 -2.140625,0 c -0.09375,0 -0.265625,0 -0.265625,0.171875 0,0.171875 0.15625,0.171875 0.265625,0.171875 l 2.140625,0 0,2.140625 c 0,0.09375 0,0.265625 0.15625,0.265625 0.171875,0 0.171875,-0.171875 0.171875,-0.265625 z m 0,0"
           style="stroke:none;stroke-width:0"
           inkscape:connector-curvature="0" />
        <path
           id="path6238"
           transform="translate(172.76002,130.032)"
           d="m 3.734375,-4.203125 c 0.0625,-0.09375 0.0625,-0.109375 0.0625,-0.28125 l -1.828125,0 C 1.6875,-4.484375 1.609375,-4.5 1.359375,-4.515625 1,-4.546875 0.984375,-4.59375 0.96875,-4.703125 l -0.234375,0 -0.25,1.484375 0.234375,0 c 0.015625,-0.109375 0.09375,-0.5625 0.203125,-0.640625 0.046875,-0.03125 0.625,-0.03125 0.71875,-0.03125 l 1.515625,0 c -0.21875,0.28125 -0.578125,0.71875 -0.71875,0.921875 -0.90625,1.1875 -1,2.296875 -1,2.703125 0,0.078125 0,0.40625 0.328125,0.40625 0.34375,0 0.34375,-0.3125 0.34375,-0.40625 l 0,-0.28125 c 0,-1.34375 0.28125,-1.96875 0.578125,-2.34375 z m 0,0"
           style="stroke:none;stroke-width:0"
           inkscape:connector-curvature="0" />
      </g>
      <g
         id="g6240"
         style="fill:#000000;fill-opacity:1">
        <path
           id="path6242"
           transform="translate(176.731,130.032)"
           d="m 3.671875,-2.21875 c 0.046875,-0.1875 0.125,-0.53125 0.125,-0.5625 C 3.796875,-2.921875 3.6875,-3 3.5625,-3 3.4375,-3 3.3125,-2.921875 3.265625,-2.796875 3.25,-2.75 3.171875,-2.453125 3.125,-2.28125 3.03125,-1.875 3.03125,-1.875 2.921875,-1.484375 2.84375,-1.09375 2.828125,-1.03125 2.8125,-0.84375 2.84375,-0.703125 2.78125,-0.5625 2.625,-0.359375 2.53125,-0.25 2.390625,-0.125 2.15625,-0.125 1.875,-0.125 1.53125,-0.21875 1.53125,-0.765625 1.53125,-1.125 1.71875,-1.640625 1.859375,-2 1.984375,-2.296875 2,-2.359375 2,-2.484375 2,-2.8125 1.71875,-3.078125 1.34375,-3.078125 0.640625,-3.078125 0.328125,-2.125 0.328125,-2 c 0,0.078125 0.09375,0.078125 0.125,0.078125 0.09375,0 0.09375,-0.03125 0.125,-0.109375 C 0.75,-2.609375 1.046875,-2.875 1.328125,-2.875 1.4375,-2.875 1.5,-2.796875 1.5,-2.640625 c 0,0.171875 -0.0625,0.3125 -0.09375,0.40625 C 1,-1.21875 1,-1.078125 1,-0.859375 1,-0.03125 1.75,0.0625 2.125,0.0625 c 0.140625,0 0.46875,0 0.78125,-0.453125 C 3.078125,-0.078125 3.453125,0.0625 3.875,0.0625 4.5,0.0625 4.8125,-0.46875 4.953125,-0.75 5.25,-1.34375 5.4375,-2.203125 5.4375,-2.53125 c 0,-0.515625 -0.296875,-0.546875 -0.34375,-0.546875 -0.1875,0 -0.390625,0.1875 -0.390625,0.375 0,0.109375 0.078125,0.171875 0.125,0.203125 C 5,-2.359375 5.09375,-2.15625 5.09375,-1.9375 c 0,0.09375 -0.296875,1.8125 -1.1875,1.8125 -0.5625,0 -0.5625,-0.5 -0.5625,-0.625 0,-0.1875 0.03125,-0.296875 0.125,-0.6875 z m 0,0"
           style="stroke:none;stroke-width:0"
           inkscape:connector-curvature="0" />
      </g>
      <g
         id="g6244"
         style="fill:#000000;fill-opacity:1">
        <path
           id="path6246"
           transform="translate(182.495,131.029)"
           d="m 2.9375,-0.96875 -0.21875,0 c 0,0.09375 -0.0625,0.40625 -0.140625,0.453125 -0.03125,0.03125 -0.453125,0.03125 -0.53125,0.03125 l -0.96875,0 C 1.40625,-0.71875 1.765625,-1 2.0625,-1.203125 c 0.453125,-0.3125 0.875,-0.59375 0.875,-1.125 0,-0.640625 -0.609375,-0.984375 -1.3125,-0.984375 -0.671875,0 -1.171875,0.375 -1.171875,0.875 0,0.25 0.21875,0.296875 0.296875,0.296875 0.125,0 0.28125,-0.09375 0.28125,-0.296875 0,-0.171875 -0.125,-0.28125 -0.28125,-0.28125 0.140625,-0.234375 0.4375,-0.375 0.765625,-0.375 0.484375,0 0.890625,0.28125 0.890625,0.765625 0,0.421875 -0.296875,0.75 -0.671875,1.0625 l -1.21875,1.03125 C 0.46875,-0.1875 0.453125,-0.1875 0.453125,-0.15625 l 0,0.15625 2.3125,0 z m 0,0"
           style="stroke:none;stroke-width:0"
           inkscape:connector-curvature="0" />
      </g>
      <g
         id="g6248"
         style="fill:#000000;fill-opacity:1">
        <path
           id="path6250"
           transform="translate(186.383,130.032)"
           d="m 0.625,-5.21875 c -0.046875,0 -0.125,0 -0.125,0.078125 0,0.03125 0.015625,0.046875 0.0625,0.109375 0.59375,0.546875 1.265625,1.484375 1.265625,3.28125 0,1.453125 -0.453125,2.5625 -1.203125,3.234375 -0.125,0.125 -0.125,0.125 -0.125,0.171875 0,0.03125 0.015625,0.078125 0.078125,0.078125 0.09375,0 0.75,-0.453125 1.21875,-1.328125 0.296875,-0.578125 0.5,-1.328125 0.5,-2.140625 C 2.296875,-2.71875 2,-4.25 0.625,-5.21875 Z m 0,0"
           style="stroke:none;stroke-width:0"
           inkscape:connector-curvature="0" />
      </g>
      <g
         id="g6252"
         style="fill:#000000;fill-opacity:1">
        <path
           id="path6254"
           transform="translate(189.496,130.032)"
           d="m 2.875,-4.1875 c 0.0625,-0.25 0.078125,-0.328125 0.71875,-0.328125 0.21875,0 0.28125,0 0.28125,-0.140625 0,-0.015625 0,-0.109375 -0.109375,-0.109375 -0.15625,0 -0.34375,0.015625 -0.515625,0.03125 -0.171875,0 -0.390625,0 -0.5625,0 -0.140625,0 -0.328125,0 -0.484375,0 -0.140625,0 -0.3125,-0.03125 -0.453125,-0.03125 -0.03125,0 -0.140625,0 -0.140625,0.15625 0,0.09375 0.078125,0.09375 0.21875,0.09375 0.015625,0 0.140625,0 0.265625,0.015625 0.15625,0.015625 0.171875,0.03125 0.171875,0.109375 0,0 0,0.046875 -0.03125,0.140625 l -0.9375,3.703125 C 1.234375,-0.3125 1.21875,-0.25 0.6875,-0.25 c -0.109375,0 -0.203125,0 -0.203125,0.140625 C 0.484375,0 0.5625,0 0.6875,0 l 3.5,0 c 0.1875,0 0.1875,0 0.25,-0.140625 0.0625,-0.1875 0.59375,-1.53125 0.59375,-1.59375 0,-0.015625 -0.015625,-0.09375 -0.125,-0.09375 -0.078125,0 -0.09375,0.03125 -0.140625,0.140625 C 4.5,-1.03125 4.1875,-0.25 2.921875,-0.25 l -0.796875,0 c -0.203125,0 -0.21875,-0.015625 -0.21875,-0.078125 0,0 0,-0.03125 0.03125,-0.140625 z m 0,0"
           style="stroke:none;stroke-width:0"
           inkscape:connector-curvature="0" />
      </g>
      <path
         id="path6256"
         transform="matrix(1,0,0,-1,149.908,132.374)"
         d="m -0.00175,-0.001 45.054687,0"
         style="fill:none;stroke:#000000;stroke-width:0.398;stroke-linecap:butt;stroke-linejoin:miter;stroke-miterlimit:10;stroke-opacity:1"
         inkscape:connector-curvature="0" />
      <g
         id="g6258"
         style="fill:#000000;fill-opacity:1">
        <path
           id="path6260"
           transform="translate(168.464,138.3)"
           d="m 3.515625,-1.265625 -0.234375,0 c -0.015625,0.15625 -0.09375,0.5625 -0.1875,0.625 -0.046875,0.046875 -0.578125,0.046875 -0.6875,0.046875 l -1.28125,0 c 0.734375,-0.640625 0.984375,-0.84375 1.390625,-1.171875 0.515625,-0.40625 1,-0.84375 1,-1.5 0,-0.84375 -0.734375,-1.359375 -1.625,-1.359375 -0.859375,0 -1.453125,0.609375 -1.453125,1.25 0,0.34375 0.296875,0.390625 0.375,0.390625 0.15625,0 0.359375,-0.125 0.359375,-0.375 0,-0.125 -0.046875,-0.375 -0.40625,-0.375 C 0.984375,-4.21875 1.453125,-4.375 1.78125,-4.375 c 0.703125,0 1.0625,0.546875 1.0625,1.109375 0,0.609375 -0.4375,1.078125 -0.65625,1.328125 L 0.515625,-0.265625 C 0.4375,-0.203125 0.4375,-0.1875 0.4375,0 l 2.875,0 z m 0,0"
           style="stroke:none;stroke-width:0"
           inkscape:connector-curvature="0" />
        <path
           id="path6262"
           transform="translate(172.43558,138.3)"
           d="M 3.59375,-2.21875 C 3.59375,-2.984375 3.5,-3.546875 3.1875,-4.03125 2.96875,-4.34375 2.53125,-4.625 1.984375,-4.625 c -1.625,0 -1.625,1.90625 -1.625,2.40625 0,0.5 0,2.359375 1.625,2.359375 1.609375,0 1.609375,-1.859375 1.609375,-2.359375 z M 1.984375,-0.0625 c -0.328125,0 -0.75,-0.1875 -0.890625,-0.75 C 1,-1.21875 1,-1.796875 1,-2.3125 1,-2.828125 1,-3.359375 1.09375,-3.734375 1.25,-4.28125 1.6875,-4.4375 1.984375,-4.4375 c 0.375,0 0.734375,0.234375 0.859375,0.640625 0.109375,0.375 0.125,0.875 0.125,1.484375 0,0.515625 0,1.03125 -0.09375,1.46875 -0.140625,0.640625 -0.609375,0.78125 -0.890625,0.78125 z m 0,0"
           style="stroke:none;stroke-width:0"
           inkscape:connector-curvature="0" />
      </g>
    </g>
  </g>
  <g
     transform="matrix(3.75,0,0,3.75,-57.337401,-342.24957)"
     ns0:version="0.11.0"
     ns0:texconverter="pdflatex"
     ns0:pdfconverter="pdf2svg"
     ns0:text="$\\frac{(3w_1 + 2w_2)L^2}{60}$"
     ns0:preamble="/home/daalvarez/.config/inkscape/extensions/textext/default_packages.tex"
     ns0:scale="3.0"
     ns0:alignment="middle center"
     inkscapeversion="0.91"
     ns0:jacobian_sqrt="3.75"
     id="g6604">
    <g
       id="g6606">
      <g
         style="fill:#000000;fill-opacity:1"
         id="g6608">
        <path
           inkscape:connector-curvature="0"
           style="stroke:none;stroke-width:0"
           d="M 2.46875,-5.21875 C 1.15625,-4.296875 0.796875,-2.8125 0.796875,-1.75 c 0,0.984375 0.296875,2.515625 1.671875,3.484375 0.0625,0 0.140625,0 0.140625,-0.078125 0,-0.046875 -0.015625,-0.0625 -0.0625,-0.109375 C 1.609375,0.703125 1.28125,-0.46875 1.28125,-1.734375 1.28125,-3.625 2,-4.546875 2.5625,-5.0625 2.59375,-5.09375 2.609375,-5.109375 2.609375,-5.140625 2.609375,-5.21875 2.53125,-5.21875 2.46875,-5.21875 Z m 0,0"
           transform="translate(149.908,131.019)"
           id="path6610" />
        <path
           inkscape:connector-curvature="0"
           style="stroke:none;stroke-width:0"
           d="m 1.90625,-2.328125 c 0.546875,0 0.9375,0.375 0.9375,1.125 0,0.859375 -0.515625,1.125 -0.90625,1.125 -0.28125,0 -0.90625,-0.078125 -1.1875,-0.5 0.328125,0 0.40625,-0.234375 0.40625,-0.390625 0,-0.21875 -0.171875,-0.375 -0.390625,-0.375 -0.1875,0 -0.390625,0.125 -0.390625,0.40625 0,0.65625 0.71875,1.078125 1.5625,1.078125 0.96875,0 1.640625,-0.65625 1.640625,-1.34375 0,-0.546875 -0.4375,-1.09375 -1.203125,-1.25 0.71875,-0.265625 0.984375,-0.78125 0.984375,-1.21875 0,-0.546875 -0.625,-0.953125 -1.40625,-0.953125 -0.765625,0 -1.359375,0.375 -1.359375,0.9375 0,0.234375 0.15625,0.359375 0.359375,0.359375 0.21875,0 0.359375,-0.15625 0.359375,-0.34375 0,-0.203125 -0.140625,-0.359375 -0.359375,-0.375 0.25,-0.296875 0.71875,-0.375 0.984375,-0.375 0.3125,0 0.75,0.15625 0.75,0.75 0,0.296875 -0.09375,0.625 -0.28125,0.828125 -0.21875,0.265625 -0.421875,0.28125 -0.765625,0.3125 -0.171875,0.015625 -0.1875,0.015625 -0.21875,0.015625 -0.015625,0 -0.078125,0.015625 -0.078125,0.09375 0,0.09375 0.0625,0.09375 0.1875,0.09375 z m 0,0"
           transform="translate(153.0211,131.019)"
           id="path6612" />
      </g>
      <g
         style="fill:#000000;fill-opacity:1"
         id="g6614">
        <path
           inkscape:connector-curvature="0"
           style="stroke:none;stroke-width:0"
           d="m 3.671875,-2.21875 c 0.046875,-0.1875 0.125,-0.53125 0.125,-0.5625 C 3.796875,-2.921875 3.6875,-3 3.5625,-3 3.4375,-3 3.3125,-2.921875 3.265625,-2.796875 3.25,-2.75 3.171875,-2.453125 3.125,-2.28125 3.03125,-1.875 3.03125,-1.875 2.921875,-1.484375 2.84375,-1.09375 2.828125,-1.03125 2.8125,-0.84375 2.84375,-0.703125 2.78125,-0.5625 2.625,-0.359375 2.53125,-0.25 2.390625,-0.125 2.15625,-0.125 1.875,-0.125 1.53125,-0.21875 1.53125,-0.765625 1.53125,-1.125 1.71875,-1.640625 1.859375,-2 1.984375,-2.296875 2,-2.359375 2,-2.484375 2,-2.8125 1.71875,-3.078125 1.34375,-3.078125 0.640625,-3.078125 0.328125,-2.125 0.328125,-2 c 0,0.078125 0.09375,0.078125 0.125,0.078125 0.09375,0 0.09375,-0.03125 0.125,-0.109375 C 0.75,-2.609375 1.046875,-2.875 1.328125,-2.875 1.4375,-2.875 1.5,-2.796875 1.5,-2.640625 c 0,0.171875 -0.0625,0.3125 -0.09375,0.40625 C 1,-1.21875 1,-1.078125 1,-0.859375 1,-0.03125 1.75,0.0625 2.125,0.0625 c 0.140625,0 0.46875,0 0.78125,-0.453125 C 3.078125,-0.078125 3.453125,0.0625 3.875,0.0625 4.5,0.0625 4.8125,-0.46875 4.953125,-0.75 5.25,-1.34375 5.4375,-2.203125 5.4375,-2.53125 c 0,-0.515625 -0.296875,-0.546875 -0.34375,-0.546875 -0.1875,0 -0.390625,0.1875 -0.390625,0.375 0,0.109375 0.078125,0.171875 0.125,0.203125 C 5,-2.359375 5.09375,-2.15625 5.09375,-1.9375 c 0,0.09375 -0.296875,1.8125 -1.1875,1.8125 -0.5625,0 -0.5625,-0.5 -0.5625,-0.625 0,-0.1875 0.03125,-0.296875 0.125,-0.6875 z m 0,0"
           transform="translate(156.992,131.019)"
           id="path6616" />
      </g>
      <g
         style="fill:#000000;fill-opacity:1"
         id="g6618">
        <path
           inkscape:connector-curvature="0"
           style="stroke:none;stroke-width:0"
           d="M 1.984375,-3.171875 C 1.984375,-3.3125 1.96875,-3.3125 1.796875,-3.3125 1.453125,-3 0.890625,-3 0.796875,-3 l -0.078125,0 0,0.21875 0.078125,0 c 0.109375,0 0.4375,-0.015625 0.734375,-0.140625 l 0,2.5 c 0,0.140625 0,0.203125 -0.53125,0.203125 l -0.25,0 L 0.75,0 c 0.265625,-0.015625 0.71875,-0.015625 1,-0.015625 0.296875,0 0.734375,0 1.015625,0.015625 l 0,-0.21875 -0.25,0 c -0.53125,0 -0.53125,-0.0625 -0.53125,-0.203125 z m 0,0"
           transform="translate(162.756,132.015)"
           id="path6620" />
      </g>
      <g
         style="fill:#000000;fill-opacity:1"
         id="g6622">
        <path
           inkscape:connector-curvature="0"
           style="stroke:none;stroke-width:0"
           d="m 3.21875,-1.578125 2.140625,0 c 0.09375,0 0.25,0 0.25,-0.15625 0,-0.1875 -0.15625,-0.1875 -0.25,-0.1875 l -2.140625,0 0,-2.140625 c 0,-0.078125 0,-0.25 -0.15625,-0.25 -0.171875,0 -0.171875,0.15625 -0.171875,0.25 l 0,2.140625 -2.140625,0 c -0.09375,0 -0.265625,0 -0.265625,0.171875 0,0.171875 0.15625,0.171875 0.265625,0.171875 l 2.140625,0 0,2.140625 c 0,0.09375 0,0.265625 0.15625,0.265625 0.171875,0 0.171875,-0.171875 0.171875,-0.265625 z m 0,0"
           transform="translate(166.644,131.019)"
           id="path6624" />
        <path
           inkscape:connector-curvature="0"
           style="stroke:none;stroke-width:0"
           d="m 3.515625,-1.265625 -0.234375,0 c -0.015625,0.15625 -0.09375,0.5625 -0.1875,0.625 -0.046875,0.046875 -0.578125,0.046875 -0.6875,0.046875 l -1.28125,0 c 0.734375,-0.640625 0.984375,-0.84375 1.390625,-1.171875 0.515625,-0.40625 1,-0.84375 1,-1.5 0,-0.84375 -0.734375,-1.359375 -1.625,-1.359375 -0.859375,0 -1.453125,0.609375 -1.453125,1.25 0,0.34375 0.296875,0.390625 0.375,0.390625 0.15625,0 0.359375,-0.125 0.359375,-0.375 0,-0.125 -0.046875,-0.375 -0.40625,-0.375 C 0.984375,-4.21875 1.453125,-4.375 1.78125,-4.375 c 0.703125,0 1.0625,0.546875 1.0625,1.109375 0,0.609375 -0.4375,1.078125 -0.65625,1.328125 L 0.515625,-0.265625 C 0.4375,-0.203125 0.4375,-0.1875 0.4375,0 l 2.875,0 z m 0,0"
           transform="translate(172.76002,131.019)"
           id="path6626" />
      </g>
      <g
         style="fill:#000000;fill-opacity:1"
         id="g6628">
        <path
           inkscape:connector-curvature="0"
           style="stroke:none;stroke-width:0"
           d="m 3.671875,-2.21875 c 0.046875,-0.1875 0.125,-0.53125 0.125,-0.5625 C 3.796875,-2.921875 3.6875,-3 3.5625,-3 3.4375,-3 3.3125,-2.921875 3.265625,-2.796875 3.25,-2.75 3.171875,-2.453125 3.125,-2.28125 3.03125,-1.875 3.03125,-1.875 2.921875,-1.484375 2.84375,-1.09375 2.828125,-1.03125 2.8125,-0.84375 2.84375,-0.703125 2.78125,-0.5625 2.625,-0.359375 2.53125,-0.25 2.390625,-0.125 2.15625,-0.125 1.875,-0.125 1.53125,-0.21875 1.53125,-0.765625 1.53125,-1.125 1.71875,-1.640625 1.859375,-2 1.984375,-2.296875 2,-2.359375 2,-2.484375 2,-2.8125 1.71875,-3.078125 1.34375,-3.078125 0.640625,-3.078125 0.328125,-2.125 0.328125,-2 c 0,0.078125 0.09375,0.078125 0.125,0.078125 0.09375,0 0.09375,-0.03125 0.125,-0.109375 C 0.75,-2.609375 1.046875,-2.875 1.328125,-2.875 1.4375,-2.875 1.5,-2.796875 1.5,-2.640625 c 0,0.171875 -0.0625,0.3125 -0.09375,0.40625 C 1,-1.21875 1,-1.078125 1,-0.859375 1,-0.03125 1.75,0.0625 2.125,0.0625 c 0.140625,0 0.46875,0 0.78125,-0.453125 C 3.078125,-0.078125 3.453125,0.0625 3.875,0.0625 4.5,0.0625 4.8125,-0.46875 4.953125,-0.75 5.25,-1.34375 5.4375,-2.203125 5.4375,-2.53125 c 0,-0.515625 -0.296875,-0.546875 -0.34375,-0.546875 -0.1875,0 -0.390625,0.1875 -0.390625,0.375 0,0.109375 0.078125,0.171875 0.125,0.203125 C 5,-2.359375 5.09375,-2.15625 5.09375,-1.9375 c 0,0.09375 -0.296875,1.8125 -1.1875,1.8125 -0.5625,0 -0.5625,-0.5 -0.5625,-0.625 0,-0.1875 0.03125,-0.296875 0.125,-0.6875 z m 0,0"
           transform="translate(176.731,131.019)"
           id="path6630" />
      </g>
      <g
         style="fill:#000000;fill-opacity:1"
         id="g6632">
        <path
           inkscape:connector-curvature="0"
           style="stroke:none;stroke-width:0"
           d="m 2.9375,-0.96875 -0.21875,0 c 0,0.09375 -0.0625,0.40625 -0.140625,0.453125 -0.03125,0.03125 -0.453125,0.03125 -0.53125,0.03125 l -0.96875,0 C 1.40625,-0.71875 1.765625,-1 2.0625,-1.203125 c 0.453125,-0.3125 0.875,-0.59375 0.875,-1.125 0,-0.640625 -0.609375,-0.984375 -1.3125,-0.984375 -0.671875,0 -1.171875,0.375 -1.171875,0.875 0,0.25 0.21875,0.296875 0.296875,0.296875 0.125,0 0.28125,-0.09375 0.28125,-0.296875 0,-0.171875 -0.125,-0.28125 -0.28125,-0.28125 0.140625,-0.234375 0.4375,-0.375 0.765625,-0.375 0.484375,0 0.890625,0.28125 0.890625,0.765625 0,0.421875 -0.296875,0.75 -0.671875,1.0625 l -1.21875,1.03125 C 0.46875,-0.1875 0.453125,-0.1875 0.453125,-0.15625 l 0,0.15625 2.3125,0 z m 0,0"
           transform="translate(182.495,132.015)"
           id="path6634" />
      </g>
      <g
         style="fill:#000000;fill-opacity:1"
         id="g6636">
        <path
           inkscape:connector-curvature="0"
           style="stroke:none;stroke-width:0"
           d="m 0.625,-5.21875 c -0.046875,0 -0.125,0 -0.125,0.078125 0,0.03125 0.015625,0.046875 0.0625,0.109375 0.59375,0.546875 1.265625,1.484375 1.265625,3.28125 0,1.453125 -0.453125,2.5625 -1.203125,3.234375 -0.125,0.125 -0.125,0.125 -0.125,0.171875 0,0.03125 0.015625,0.078125 0.078125,0.078125 0.09375,0 0.75,-0.453125 1.21875,-1.328125 0.296875,-0.578125 0.5,-1.328125 0.5,-2.140625 C 2.296875,-2.71875 2,-4.25 0.625,-5.21875 Z m 0,0"
           transform="translate(186.383,131.019)"
           id="path6638" />
      </g>
      <g
         style="fill:#000000;fill-opacity:1"
         id="g6640">
        <path
           inkscape:connector-curvature="0"
           style="stroke:none;stroke-width:0"
           d="m 2.875,-4.1875 c 0.0625,-0.25 0.078125,-0.328125 0.71875,-0.328125 0.21875,0 0.28125,0 0.28125,-0.140625 0,-0.015625 0,-0.109375 -0.109375,-0.109375 -0.15625,0 -0.34375,0.015625 -0.515625,0.03125 -0.171875,0 -0.390625,0 -0.5625,0 -0.140625,0 -0.328125,0 -0.484375,0 -0.140625,0 -0.3125,-0.03125 -0.453125,-0.03125 -0.03125,0 -0.140625,0 -0.140625,0.15625 0,0.09375 0.078125,0.09375 0.21875,0.09375 0.015625,0 0.140625,0 0.265625,0.015625 0.15625,0.015625 0.171875,0.03125 0.171875,0.109375 0,0 0,0.046875 -0.03125,0.140625 l -0.9375,3.703125 C 1.234375,-0.3125 1.21875,-0.25 0.6875,-0.25 c -0.109375,0 -0.203125,0 -0.203125,0.140625 C 0.484375,0 0.5625,0 0.6875,0 l 3.5,0 c 0.1875,0 0.1875,0 0.25,-0.140625 0.0625,-0.1875 0.59375,-1.53125 0.59375,-1.59375 0,-0.015625 -0.015625,-0.09375 -0.125,-0.09375 -0.078125,0 -0.09375,0.03125 -0.140625,0.140625 C 4.5,-1.03125 4.1875,-0.25 2.921875,-0.25 l -0.796875,0 c -0.203125,0 -0.21875,-0.015625 -0.21875,-0.078125 0,0 0,-0.03125 0.03125,-0.140625 z m 0,0"
           transform="translate(189.496,131.019)"
           id="path6642" />
      </g>
      <g
         style="fill:#000000;fill-opacity:1"
         id="g6644">
        <path
           inkscape:connector-curvature="0"
           style="stroke:none;stroke-width:0"
           d="m 2.9375,-0.96875 -0.21875,0 c 0,0.09375 -0.0625,0.40625 -0.140625,0.453125 -0.03125,0.03125 -0.453125,0.03125 -0.53125,0.03125 l -0.96875,0 C 1.40625,-0.71875 1.765625,-1 2.0625,-1.203125 c 0.453125,-0.3125 0.875,-0.59375 0.875,-1.125 0,-0.640625 -0.609375,-0.984375 -1.3125,-0.984375 -0.671875,0 -1.171875,0.375 -1.171875,0.875 0,0.25 0.21875,0.296875 0.296875,0.296875 0.125,0 0.28125,-0.09375 0.28125,-0.296875 0,-0.171875 -0.125,-0.28125 -0.28125,-0.28125 0.140625,-0.234375 0.4375,-0.375 0.765625,-0.375 0.484375,0 0.890625,0.28125 0.890625,0.765625 0,0.421875 -0.296875,0.75 -0.671875,1.0625 l -1.21875,1.03125 C 0.46875,-0.1875 0.453125,-0.1875 0.453125,-0.15625 l 0,0.15625 2.3125,0 z m 0,0"
           transform="translate(194.962,128.012)"
           id="path6646" />
      </g>
      <path
         inkscape:connector-curvature="0"
         style="fill:none;stroke:#000000;stroke-width:0.398;stroke-linecap:butt;stroke-linejoin:miter;stroke-miterlimit:10;stroke-opacity:1"
         d="m -0.00175,6.25e-4 48.945312,0"
         transform="matrix(1,0,0,-1,149.908,133.36)"
         id="path6648" />
      <g
         style="fill:#000000;fill-opacity:1"
         id="g6650">
        <path
           inkscape:connector-curvature="0"
           style="stroke:none;stroke-width:0"
           d="m 1.046875,-2.28125 c 0,-0.5625 0.046875,-1.078125 0.3125,-1.515625 0.234375,-0.375 0.609375,-0.625 1.0625,-0.625 0.203125,0 0.484375,0.046875 0.625,0.234375 C 2.875,-4.171875 2.71875,-4.046875 2.71875,-3.84375 c 0,0.171875 0.125,0.328125 0.328125,0.328125 0.21875,0 0.34375,-0.140625 0.34375,-0.34375 0,-0.40625 -0.296875,-0.765625 -0.984375,-0.765625 -1,0 -2.03125,0.921875 -2.03125,2.421875 0,1.796875 0.84375,2.34375 1.625,2.34375 0.84375,0 1.578125,-0.65625 1.578125,-1.5625 0,-0.890625 -0.703125,-1.546875 -1.515625,-1.546875 -0.5625,0 -0.859375,0.375 -1.015625,0.6875 z M 2,-0.078125 c -0.359375,0 -0.625,-0.203125 -0.78125,-0.515625 C 1.125,-0.796875 1.0625,-1.15625 1.0625,-1.5625 c 0,-0.6875 0.40625,-1.203125 0.96875,-1.203125 0.3125,0 0.53125,0.125 0.703125,0.375 0.171875,0.265625 0.171875,0.5625 0.171875,0.96875 0,0.390625 0,0.6875 -0.1875,0.96875 -0.15625,0.234375 -0.390625,0.375 -0.71875,0.375 z m 0,0"
           transform="translate(170.408,139.286)"
           id="path6652" />
        <path
           inkscape:connector-curvature="0"
           style="stroke:none;stroke-width:0"
           d="M 3.59375,-2.21875 C 3.59375,-2.984375 3.5,-3.546875 3.1875,-4.03125 2.96875,-4.34375 2.53125,-4.625 1.984375,-4.625 c -1.625,0 -1.625,1.90625 -1.625,2.40625 0,0.5 0,2.359375 1.625,2.359375 1.609375,0 1.609375,-1.859375 1.609375,-2.359375 z M 1.984375,-0.0625 c -0.328125,0 -0.75,-0.1875 -0.890625,-0.75 C 1,-1.21875 1,-1.796875 1,-2.3125 1,-2.828125 1,-3.359375 1.09375,-3.734375 1.25,-4.28125 1.6875,-4.4375 1.984375,-4.4375 c 0.375,0 0.734375,0.234375 0.859375,0.640625 0.109375,0.375 0.125,0.875 0.125,1.484375 0,0.515625 0,1.03125 -0.09375,1.46875 -0.140625,0.640625 -0.609375,0.78125 -0.890625,0.78125 z m 0,0"
           transform="translate(174.37958,139.286)"
           id="path6654" />
      </g>
    </g>
  </g>
  <g
     id="g7082"
     ns0:jacobian_sqrt="3.75"
     inkscapeversion="0.91"
     ns0:alignment="middle center"
     ns0:scale="3.0"
     ns0:preamble="/home/daalvarez/.config/inkscape/extensions/textext/default_packages.tex"
     ns0:text="$\\frac{(2w_1 + 3w_2)L^2}{60}$"
     ns0:pdfconverter="pdf2svg"
     ns0:texconverter="pdflatex"
     ns0:version="0.11.0"
     transform="matrix(3.75,0,0,3.75,406.70911,-342.24957)">
    <g
       id="g7084">
      <g
         id="g7086"
         style="fill:#000000;fill-opacity:1">
        <path
           id="path7088"
           transform="translate(149.908,131.019)"
           d="M 2.46875,-5.21875 C 1.15625,-4.296875 0.796875,-2.8125 0.796875,-1.75 c 0,0.984375 0.296875,2.515625 1.671875,3.484375 0.0625,0 0.140625,0 0.140625,-0.078125 0,-0.046875 -0.015625,-0.0625 -0.0625,-0.109375 C 1.609375,0.703125 1.28125,-0.46875 1.28125,-1.734375 1.28125,-3.625 2,-4.546875 2.5625,-5.0625 2.59375,-5.09375 2.609375,-5.109375 2.609375,-5.140625 2.609375,-5.21875 2.53125,-5.21875 2.46875,-5.21875 Z m 0,0"
           style="stroke:none;stroke-width:0"
           inkscape:connector-curvature="0" />
        <path
           id="path7090"
           transform="translate(153.0211,131.019)"
           d="m 3.515625,-1.265625 -0.234375,0 c -0.015625,0.15625 -0.09375,0.5625 -0.1875,0.625 -0.046875,0.046875 -0.578125,0.046875 -0.6875,0.046875 l -1.28125,0 c 0.734375,-0.640625 0.984375,-0.84375 1.390625,-1.171875 0.515625,-0.40625 1,-0.84375 1,-1.5 0,-0.84375 -0.734375,-1.359375 -1.625,-1.359375 -0.859375,0 -1.453125,0.609375 -1.453125,1.25 0,0.34375 0.296875,0.390625 0.375,0.390625 0.15625,0 0.359375,-0.125 0.359375,-0.375 0,-0.125 -0.046875,-0.375 -0.40625,-0.375 C 0.984375,-4.21875 1.453125,-4.375 1.78125,-4.375 c 0.703125,0 1.0625,0.546875 1.0625,1.109375 0,0.609375 -0.4375,1.078125 -0.65625,1.328125 L 0.515625,-0.265625 C 0.4375,-0.203125 0.4375,-0.1875 0.4375,0 l 2.875,0 z m 0,0"
           style="stroke:none;stroke-width:0"
           inkscape:connector-curvature="0" />
      </g>
      <g
         id="g7092"
         style="fill:#000000;fill-opacity:1">
        <path
           id="path7094"
           transform="translate(156.992,131.019)"
           d="m 3.671875,-2.21875 c 0.046875,-0.1875 0.125,-0.53125 0.125,-0.5625 C 3.796875,-2.921875 3.6875,-3 3.5625,-3 3.4375,-3 3.3125,-2.921875 3.265625,-2.796875 3.25,-2.75 3.171875,-2.453125 3.125,-2.28125 3.03125,-1.875 3.03125,-1.875 2.921875,-1.484375 2.84375,-1.09375 2.828125,-1.03125 2.8125,-0.84375 2.84375,-0.703125 2.78125,-0.5625 2.625,-0.359375 2.53125,-0.25 2.390625,-0.125 2.15625,-0.125 1.875,-0.125 1.53125,-0.21875 1.53125,-0.765625 1.53125,-1.125 1.71875,-1.640625 1.859375,-2 1.984375,-2.296875 2,-2.359375 2,-2.484375 2,-2.8125 1.71875,-3.078125 1.34375,-3.078125 0.640625,-3.078125 0.328125,-2.125 0.328125,-2 c 0,0.078125 0.09375,0.078125 0.125,0.078125 0.09375,0 0.09375,-0.03125 0.125,-0.109375 C 0.75,-2.609375 1.046875,-2.875 1.328125,-2.875 1.4375,-2.875 1.5,-2.796875 1.5,-2.640625 c 0,0.171875 -0.0625,0.3125 -0.09375,0.40625 C 1,-1.21875 1,-1.078125 1,-0.859375 1,-0.03125 1.75,0.0625 2.125,0.0625 c 0.140625,0 0.46875,0 0.78125,-0.453125 C 3.078125,-0.078125 3.453125,0.0625 3.875,0.0625 4.5,0.0625 4.8125,-0.46875 4.953125,-0.75 5.25,-1.34375 5.4375,-2.203125 5.4375,-2.53125 c 0,-0.515625 -0.296875,-0.546875 -0.34375,-0.546875 -0.1875,0 -0.390625,0.1875 -0.390625,0.375 0,0.109375 0.078125,0.171875 0.125,0.203125 C 5,-2.359375 5.09375,-2.15625 5.09375,-1.9375 c 0,0.09375 -0.296875,1.8125 -1.1875,1.8125 -0.5625,0 -0.5625,-0.5 -0.5625,-0.625 0,-0.1875 0.03125,-0.296875 0.125,-0.6875 z m 0,0"
           style="stroke:none;stroke-width:0"
           inkscape:connector-curvature="0" />
      </g>
      <g
         id="g7096"
         style="fill:#000000;fill-opacity:1">
        <path
           id="path7098"
           transform="translate(162.756,132.015)"
           d="M 1.984375,-3.171875 C 1.984375,-3.3125 1.96875,-3.3125 1.796875,-3.3125 1.453125,-3 0.890625,-3 0.796875,-3 l -0.078125,0 0,0.21875 0.078125,0 c 0.109375,0 0.4375,-0.015625 0.734375,-0.140625 l 0,2.5 c 0,0.140625 0,0.203125 -0.53125,0.203125 l -0.25,0 L 0.75,0 c 0.265625,-0.015625 0.71875,-0.015625 1,-0.015625 0.296875,0 0.734375,0 1.015625,0.015625 l 0,-0.21875 -0.25,0 c -0.53125,0 -0.53125,-0.0625 -0.53125,-0.203125 z m 0,0"
           style="stroke:none;stroke-width:0"
           inkscape:connector-curvature="0" />
      </g>
      <g
         id="g7100"
         style="fill:#000000;fill-opacity:1">
        <path
           id="path7102"
           transform="translate(166.644,131.019)"
           d="m 3.21875,-1.578125 2.140625,0 c 0.09375,0 0.25,0 0.25,-0.15625 0,-0.1875 -0.15625,-0.1875 -0.25,-0.1875 l -2.140625,0 0,-2.140625 c 0,-0.078125 0,-0.25 -0.15625,-0.25 -0.171875,0 -0.171875,0.15625 -0.171875,0.25 l 0,2.140625 -2.140625,0 c -0.09375,0 -0.265625,0 -0.265625,0.171875 0,0.171875 0.15625,0.171875 0.265625,0.171875 l 2.140625,0 0,2.140625 c 0,0.09375 0,0.265625 0.15625,0.265625 0.171875,0 0.171875,-0.171875 0.171875,-0.265625 z m 0,0"
           style="stroke:none;stroke-width:0"
           inkscape:connector-curvature="0" />
        <path
           id="path7104"
           transform="translate(172.76002,131.019)"
           d="m 1.90625,-2.328125 c 0.546875,0 0.9375,0.375 0.9375,1.125 0,0.859375 -0.515625,1.125 -0.90625,1.125 -0.28125,0 -0.90625,-0.078125 -1.1875,-0.5 0.328125,0 0.40625,-0.234375 0.40625,-0.390625 0,-0.21875 -0.171875,-0.375 -0.390625,-0.375 -0.1875,0 -0.390625,0.125 -0.390625,0.40625 0,0.65625 0.71875,1.078125 1.5625,1.078125 0.96875,0 1.640625,-0.65625 1.640625,-1.34375 0,-0.546875 -0.4375,-1.09375 -1.203125,-1.25 0.71875,-0.265625 0.984375,-0.78125 0.984375,-1.21875 0,-0.546875 -0.625,-0.953125 -1.40625,-0.953125 -0.765625,0 -1.359375,0.375 -1.359375,0.9375 0,0.234375 0.15625,0.359375 0.359375,0.359375 0.21875,0 0.359375,-0.15625 0.359375,-0.34375 0,-0.203125 -0.140625,-0.359375 -0.359375,-0.375 0.25,-0.296875 0.71875,-0.375 0.984375,-0.375 0.3125,0 0.75,0.15625 0.75,0.75 0,0.296875 -0.09375,0.625 -0.28125,0.828125 -0.21875,0.265625 -0.421875,0.28125 -0.765625,0.3125 -0.171875,0.015625 -0.1875,0.015625 -0.21875,0.015625 -0.015625,0 -0.078125,0.015625 -0.078125,0.09375 0,0.09375 0.0625,0.09375 0.1875,0.09375 z m 0,0"
           style="stroke:none;stroke-width:0"
           inkscape:connector-curvature="0" />
      </g>
      <g
         id="g7106"
         style="fill:#000000;fill-opacity:1">
        <path
           id="path7108"
           transform="translate(176.731,131.019)"
           d="m 3.671875,-2.21875 c 0.046875,-0.1875 0.125,-0.53125 0.125,-0.5625 C 3.796875,-2.921875 3.6875,-3 3.5625,-3 3.4375,-3 3.3125,-2.921875 3.265625,-2.796875 3.25,-2.75 3.171875,-2.453125 3.125,-2.28125 3.03125,-1.875 3.03125,-1.875 2.921875,-1.484375 2.84375,-1.09375 2.828125,-1.03125 2.8125,-0.84375 2.84375,-0.703125 2.78125,-0.5625 2.625,-0.359375 2.53125,-0.25 2.390625,-0.125 2.15625,-0.125 1.875,-0.125 1.53125,-0.21875 1.53125,-0.765625 1.53125,-1.125 1.71875,-1.640625 1.859375,-2 1.984375,-2.296875 2,-2.359375 2,-2.484375 2,-2.8125 1.71875,-3.078125 1.34375,-3.078125 0.640625,-3.078125 0.328125,-2.125 0.328125,-2 c 0,0.078125 0.09375,0.078125 0.125,0.078125 0.09375,0 0.09375,-0.03125 0.125,-0.109375 C 0.75,-2.609375 1.046875,-2.875 1.328125,-2.875 1.4375,-2.875 1.5,-2.796875 1.5,-2.640625 c 0,0.171875 -0.0625,0.3125 -0.09375,0.40625 C 1,-1.21875 1,-1.078125 1,-0.859375 1,-0.03125 1.75,0.0625 2.125,0.0625 c 0.140625,0 0.46875,0 0.78125,-0.453125 C 3.078125,-0.078125 3.453125,0.0625 3.875,0.0625 4.5,0.0625 4.8125,-0.46875 4.953125,-0.75 5.25,-1.34375 5.4375,-2.203125 5.4375,-2.53125 c 0,-0.515625 -0.296875,-0.546875 -0.34375,-0.546875 -0.1875,0 -0.390625,0.1875 -0.390625,0.375 0,0.109375 0.078125,0.171875 0.125,0.203125 C 5,-2.359375 5.09375,-2.15625 5.09375,-1.9375 c 0,0.09375 -0.296875,1.8125 -1.1875,1.8125 -0.5625,0 -0.5625,-0.5 -0.5625,-0.625 0,-0.1875 0.03125,-0.296875 0.125,-0.6875 z m 0,0"
           style="stroke:none;stroke-width:0"
           inkscape:connector-curvature="0" />
      </g>
      <g
         id="g7110"
         style="fill:#000000;fill-opacity:1">
        <path
           id="path7112"
           transform="translate(182.495,132.015)"
           d="m 2.9375,-0.96875 -0.21875,0 c 0,0.09375 -0.0625,0.40625 -0.140625,0.453125 -0.03125,0.03125 -0.453125,0.03125 -0.53125,0.03125 l -0.96875,0 C 1.40625,-0.71875 1.765625,-1 2.0625,-1.203125 c 0.453125,-0.3125 0.875,-0.59375 0.875,-1.125 0,-0.640625 -0.609375,-0.984375 -1.3125,-0.984375 -0.671875,0 -1.171875,0.375 -1.171875,0.875 0,0.25 0.21875,0.296875 0.296875,0.296875 0.125,0 0.28125,-0.09375 0.28125,-0.296875 0,-0.171875 -0.125,-0.28125 -0.28125,-0.28125 0.140625,-0.234375 0.4375,-0.375 0.765625,-0.375 0.484375,0 0.890625,0.28125 0.890625,0.765625 0,0.421875 -0.296875,0.75 -0.671875,1.0625 l -1.21875,1.03125 C 0.46875,-0.1875 0.453125,-0.1875 0.453125,-0.15625 l 0,0.15625 2.3125,0 z m 0,0"
           style="stroke:none;stroke-width:0"
           inkscape:connector-curvature="0" />
      </g>
      <g
         id="g7114"
         style="fill:#000000;fill-opacity:1">
        <path
           id="path7116"
           transform="translate(186.383,131.019)"
           d="m 0.625,-5.21875 c -0.046875,0 -0.125,0 -0.125,0.078125 0,0.03125 0.015625,0.046875 0.0625,0.109375 0.59375,0.546875 1.265625,1.484375 1.265625,3.28125 0,1.453125 -0.453125,2.5625 -1.203125,3.234375 -0.125,0.125 -0.125,0.125 -0.125,0.171875 0,0.03125 0.015625,0.078125 0.078125,0.078125 0.09375,0 0.75,-0.453125 1.21875,-1.328125 0.296875,-0.578125 0.5,-1.328125 0.5,-2.140625 C 2.296875,-2.71875 2,-4.25 0.625,-5.21875 Z m 0,0"
           style="stroke:none;stroke-width:0"
           inkscape:connector-curvature="0" />
      </g>
      <g
         id="g7118"
         style="fill:#000000;fill-opacity:1">
        <path
           id="path7120"
           transform="translate(189.496,131.019)"
           d="m 2.875,-4.1875 c 0.0625,-0.25 0.078125,-0.328125 0.71875,-0.328125 0.21875,0 0.28125,0 0.28125,-0.140625 0,-0.015625 0,-0.109375 -0.109375,-0.109375 -0.15625,0 -0.34375,0.015625 -0.515625,0.03125 -0.171875,0 -0.390625,0 -0.5625,0 -0.140625,0 -0.328125,0 -0.484375,0 -0.140625,0 -0.3125,-0.03125 -0.453125,-0.03125 -0.03125,0 -0.140625,0 -0.140625,0.15625 0,0.09375 0.078125,0.09375 0.21875,0.09375 0.015625,0 0.140625,0 0.265625,0.015625 0.15625,0.015625 0.171875,0.03125 0.171875,0.109375 0,0 0,0.046875 -0.03125,0.140625 l -0.9375,3.703125 C 1.234375,-0.3125 1.21875,-0.25 0.6875,-0.25 c -0.109375,0 -0.203125,0 -0.203125,0.140625 C 0.484375,0 0.5625,0 0.6875,0 l 3.5,0 c 0.1875,0 0.1875,0 0.25,-0.140625 0.0625,-0.1875 0.59375,-1.53125 0.59375,-1.59375 0,-0.015625 -0.015625,-0.09375 -0.125,-0.09375 -0.078125,0 -0.09375,0.03125 -0.140625,0.140625 C 4.5,-1.03125 4.1875,-0.25 2.921875,-0.25 l -0.796875,0 c -0.203125,0 -0.21875,-0.015625 -0.21875,-0.078125 0,0 0,-0.03125 0.03125,-0.140625 z m 0,0"
           style="stroke:none;stroke-width:0"
           inkscape:connector-curvature="0" />
      </g>
      <g
         id="g7122"
         style="fill:#000000;fill-opacity:1">
        <path
           id="path7124"
           transform="translate(194.962,128.012)"
           d="m 2.9375,-0.96875 -0.21875,0 c 0,0.09375 -0.0625,0.40625 -0.140625,0.453125 -0.03125,0.03125 -0.453125,0.03125 -0.53125,0.03125 l -0.96875,0 C 1.40625,-0.71875 1.765625,-1 2.0625,-1.203125 c 0.453125,-0.3125 0.875,-0.59375 0.875,-1.125 0,-0.640625 -0.609375,-0.984375 -1.3125,-0.984375 -0.671875,0 -1.171875,0.375 -1.171875,0.875 0,0.25 0.21875,0.296875 0.296875,0.296875 0.125,0 0.28125,-0.09375 0.28125,-0.296875 0,-0.171875 -0.125,-0.28125 -0.28125,-0.28125 0.140625,-0.234375 0.4375,-0.375 0.765625,-0.375 0.484375,0 0.890625,0.28125 0.890625,0.765625 0,0.421875 -0.296875,0.75 -0.671875,1.0625 l -1.21875,1.03125 C 0.46875,-0.1875 0.453125,-0.1875 0.453125,-0.15625 l 0,0.15625 2.3125,0 z m 0,0"
           style="stroke:none;stroke-width:0"
           inkscape:connector-curvature="0" />
      </g>
      <path
         id="path7126"
         transform="matrix(1,0,0,-1,149.908,133.36)"
         d="m -0.00175,6.25e-4 48.945312,0"
         style="fill:none;stroke:#000000;stroke-width:0.398;stroke-linecap:butt;stroke-linejoin:miter;stroke-miterlimit:10;stroke-opacity:1"
         inkscape:connector-curvature="0" />
      <g
         id="g7128"
         style="fill:#000000;fill-opacity:1">
        <path
           id="path7130"
           transform="translate(170.408,139.286)"
           d="m 1.046875,-2.28125 c 0,-0.5625 0.046875,-1.078125 0.3125,-1.515625 0.234375,-0.375 0.609375,-0.625 1.0625,-0.625 0.203125,0 0.484375,0.046875 0.625,0.234375 C 2.875,-4.171875 2.71875,-4.046875 2.71875,-3.84375 c 0,0.171875 0.125,0.328125 0.328125,0.328125 0.21875,0 0.34375,-0.140625 0.34375,-0.34375 0,-0.40625 -0.296875,-0.765625 -0.984375,-0.765625 -1,0 -2.03125,0.921875 -2.03125,2.421875 0,1.796875 0.84375,2.34375 1.625,2.34375 0.84375,0 1.578125,-0.65625 1.578125,-1.5625 0,-0.890625 -0.703125,-1.546875 -1.515625,-1.546875 -0.5625,0 -0.859375,0.375 -1.015625,0.6875 z M 2,-0.078125 c -0.359375,0 -0.625,-0.203125 -0.78125,-0.515625 C 1.125,-0.796875 1.0625,-1.15625 1.0625,-1.5625 c 0,-0.6875 0.40625,-1.203125 0.96875,-1.203125 0.3125,0 0.53125,0.125 0.703125,0.375 0.171875,0.265625 0.171875,0.5625 0.171875,0.96875 0,0.390625 0,0.6875 -0.1875,0.96875 -0.15625,0.234375 -0.390625,0.375 -0.71875,0.375 z m 0,0"
           style="stroke:none;stroke-width:0"
           inkscape:connector-curvature="0" />
        <path
           id="path7132"
           transform="translate(174.37958,139.286)"
           d="M 3.59375,-2.21875 C 3.59375,-2.984375 3.5,-3.546875 3.1875,-4.03125 2.96875,-4.34375 2.53125,-4.625 1.984375,-4.625 c -1.625,0 -1.625,1.90625 -1.625,2.40625 0,0.5 0,2.359375 1.625,2.359375 1.609375,0 1.609375,-1.859375 1.609375,-2.359375 z M 1.984375,-0.0625 c -0.328125,0 -0.75,-0.1875 -0.890625,-0.75 C 1,-1.21875 1,-1.796875 1,-2.3125 1,-2.828125 1,-3.359375 1.09375,-3.734375 1.25,-4.28125 1.6875,-4.4375 1.984375,-4.4375 c 0.375,0 0.734375,0.234375 0.859375,0.640625 0.109375,0.375 0.125,0.875 0.125,1.484375 0,0.515625 0,1.03125 -0.09375,1.46875 -0.140625,0.640625 -0.609375,0.78125 -0.890625,0.78125 z m 0,0"
           style="stroke:none;stroke-width:0"
           inkscape:connector-curvature="0" />
      </g>
    </g>
  </g>
</svg>
