<?xml version="1.0" encoding="UTF-8" standalone="no"?>
<!-- Created with matplotlib (https://matplotlib.org/) -->

<svg
   xmlns:dc="http://purl.org/dc/elements/1.1/"
   xmlns:cc="http://creativecommons.org/ns#"
   xmlns:rdf="http://www.w3.org/1999/02/22-rdf-syntax-ns#"
   xmlns:svg="http://www.w3.org/2000/svg"
   xmlns="http://www.w3.org/2000/svg"
   xmlns:xlink="http://www.w3.org/1999/xlink"
   xmlns:sodipodi="http://sodipodi.sourceforge.net/DTD/sodipodi-0.dtd"
   xmlns:inkscape="http://www.inkscape.org/namespaces/inkscape"
   height="96.565689pt"
   version="1.1"
   viewBox="0 0 461.84199 96.565688"
   width="461.84198pt"
   id="svg2"
   inkscape:version="0.92.4 (5da689c313, 2019-01-14)"
   sodipodi:docname="barra_seccion_constante.svg">
  <metadata
     id="metadata339">
    <rdf:RDF>
      <cc:Work
         rdf:about="">
        <dc:format>image/svg+xml</dc:format>
        <dc:type
           rdf:resource="http://purl.org/dc/dcmitype/StillImage" />
        <dc:title></dc:title>
      </cc:Work>
    </rdf:RDF>
  </metadata>
  <sodipodi:namedview
     pagecolor="#ffffff"
     bordercolor="#666666"
     borderopacity="1"
     objecttolerance="10"
     gridtolerance="10"
     guidetolerance="10"
     inkscape:pageopacity="0"
     inkscape:pageshadow="2"
     inkscape:window-width="1920"
     inkscape:window-height="1051"
     id="namedview337"
     showgrid="true"
     fit-margin-top="0"
     fit-margin-left="0"
     fit-margin-right="0"
     fit-margin-bottom="0"
     inkscape:zoom="1.7383513"
     inkscape:cx="295.83593"
     inkscape:cy="55.080832"
     inkscape:window-x="0"
     inkscape:window-y="0"
     inkscape:window-maximized="1"
     inkscape:current-layer="svg2">
    <inkscape:grid
       type="xygrid"
       id="grid3535"
       originx="-67.745524"
       originy="-0.59323727" />
  </sodipodi:namedview>
  <defs
     id="defs4"
     style="stroke-linecap:butt;stroke-linejoin:round">
    <marker
       inkscape:stockid="Arrow2Mend"
       orient="auto"
       refY="0"
       refX="0"
       id="Arrow2Mend"
       style="overflow:visible"
       inkscape:isstock="true">
      <path
         id="path4682"
         style="fill:#000000;fill-opacity:1;fill-rule:evenodd;stroke:#000000;stroke-width:0.625;stroke-linejoin:round;stroke-opacity:1"
         d="M 8.7185878,4.0337352 -2.2072895,0.01601326 8.7185884,-4.0017078 c -1.7454984,2.3720609 -1.7354408,5.6174519 -6e-7,8.035443 z"
         transform="scale(-0.6)"
         inkscape:connector-curvature="0" />
    </marker>
    <style
       type="text/css"
       id="style6">
*{stroke-linecap:butt;stroke-linejoin:round;}
  </style>
    <defs
       id="defs188">
      <path
         d="m 9.8125,72.90625 h 46.09375 v -8.3125 H 19.671875 V 43.015625 h 34.71875 V 34.71875 H 19.671875 V 8.296875 H 56.78125 V 0 H 9.8125 Z"
         id="DejaVuSans-69"
         inkscape:connector-curvature="0"
         style="stroke-linecap:butt;stroke-linejoin:round" />
      <path
         d="M 9.421875,54.6875 H 18.40625 V -0.984375 q 0,-10.4375 -3.984375,-15.125 -3.96875,-4.6875 -12.8125,-4.6875 H -1.8125 v 7.609375 h 2.40625 q 5.125,0 6.96875,2.375 1.859375,2.359375 1.859375,9.828125 z m 0,21.296875 H 18.40625 V 64.59375 H 9.421875 Z"
         id="DejaVuSans-106"
         inkscape:connector-curvature="0"
         style="stroke-linecap:butt;stroke-linejoin:round" />
      <path
         d="m 56.203125,29.59375 v -4.390625 h -41.3125 q 0.59375,-9.28125 5.59375,-14.140625 5,-4.859375 13.9375,-4.859375 5.171875,0 10.03125,1.265625 4.859375,1.265625 9.65625,3.8125 v -8.5 q -4.84375,-2.046875 -9.921875,-3.125 -5.078125,-1.078125 -10.296875,-1.078125 -13.09375,0 -20.734375,7.609375 -7.640625,7.625 -7.640625,20.625 0,13.421875 7.25,21.296875 Q 20.015625,56 32.328125,56 q 11.03125,0 17.453125,-7.109375 6.421875,-7.09375 6.421875,-19.296875 z m -8.984375,2.640625 q -0.09375,7.359375 -4.125,11.75 -4.03125,4.40625 -10.671875,4.40625 -7.515625,0 -12.03125,-4.25 -4.515625,-4.25 -5.203125,-11.96875 z"
         id="DejaVuSans-101"
         inkscape:connector-curvature="0"
         style="stroke-linecap:butt;stroke-linejoin:round" />
      <path
         id="DejaVuSans-32"
         d=""
         inkscape:connector-curvature="0"
         style="stroke-linecap:butt;stroke-linejoin:round" />
      <path
         d="m 6.296875,72.90625 h 10.59375 L 35.015625,45.796875 53.21875,72.90625 H 63.8125 L 40.375,37.890625 65.375,0 H 54.78125 l -20.5,31 L 13.625,0 H 2.984375 L 29,38.921875 Z"
         id="DejaVuSans-88"
         inkscape:connector-curvature="0"
         style="stroke-linecap:butt;stroke-linejoin:round" />
      <path
         d="M 8.59375,75.984375 H 29.296875 V 69 H 17.578125 V -6.203125 h 11.71875 V -13.1875 H 8.59375 Z"
         id="DejaVuSans-91"
         inkscape:connector-curvature="0"
         style="stroke-linecap:butt;stroke-linejoin:round" />
      <path
         d="M 52,44.1875 Q 55.375,50.25 60.0625,53.125 64.75,56 71.09375,56 q 8.546875,0 13.1875,-5.984375 4.640625,-5.96875 4.640625,-17 V 0 h -9.03125 v 32.71875 q 0,7.859375 -2.796875,11.65625 -2.78125,3.8125 -8.484375,3.8125 -6.984375,0 -11.046875,-4.640625 -4.046875,-4.625 -4.046875,-12.640625 V 0 h -9.03125 v 32.71875 q 0,7.90625 -2.78125,11.6875 -2.78125,3.78125 -8.59375,3.78125 -6.890625,0 -10.953125,-4.65625 -4.046875,-4.65625 -4.046875,-12.625 V 0 h -9.03125 v 54.6875 h 9.03125 v -8.5 q 3.078125,5.03125 7.375,7.421875 Q 29.78125,56 35.6875,56 41.65625,56 45.828125,52.96875 50,49.953125 52,44.1875 Z"
         id="DejaVuSans-109"
         inkscape:connector-curvature="0"
         style="stroke-linecap:butt;stroke-linejoin:round" />
      <path
         d="M 30.421875,75.984375 V -13.1875 H 9.71875 v 6.984375 H 21.390625 V 69 H 9.71875 v 6.984375 z"
         id="DejaVuSans-93"
         inkscape:connector-curvature="0"
         style="stroke-linecap:butt;stroke-linejoin:round" />
    </defs>
    <defs
       id="defs273">
      <path
         d="M -0.203125,72.90625 H 10.40625 L 30.609375,42.921875 50.6875,72.90625 H 61.28125 L 35.5,34.71875 V 0 h -9.90625 v 34.71875 z"
         id="DejaVuSans-89"
         inkscape:connector-curvature="0"
         style="stroke-linecap:butt;stroke-linejoin:round" />
    </defs>
    <defs
       id="defs229">
      <path
         style="stroke-linecap:butt;stroke-linejoin:round"
         inkscape:connector-curvature="0"
         id="DejaVuSans-8722"
         d="M 10.59375,35.5 H 73.1875 V 27.203125 H 10.59375 Z" />
    </defs>
    <defs
       id="defs221">
      <path
         inkscape:connector-curvature="0"
         style="stroke:#000000;stroke-width:0.80000001;stroke-linecap:butt;stroke-linejoin:round"
         id="me8d03bfc3d"
         d="M 0,0 H -3.5" />
    </defs>
    <defs
       id="defs27">
      <path
         style="stroke-linecap:butt;stroke-linejoin:round"
         inkscape:connector-curvature="0"
         id="DejaVuSans-48"
         d="m 31.78125,66.40625 q -7.609375,0 -11.453125,-7.5 Q 16.5,51.421875 16.5,36.375 q 0,-14.984375 3.828125,-22.484375 3.84375,-7.5 11.453125,-7.5 7.671875,0 11.5,7.5 3.84375,7.5 3.84375,22.484375 0,15.046875 -3.84375,22.53125 -3.828125,7.5 -11.5,7.5 z m 0,7.8125 q 12.265625,0 18.734375,-9.703125 6.46875,-9.6875 6.46875,-28.140625 0,-18.40625 -6.46875,-28.109375 -6.46875,-9.6875 -18.734375,-9.6875 -12.25,0 -18.71875,9.6875 Q 6.59375,17.96875 6.59375,36.375 q 0,18.453125 6.46875,28.140625 6.46875,9.703125 18.71875,9.703125 z" />
      <path
         style="stroke-linecap:butt;stroke-linejoin:round"
         inkscape:connector-curvature="0"
         id="DejaVuSans-46"
         d="M 10.6875,12.40625 H 21 V 0 H 10.6875 Z" />
    </defs>
    <defs
       id="defs19">
      <path
         inkscape:connector-curvature="0"
         style="stroke:#000000;stroke-width:0.80000001;stroke-linecap:butt;stroke-linejoin:round"
         id="m329f9b8506"
         d="M 0,0 V 3.5" />
    </defs>
    <defs
       id="defs48">
      <path
         style="stroke-linecap:butt;stroke-linejoin:round"
         inkscape:connector-curvature="0"
         id="DejaVuSans-50"
         d="M 19.1875,8.296875 H 53.609375 V 0 H 7.328125 v 8.296875 q 5.609375,5.8125 15.296875,15.59375 9.703125,9.796875 12.1875,12.640625 4.734375,5.3125 6.609375,9 1.890625,3.6875 1.890625,7.25 0,5.8125 -4.078125,9.46875 -4.078125,3.671875 -10.625,3.671875 -4.640625,0 -9.796875,-1.609375 -5.140625,-1.609375 -11,-4.890625 v 9.96875 Q 13.765625,71.78125 18.9375,73 q 5.1875,1.21875 9.484375,1.21875 11.328125,0 18.0625,-5.671875 6.734375,-5.65625 6.734375,-15.125 0,-4.5 -1.6875,-8.53125 Q 49.859375,40.875 45.40625,35.40625 44.1875,33.984375 37.640625,27.21875 31.109375,20.453125 19.1875,8.296875 Z" />
      <path
         style="stroke-linecap:butt;stroke-linejoin:round"
         inkscape:connector-curvature="0"
         id="DejaVuSans-53"
         d="m 10.796875,72.90625 h 38.71875 v -8.3125 h -29.6875 V 46.734375 q 2.140625,0.734375 4.28125,1.09375 2.15625,0.359375 4.3125,0.359375 Q 40.625,48.1875 47.75,41.5 54.890625,34.8125 54.890625,23.390625 54.890625,11.625 47.5625,5.09375 40.234375,-1.421875 26.90625,-1.421875 q -4.59375,0 -9.359375,0.78125 -4.75,0.78125 -9.828125,2.34375 V 11.625 q 4.390625,-2.390625 9.078125,-3.5625 4.6875,-1.171875 9.90625,-1.171875 8.453125,0 13.375,4.4375 4.9375,4.4375 4.9375,12.0625 0,7.609375 -4.9375,12.046875 -4.921875,4.453125 -13.375,4.453125 -3.953125,0 -7.890625,-0.875 -3.921875,-0.875 -8.015625,-2.734375 z" />
    </defs>
    <defs
       id="defs86">
      <path
         style="stroke-linecap:butt;stroke-linejoin:round"
         inkscape:connector-curvature="0"
         id="DejaVuSans-55"
         d="m 8.203125,72.90625 h 46.875 V 68.703125 L 28.609375,0 H 18.3125 L 43.21875,64.59375 H 8.203125 Z" />
    </defs>
    <defs
       id="defs106">
      <path
         style="stroke-linecap:butt;stroke-linejoin:round"
         inkscape:connector-curvature="0"
         id="DejaVuSans-49"
         d="m 12.40625,8.296875 h 16.109375 v 55.625 L 10.984375,60.40625 v 8.984375 l 17.4375,3.515625 H 38.28125 V 8.296875 H 54.390625 V 0 H 12.40625 Z" />
    </defs>
  </defs>
  <use
     style="stroke:#000000;stroke-width:0.80000001;stroke-linecap:butt;stroke-linejoin:round"
     x="76.978561"
     xlink:href="#m329f9b8506"
     y="129.4416"
     id="use24"
     width="100%"
     height="100%"
     transform="translate(-66.505122,-63.232165)" />
  <use
     xlink:href="#DejaVuSans-48"
     id="use33"
     style="stroke-linecap:butt;stroke-linejoin:round"
     x="0"
     y="0"
     width="100%"
     height="100%"
     transform="matrix(0.1,0,0,-0.1,-0.659375,80.807879)" />
  <use
     x="63.623047"
     xlink:href="#DejaVuSans-46"
     id="use35"
     style="stroke-linecap:butt;stroke-linejoin:round"
     y="0"
     width="100%"
     height="100%"
     transform="matrix(0.1,0,0,-0.1,-0.659375,80.807879)" />
  <use
     x="95.410156"
     xlink:href="#DejaVuSans-48"
     id="use37"
     style="stroke-linecap:butt;stroke-linejoin:round"
     y="0"
     width="100%"
     height="100%"
     transform="matrix(0.1,0,0,-0.1,-0.659375,80.807879)" />
  <use
     x="159.0332"
     xlink:href="#DejaVuSans-48"
     id="use39"
     style="stroke-linecap:butt;stroke-linejoin:round"
     y="0"
     width="100%"
     height="100%"
     transform="matrix(0.1,0,0,-0.1,-0.659375,80.807879)" />
  <use
     style="stroke:#000000;stroke-width:0.80000001;stroke-linecap:butt;stroke-linejoin:round"
     x="126.36792"
     xlink:href="#m329f9b8506"
     y="129.4416"
     id="use45"
     width="100%"
     height="100%"
     transform="translate(-66.505122,-63.232165)" />
  <use
     xlink:href="#DejaVuSans-48"
     id="use54"
     style="stroke-linecap:butt;stroke-linejoin:round"
     x="0"
     y="0"
     width="100%"
     height="100%"
     transform="matrix(0.1,0,0,-0.1,48.729989,80.807879)" />
  <use
     x="63.623047"
     xlink:href="#DejaVuSans-46"
     id="use56"
     style="stroke-linecap:butt;stroke-linejoin:round"
     y="0"
     width="100%"
     height="100%"
     transform="matrix(0.1,0,0,-0.1,48.729989,80.807879)" />
  <use
     x="95.410156"
     xlink:href="#DejaVuSans-50"
     id="use58"
     style="stroke-linecap:butt;stroke-linejoin:round"
     y="0"
     width="100%"
     height="100%"
     transform="matrix(0.1,0,0,-0.1,48.729989,80.807879)" />
  <use
     x="159.0332"
     xlink:href="#DejaVuSans-53"
     id="use60"
     style="stroke-linecap:butt;stroke-linejoin:round"
     y="0"
     width="100%"
     height="100%"
     transform="matrix(0.1,0,0,-0.1,48.729989,80.807879)" />
  <use
     style="stroke:#000000;stroke-width:0.80000001;stroke-linecap:butt;stroke-linejoin:round"
     x="175.75728"
     xlink:href="#m329f9b8506"
     y="129.4416"
     id="use66"
     width="100%"
     height="100%"
     transform="translate(-66.505122,-63.232165)" />
  <use
     xlink:href="#DejaVuSans-48"
     id="use71"
     style="stroke-linecap:butt;stroke-linejoin:round"
     x="0"
     y="0"
     width="100%"
     height="100%"
     transform="matrix(0.1,0,0,-0.1,98.119349,80.807879)" />
  <use
     x="63.623047"
     xlink:href="#DejaVuSans-46"
     id="use73"
     style="stroke-linecap:butt;stroke-linejoin:round"
     y="0"
     width="100%"
     height="100%"
     transform="matrix(0.1,0,0,-0.1,98.119349,80.807879)" />
  <use
     x="95.410156"
     xlink:href="#DejaVuSans-53"
     id="use75"
     style="stroke-linecap:butt;stroke-linejoin:round"
     y="0"
     width="100%"
     height="100%"
     transform="matrix(0.1,0,0,-0.1,98.119349,80.807879)" />
  <use
     x="159.0332"
     xlink:href="#DejaVuSans-48"
     id="use77"
     style="stroke-linecap:butt;stroke-linejoin:round"
     y="0"
     width="100%"
     height="100%"
     transform="matrix(0.1,0,0,-0.1,98.119349,80.807879)" />
  <use
     style="stroke:#000000;stroke-width:0.80000001;stroke-linecap:butt;stroke-linejoin:round"
     x="225.14664"
     xlink:href="#m329f9b8506"
     y="129.4416"
     id="use83"
     width="100%"
     height="100%"
     transform="translate(-66.505122,-63.232165)" />
  <use
     xlink:href="#DejaVuSans-48"
     id="use91"
     style="stroke-linecap:butt;stroke-linejoin:round"
     x="0"
     y="0"
     width="100%"
     height="100%"
     transform="matrix(0.1,0,0,-0.1,147.50871,80.807879)" />
  <use
     x="63.623047"
     xlink:href="#DejaVuSans-46"
     id="use93"
     style="stroke-linecap:butt;stroke-linejoin:round"
     y="0"
     width="100%"
     height="100%"
     transform="matrix(0.1,0,0,-0.1,147.50871,80.807879)" />
  <use
     x="95.410156"
     xlink:href="#DejaVuSans-55"
     id="use95"
     style="stroke-linecap:butt;stroke-linejoin:round"
     y="0"
     width="100%"
     height="100%"
     transform="matrix(0.1,0,0,-0.1,147.50871,80.807879)" />
  <use
     x="159.0332"
     xlink:href="#DejaVuSans-53"
     id="use97"
     style="stroke-linecap:butt;stroke-linejoin:round"
     y="0"
     width="100%"
     height="100%"
     transform="matrix(0.1,0,0,-0.1,147.50871,80.807879)" />
  <use
     style="stroke:#000000;stroke-width:0.80000001;stroke-linecap:butt;stroke-linejoin:round"
     x="274.53601"
     xlink:href="#m329f9b8506"
     y="129.4416"
     id="use103"
     width="100%"
     height="100%"
     transform="translate(-66.505122,-63.232165)" />
  <use
     xlink:href="#DejaVuSans-49"
     id="use111"
     style="stroke-linecap:butt;stroke-linejoin:round"
     x="0"
     y="0"
     width="100%"
     height="100%"
     transform="matrix(0.1,0,0,-0.1,196.89807,80.807879)" />
  <use
     x="63.623047"
     xlink:href="#DejaVuSans-46"
     id="use113"
     style="stroke-linecap:butt;stroke-linejoin:round"
     y="0"
     width="100%"
     height="100%"
     transform="matrix(0.1,0,0,-0.1,196.89807,80.807879)" />
  <use
     x="95.410156"
     xlink:href="#DejaVuSans-48"
     id="use115"
     style="stroke-linecap:butt;stroke-linejoin:round"
     y="0"
     width="100%"
     height="100%"
     transform="matrix(0.1,0,0,-0.1,196.89807,80.807879)" />
  <use
     x="159.0332"
     xlink:href="#DejaVuSans-48"
     id="use117"
     style="stroke-linecap:butt;stroke-linejoin:round"
     y="0"
     width="100%"
     height="100%"
     transform="matrix(0.1,0,0,-0.1,196.89807,80.807879)" />
  <use
     style="stroke:#000000;stroke-width:0.80000001;stroke-linecap:butt;stroke-linejoin:round"
     x="323.92535"
     xlink:href="#m329f9b8506"
     y="129.4416"
     id="use123"
     width="100%"
     height="100%"
     transform="translate(-66.505122,-63.232165)" />
  <use
     xlink:href="#DejaVuSans-49"
     id="use128"
     style="stroke-linecap:butt;stroke-linejoin:round"
     x="0"
     y="0"
     width="100%"
     height="100%"
     transform="matrix(0.1,0,0,-0.1,246.28743,80.807879)" />
  <use
     x="63.623047"
     xlink:href="#DejaVuSans-46"
     id="use130"
     style="stroke-linecap:butt;stroke-linejoin:round"
     y="0"
     width="100%"
     height="100%"
     transform="matrix(0.1,0,0,-0.1,246.28743,80.807879)" />
  <use
     x="95.410156"
     xlink:href="#DejaVuSans-50"
     id="use132"
     style="stroke-linecap:butt;stroke-linejoin:round"
     y="0"
     width="100%"
     height="100%"
     transform="matrix(0.1,0,0,-0.1,246.28743,80.807879)" />
  <use
     x="159.0332"
     xlink:href="#DejaVuSans-53"
     id="use134"
     style="stroke-linecap:butt;stroke-linejoin:round"
     y="0"
     width="100%"
     height="100%"
     transform="matrix(0.1,0,0,-0.1,246.28743,80.807879)" />
  <use
     style="stroke:#000000;stroke-width:0.80000001;stroke-linecap:butt;stroke-linejoin:round"
     x="373.31473"
     xlink:href="#m329f9b8506"
     y="129.4416"
     id="use140"
     width="100%"
     height="100%"
     transform="translate(-66.505122,-63.232165)" />
  <use
     xlink:href="#DejaVuSans-49"
     id="use145"
     style="stroke-linecap:butt;stroke-linejoin:round"
     x="0"
     y="0"
     width="100%"
     height="100%"
     transform="matrix(0.1,0,0,-0.1,295.67679,80.807879)" />
  <use
     x="63.623047"
     xlink:href="#DejaVuSans-46"
     id="use147"
     style="stroke-linecap:butt;stroke-linejoin:round"
     y="0"
     width="100%"
     height="100%"
     transform="matrix(0.1,0,0,-0.1,295.67679,80.807879)" />
  <use
     x="95.410156"
     xlink:href="#DejaVuSans-53"
     id="use149"
     style="stroke-linecap:butt;stroke-linejoin:round"
     y="0"
     width="100%"
     height="100%"
     transform="matrix(0.1,0,0,-0.1,295.67679,80.807879)" />
  <use
     x="159.0332"
     xlink:href="#DejaVuSans-48"
     id="use151"
     style="stroke-linecap:butt;stroke-linejoin:round"
     y="0"
     width="100%"
     height="100%"
     transform="matrix(0.1,0,0,-0.1,295.67679,80.807879)" />
  <use
     style="stroke:#000000;stroke-width:0.80000001;stroke-linecap:butt;stroke-linejoin:round"
     x="422.70407"
     xlink:href="#m329f9b8506"
     y="129.4416"
     id="use157"
     width="100%"
     height="100%"
     transform="translate(-66.505122,-63.232165)" />
  <use
     xlink:href="#DejaVuSans-49"
     id="use162"
     style="stroke-linecap:butt;stroke-linejoin:round"
     x="0"
     y="0"
     width="100%"
     height="100%"
     transform="matrix(0.1,0,0,-0.1,345.06615,80.807879)" />
  <use
     x="63.623047"
     xlink:href="#DejaVuSans-46"
     id="use164"
     style="stroke-linecap:butt;stroke-linejoin:round"
     y="0"
     width="100%"
     height="100%"
     transform="matrix(0.1,0,0,-0.1,345.06615,80.807879)" />
  <use
     x="95.410156"
     xlink:href="#DejaVuSans-55"
     id="use166"
     style="stroke-linecap:butt;stroke-linejoin:round"
     y="0"
     width="100%"
     height="100%"
     transform="matrix(0.1,0,0,-0.1,345.06615,80.807879)" />
  <use
     x="159.0332"
     xlink:href="#DejaVuSans-53"
     id="use168"
     style="stroke-linecap:butt;stroke-linejoin:round"
     y="0"
     width="100%"
     height="100%"
     transform="matrix(0.1,0,0,-0.1,345.06615,80.807879)" />
  <use
     style="stroke:#000000;stroke-width:0.80000001;stroke-linecap:butt;stroke-linejoin:round"
     x="472.09344"
     xlink:href="#m329f9b8506"
     y="129.4416"
     id="use174"
     width="100%"
     height="100%"
     transform="translate(-66.505122,-63.232165)" />
  <use
     xlink:href="#DejaVuSans-50"
     id="use179"
     style="stroke-linecap:butt;stroke-linejoin:round"
     x="0"
     y="0"
     width="100%"
     height="100%"
     transform="matrix(0.1,0,0,-0.1,394.45551,80.807879)" />
  <use
     x="63.623047"
     xlink:href="#DejaVuSans-46"
     id="use181"
     style="stroke-linecap:butt;stroke-linejoin:round"
     y="0"
     width="100%"
     height="100%"
     transform="matrix(0.1,0,0,-0.1,394.45551,80.807879)" />
  <use
     x="95.410156"
     xlink:href="#DejaVuSans-48"
     id="use183"
     style="stroke-linecap:butt;stroke-linejoin:round"
     y="0"
     width="100%"
     height="100%"
     transform="matrix(0.1,0,0,-0.1,394.45551,80.807879)" />
  <use
     x="159.0332"
     xlink:href="#DejaVuSans-48"
     id="use185"
     style="stroke-linecap:butt;stroke-linejoin:round"
     y="0"
     width="100%"
     height="100%"
     transform="matrix(0.1,0,0,-0.1,394.45551,80.807879)" />
  <use
     height="100%"
     width="100%"
     y="0"
     x="0"
     style="stroke-linecap:butt;stroke-linejoin:round"
     id="use200"
     xlink:href="#DejaVuSans-69"
     transform="matrix(0.1,0,0,-0.1,185.03088,94.485999)" />
  <use
     height="100%"
     width="100%"
     y="0"
     style="stroke-linecap:butt;stroke-linejoin:round"
     id="use202"
     xlink:href="#DejaVuSans-106"
     x="63.183594"
     transform="matrix(0.1,0,0,-0.1,185.03088,94.485999)" />
  <use
     height="100%"
     width="100%"
     y="0"
     style="stroke-linecap:butt;stroke-linejoin:round"
     id="use204"
     xlink:href="#DejaVuSans-101"
     x="90.966797"
     transform="matrix(0.1,0,0,-0.1,185.03088,94.485999)" />
  <use
     height="100%"
     width="100%"
     y="0"
     style="stroke-linecap:butt;stroke-linejoin:round"
     id="use206"
     xlink:href="#DejaVuSans-32"
     x="152.49023"
     transform="matrix(0.1,0,0,-0.1,185.03088,94.485999)" />
  <use
     height="100%"
     width="100%"
     y="0"
     style="stroke-linecap:butt;stroke-linejoin:round"
     id="use208"
     xlink:href="#DejaVuSans-88"
     x="184.27734"
     transform="matrix(0.1,0,0,-0.1,185.03088,94.485999)" />
  <use
     height="100%"
     width="100%"
     y="0"
     style="stroke-linecap:butt;stroke-linejoin:round"
     id="use210"
     xlink:href="#DejaVuSans-32"
     x="252.7832"
     transform="matrix(0.1,0,0,-0.1,185.03088,94.485999)" />
  <use
     height="100%"
     width="100%"
     y="0"
     style="stroke-linecap:butt;stroke-linejoin:round"
     id="use212"
     xlink:href="#DejaVuSans-91"
     x="284.57031"
     transform="matrix(0.1,0,0,-0.1,185.03088,94.485999)" />
  <use
     height="100%"
     width="100%"
     y="0"
     style="stroke-linecap:butt;stroke-linejoin:round"
     id="use214"
     xlink:href="#DejaVuSans-109"
     x="323.58398"
     transform="matrix(0.1,0,0,-0.1,185.03088,94.485999)" />
  <use
     height="100%"
     width="100%"
     y="0"
     style="stroke-linecap:butt;stroke-linejoin:round"
     id="use216"
     xlink:href="#DejaVuSans-93"
     x="420.99609"
     transform="matrix(0.1,0,0,-0.1,185.03088,94.485999)" />
  <use
     height="100%"
     width="100%"
     y="0"
     style="stroke-linecap:butt;stroke-linejoin:round"
     id="use284"
     xlink:href="#DejaVuSans-32"
     x="152.49023"
     transform="matrix(0,-0.1,-0.1,0,-36.907622,32.84394)" />
  <use
     height="100%"
     width="100%"
     y="0"
     style="stroke-linecap:butt;stroke-linejoin:round"
     id="use288"
     xlink:href="#DejaVuSans-32"
     x="245.36133"
     transform="matrix(0,-0.1,-0.1,0,-36.907622,32.84394)" />
  <path
     inkscape:connector-curvature="0"
     id="path327"
     style="fill:none;stroke:#000000;stroke-width:0.80000001;stroke-linecap:square;stroke-linejoin:miter"
     d="M 0.454878,66.209439 H 415.60688" />
  <g
     id="g950"
     style="stroke-linecap:butt;stroke-linejoin:round"
     transform="translate(-67.745521,-62.638931)">
    <path
       style="fill:#ff0000;fill-rule:evenodd;stroke:#ff0000;stroke-width:1.60000002;stroke-linecap:butt;stroke-linejoin:miter;stroke-miterlimit:4;stroke-dasharray:none;stroke-opacity:1"
       d="m 473.2404,63.204616 c 0,19.999997 0,19.999997 0,19.999997"
       id="path3808"
       inkscape:connector-curvature="0" />
    <path
       style="fill:#ff0000;fill-rule:evenodd;stroke:#ff0000;stroke-width:1.60000002;stroke-linecap:butt;stroke-linejoin:miter;stroke-miterlimit:4;stroke-dasharray:none;stroke-opacity:1"
       d="m 473.2404,67.204616 c 4,-4 4,-4 4,-4"
       id="path3810"
       inkscape:connector-curvature="0" />
    <path
       style="fill:#ff0000;fill-rule:evenodd;stroke:#ff0000;stroke-width:1.60000002;stroke-linecap:butt;stroke-linejoin:miter;stroke-miterlimit:4;stroke-dasharray:none;stroke-opacity:1"
       d="m 473.2404,71.204616 c 4,-4 4,-4 4,-4"
       id="path3812"
       inkscape:connector-curvature="0" />
    <path
       style="fill:#ff0000;fill-rule:evenodd;stroke:#ff0000;stroke-width:1.60000002;stroke-linecap:butt;stroke-linejoin:miter;stroke-miterlimit:4;stroke-dasharray:none;stroke-opacity:1"
       d="m 473.2404,75.204616 c 4,-4 4,-4 4,-4"
       id="path3814"
       inkscape:connector-curvature="0" />
    <path
       style="fill:#ff0000;fill-rule:evenodd;stroke:#ff0000;stroke-width:1.60000002;stroke-linecap:butt;stroke-linejoin:miter;stroke-miterlimit:4;stroke-dasharray:none;stroke-opacity:1"
       d="m 473.2404,79.204616 c 4,-4 4,-4 4,-4"
       id="path3816"
       inkscape:connector-curvature="0" />
    <path
       style="fill:#ff0000;fill-rule:evenodd;stroke:#ff0000;stroke-width:1.60000002;stroke-linecap:butt;stroke-linejoin:miter;stroke-miterlimit:4;stroke-dasharray:none;stroke-opacity:1"
       d="m 473.2404,83.204613 c 4,-3.999997 4,-3.999997 4,-3.999997"
       id="path3818"
       inkscape:connector-curvature="0" />
  </g>
  <path
     style="fill:none;stroke:#000000;stroke-width:0.74858356px;stroke-linecap:butt;stroke-linejoin:miter;stroke-opacity:1"
     d="M 8.75448,3.4089218 H 404.75449"
     id="path232"
     inkscape:connector-curvature="0" />
  <defs
     id="defs332">
    <clipPath
       id="pd5cdb0d1b3"
       style="stroke-linecap:butt;stroke-linejoin:round">
      <rect
         height="111.9888"
         width="415.15201"
         x="66.959999"
         y="17.452801"
         id="rect335"
         style="stroke-linecap:butt;stroke-linejoin:round" />
    </clipPath>
  </defs>
  <path
     style="fill:none;stroke:#000000;stroke-width:0.74858356px;stroke-linecap:butt;stroke-linejoin:miter;stroke-opacity:1"
     d="m 8.75448,18.40892 c 396.00001,0 396.00001,0 396.00001,0"
     id="path230"
     inkscape:connector-curvature="0" />
  <path
     style="fill:none;fill-rule:evenodd;stroke:#000000;stroke-width:0.80000001px;stroke-linecap:butt;stroke-linejoin:miter;stroke-opacity:1;marker-end:url(#Arrow2Mend)"
     d="m 206.65448,10.758919 c 17.6,0 17.6,0 17.6,0"
     id="path4649"
     inkscape:connector-curvature="0" />
  <text
     xml:space="preserve"
     style="font-style:normal;font-weight:normal;line-height:0%;font-family:sans-serif;letter-spacing:0px;word-spacing:0px;fill:#000000;fill-opacity:1;stroke:none;stroke-width:1px;stroke-linecap:butt;stroke-linejoin:miter;stroke-opacity:1"
     x="227.92908"
     y="14.433503"
     id="text5213"><tspan
       sodipodi:role="line"
       id="tspan5215"
       style="font-size:10px;line-height:1.25;stroke-linecap:butt;stroke-linejoin:round"
       x="227.92908"
       y="14.433503">10 kN</tspan></text>
  <text
     xml:space="preserve"
     style="font-style:normal;font-weight:normal;font-size:12px;line-height:1.25;font-family:sans-serif;letter-spacing:0px;word-spacing:0px;fill:#000000;fill-opacity:1;stroke:none;stroke-width:0.75;stroke-linecap:butt;stroke-linejoin:round"
     x="363.1994"
     y="33.269073"
     id="text236"><tspan
       sodipodi:role="line"
       style="stroke-width:0.75;stroke-linecap:butt;stroke-linejoin:round"
       x="363.1994"
       y="33.269073"
       id="tspan238">El apoyo se movió</tspan><tspan
       sodipodi:role="line"
       style="stroke-width:0.75;stroke-linecap:butt;stroke-linejoin:round"
       x="363.1994"
       y="48.269073"
       id="tspan240">a la derecha 5 mm</tspan></text>
  <flowRoot
     xml:space="preserve"
     id="flowRoot242"
     style="font-style:normal;font-weight:normal;font-size:16px;line-height:1.25;font-family:sans-serif;letter-spacing:0px;word-spacing:0px;fill:#000000;fill-opacity:1;stroke:none;stroke-linecap:butt;stroke-linejoin:round"
     transform="matrix(0.75000001,0,0,0.75000001,-67.745521,-62.638931)"><flowRegion
       id="flowRegion244"
       style="stroke-linecap:butt;stroke-linejoin:round"><rect
         id="rect246"
         width="50"
         height="155"
         x="65"
         y="18.063803"
         style="stroke-linecap:butt;stroke-linejoin:round" /></flowRegion><flowPara
       id="flowPara248"
       style="stroke-linecap:butt;stroke-linejoin:round" /></flowRoot>  <g
     id="g964"
     transform="rotate(-180,241.00048,41.88515)"
     style="stroke-linecap:butt;stroke-linejoin:round">
    <path
       inkscape:connector-curvature="0"
       id="path952"
       d="m 473.2404,63.204616 c 0,19.999997 0,19.999997 0,19.999997"
       style="fill:#ff0000;fill-rule:evenodd;stroke:#ff0000;stroke-width:1.60000002;stroke-linecap:butt;stroke-linejoin:miter;stroke-miterlimit:4;stroke-dasharray:none;stroke-opacity:1" />
    <path
       inkscape:connector-curvature="0"
       id="path954"
       d="m 473.2404,67.204616 c 4,-4 4,-4 4,-4"
       style="fill:#ff0000;fill-rule:evenodd;stroke:#ff0000;stroke-width:1.60000002;stroke-linecap:butt;stroke-linejoin:miter;stroke-miterlimit:4;stroke-dasharray:none;stroke-opacity:1" />
    <path
       inkscape:connector-curvature="0"
       id="path956"
       d="m 473.2404,71.204616 c 4,-4 4,-4 4,-4"
       style="fill:#ff0000;fill-rule:evenodd;stroke:#ff0000;stroke-width:1.60000002;stroke-linecap:butt;stroke-linejoin:miter;stroke-miterlimit:4;stroke-dasharray:none;stroke-opacity:1" />
    <path
       inkscape:connector-curvature="0"
       id="path958"
       d="m 473.2404,75.204616 c 4,-4 4,-4 4,-4"
       style="fill:#ff0000;fill-rule:evenodd;stroke:#ff0000;stroke-width:1.60000002;stroke-linecap:butt;stroke-linejoin:miter;stroke-miterlimit:4;stroke-dasharray:none;stroke-opacity:1" />
    <path
       inkscape:connector-curvature="0"
       id="path960"
       d="m 473.2404,79.204616 c 4,-4 4,-4 4,-4"
       style="fill:#ff0000;fill-rule:evenodd;stroke:#ff0000;stroke-width:1.60000002;stroke-linecap:butt;stroke-linejoin:miter;stroke-miterlimit:4;stroke-dasharray:none;stroke-opacity:1" />
    <path
       inkscape:connector-curvature="0"
       id="path962"
       d="m 473.2404,83.204613 c 4,-3.999997 4,-3.999997 4,-3.999997"
       style="fill:#ff0000;fill-rule:evenodd;stroke:#ff0000;stroke-width:1.60000002;stroke-linecap:butt;stroke-linejoin:miter;stroke-miterlimit:4;stroke-dasharray:none;stroke-opacity:1" />
  </g>
  <text
     xml:space="preserve"
     style="font-style:normal;font-weight:normal;font-size:12px;line-height:1.25;font-family:sans-serif;letter-spacing:0px;word-spacing:0px;fill:#000000;fill-opacity:1;stroke:none;stroke-width:0.75;stroke-linecap:butt;stroke-linejoin:round"
     x="8.107316"
     y="33.40892"
     id="text968"><tspan
       sodipodi:role="line"
       id="tspan966"
       style="stroke-width:0.75;stroke-linecap:butt;stroke-linejoin:round"
       x="8.107316"
       y="33.40892">barra circular </tspan><tspan
       sodipodi:role="line"
       style="stroke-width:0.75;stroke-linecap:butt;stroke-linejoin:round"
       x="8.107316"
       y="48.40892"
       id="tspan970">de radio = 2 cm</tspan></text>
</svg>
