                                                                        S      1
,,,20Hsolido_finitos_26-11,22HAutoCAD 2019 - English,62HAutodesk TranslaG      1
tion Framework DWG producer (atf_dwg_producer),32,38,7,99,15,,1.,2,2HMM,G      2
1,0.08,15H20201126.224754,0.01,10000.,,7Hunknown,11,0,15H20201126.221501G      3
;                                                                       G      4
     186       1                       0                        00000000D      1
     186            -277       1       0                               0D      2
     514       2                                                00010000D      3
     514                       2       1                               0D      4
     510       4                                                00010000D      5
     510            -277       1       1                               0D      6
     510       5                                                00010000D      7
     510            -277       1       1                               0D      8
     510       6                                                00010000D      9
     510            -277       1       1                               0D     10
     510       7                                                00010000D     11
     510            -277       1       1                               0D     12
     510       8                                                00010000D     13
     510            -277       1       1                               0D     14
     510       9                                                00010000D     15
     510            -277       1       1                               0D     16
     510      10                                                00010000D     17
     510            -277       1       1                               0D     18
     510      11                                                00010000D     19
     510            -277       1       1                               0D     20
     510      12                                                00010000D     21
     510            -277       1       1                               0D     22
     510      13                                                00010000D     23
     510            -277       1       1                               0D     24
     510      14                                                00010000D     25
     510            -277       1       1                               0D     26
     510      15                                                00010000D     27
     510            -277       1       1                               0D     28
     510      16                                                00010000D     29
     510            -277       1       1                               0D     30
     510      17                                                00010000D     31
     510            -277       1       1                               0D     32
     510      18                                                00010000D     33
     510            -277       1       1                               0D     34
     510      19                                                00010000D     35
     510            -277       1       1                               0D     36
     510      20                                                00010000D     37
     510            -277       1       1                               0D     38
     510      21                                                00010000D     39
     510            -277       1       1                               0D     40
     510      22                                                00010000D     41
     510            -277       1       1                               0D     42
     510      23                                                00010000D     43
     510            -277       1       1                               0D     44
     510      24                                                00010000D     45
     510            -277       1       1                               0D     46
     510      25                                                00010000D     47
     510            -277       1       1                               0D     48
     508      26                                                00010000D     49
     508                       2       1                               0D     50
     508      28                                                00010000D     51
     508                       1       1                               0D     52
     508      29                                                00010000D     53
     508                       1       1                               0D     54
     508      30                                                00010000D     55
     508                       1       1                               0D     56
     508      31                                                00010000D     57
     508                       1       1                               0D     58
     508      32                                                00010000D     59
     508                       1       1                               0D     60
     508      33                                                00010000D     61
     508                       1       1                               0D     62
     508      34                                                00010000D     63
     508                       1       1                               0D     64
     508      35                                                00010000D     65
     508                       1       1                               0D     66
     508      36                                                00010000D     67
     508                       1       1                               0D     68
     508      37                                                00010000D     69
     508                       1       1                               0D     70
     508      38                                                00010000D     71
     508                       2       1                               0D     72
     508      40                                                00010000D     73
     508                       2       1                               0D     74
     508      42                                                00010000D     75
     508                       1       1                               0D     76
     508      43                                                00010000D     77
     508                       1       1                               0D     78
     508      44                                                00010000D     79
     508                       1       1                               0D     80
     508      45                                                00010000D     81
     508                       3       1                               0D     82
     508      48                                                00010000D     83
     508                       1       1                               0D     84
     508      49                                                00010000D     85
     508                       2       1                               0D     86
     508      51                                                00010000D     87
     508                       2       1                               0D     88
     508      53                                                00010000D     89
     508                       1       1                               0D     90
     508      54                                                00010000D     91
     508                       1       1                               0D     92
     508      55                                                00010000D     93
     508                       1       1                               0D     94
     508      56                                                00010000D     95
     508                       1       1                               0D     96
     508      57                                                00010000D     97
     508                       1       1                               0D     98
     508      58                                                00010000D     99
     508                       2       1                               0D    100
     508      60                                                00010000D    101
     508                       2       1                               0D    102
     508      62                                                00010000D    103
     508                       1       1                               0D    104
     126      63                                                00010000D    105
     126       0               7       0                               0D    106
     126      70                                                00010000D    107
     126       0               7       0                               0D    108
     126      77                                                00010000D    109
     126       0               4       0                               0D    110
     126      81                                                00010000D    111
     126       0               8       0                               0D    112
     126      89                                                00010000D    113
     126       0               8       0                               0D    114
     126      97                                                00010000D    115
     126       0               2       0                               0D    116
     126      99                                                00010000D    117
     126       0               2       0                               0D    118
     126     101                                                00010000D    119
     126       0               2       0                               0D    120
     126     103                                                00010000D    121
     126       0               5       0                               0D    122
     126     108                                                00010000D    123
     126       0               2       0                               0D    124
     126     110                                                00010000D    125
     126       0               3       0                               0D    126
     126     113                                                00010000D    127
     126       0               2       0                               0D    128
     126     115                                                00010000D    129
     126       0               3       0                               0D    130
     126     118                                                00010000D    131
     126       0               2       0                               0D    132
     126     120                                                00010000D    133
     126       0               3       0                               0D    134
     126     123                                                00010000D    135
     126       0               2       0                               0D    136
     126     125                                                00010000D    137
     126       0               3       0                               0D    138
     126     128                                                00010000D    139
     126       0               2       0                               0D    140
     126     130                                                00010000D    141
     126       0               5       0                               0D    142
     126     135                                                00010000D    143
     126       0               5       0                               0D    144
     126     140                                                00010000D    145
     126       0               2       0                               0D    146
     126     142                                                00010000D    147
     126       0               3       0                               0D    148
     126     145                                                00010000D    149
     126       0               3       0                               0D    150
     126     148                                                00010000D    151
     126       0               2       0                               0D    152
     126     150                                                00010000D    153
     126       0               6       0                               0D    154
     126     156                                                00010000D    155
     126       0               6       0                               0D    156
     126     162                                                00010000D    157
     126       0               2       0                               0D    158
     126     164                                                00010000D    159
     126       0               2       0                               0D    160
     126     166                                                00010000D    161
     126       0               2       0                               0D    162
     126     168                                                00010000D    163
     126       0               2       0                               0D    164
     126     170                                                00010000D    165
     126       0               2       0                               0D    166
     126     172                                                00010000D    167
     126       0               2       0                               0D    168
     126     174                                                00010000D    169
     126       0               2       0                               0D    170
     126     176                                                00010000D    171
     126       0               2       0                               0D    172
     126     178                                                00010000D    173
     126       0               2       0                               0D    174
     126     180                                                00010000D    175
     126       0               2       0                               0D    176
     126     182                                                00010000D    177
     126       0               4       0                               0D    178
     126     186                                                00010000D    179
     126       0               4       0                               0D    180
     126     190                                                00010000D    181
     126       0               2       0                               0D    182
     126     192                                                00010000D    183
     126       0               3       0                               0D    184
     126     195                                                00010000D    185
     126       0               2       0                               0D    186
     126     197                                                00010000D    187
     126       0               3       0                               0D    188
     126     200                                                00010000D    189
     126       0               3       0                               0D    190
     126     203                                                00010000D    191
     126       0               2       0                               0D    192
     126     205                                                00010000D    193
     126       0               2       0                               0D    194
     126     207                                                00010000D    195
     126       0               5       0                               0D    196
     126     212                                                00010000D    197
     126       0               6       0                               0D    198
     126     218                                                00010000D    199
     126       0               3       0                               0D    200
     126     221                                                00010000D    201
     126       0               9       0                               0D    202
     126     230                                                00010000D    203
     126       0               2       0                               0D    204
     126     232                                                00010000D    205
     126       0               2       0                               0D    206
     126     234                                                00010000D    207
     126       0               3       0                               0D    208
     126     237                                                00010000D    209
     126       0               2       0                               0D    210
     126     239                                                00010000D    211
     126       0               6       0                               0D    212
     126     245                                                00010000D    213
     126       0               2       0                               0D    214
     126     247                                                00010000D    215
     126       0               7       0                               0D    216
     126     254                                                00010000D    217
     126       0               2       0                               0D    218
     126     256                                                00010000D    219
     126       0               2       0                               0D    220
     126     258                                                00010000D    221
     126       0               2       0                               0D    222
     126     260                                                00010000D    223
     126       0               3       0                               0D    224
     128     263                                                00010000D    225
     128       0    -277      16       0                               0D    226
     128     279                                                00010000D    227
     128       0    -277       5       0                               0D    228
     128     284                                                00010000D    229
     128       0    -277      11       0                               0D    230
     128     295                                                00010000D    231
     128       0    -277       5       0                               0D    232
     128     300                                                00010000D    233
     128       0    -277       3       0                               0D    234
     128     303                                                00010000D    235
     128       0    -277       9       0                               0D    236
     128     312                                                00010000D    237
     128       0    -277       3       0                               0D    238
     128     315                                                00010000D    239
     128       0    -277       9       0                               0D    240
     128     324                                                00010000D    241
     128       0    -277       3       0                               0D    242
     128     327                                                00010000D    243
     128       0    -277       4       0                               0D    244
     128     331                                                00010000D    245
     128       0    -277       3       0                               0D    246
     128     334                                                00010000D    247
     128       0    -277       3       0                               0D    248
     128     337                                                00010000D    249
     128       0    -277       6       0                               0D    250
     128     343                                                00010000D    251
     128       0    -277       5       0                               0D    252
     128     348                                                00010000D    253
     128       0    -277       6       0                               0D    254
     128     354                                                00010000D    255
     128       0    -277      14       0                               0D    256
     128     368                                                00010000D    257
     128       0    -277       4       0                               0D    258
     128     372                                                00010000D    259
     128       0    -277       4       0                               0D    260
     128     376                                                00010000D    261
     128       0    -277      11       0                               0D    262
     128     387                                                00010000D    263
     128       0    -277       5       0                               0D    264
     128     392                                                00010000D    265
     128       0    -277       3       0                               0D    266
     128     395                                                00010000D    267
     128       0    -277       3       0                               0D    268
     502     398                                                00010000D    269
     502                      12       1                               0D    270
     504     410                                                00010001D    271
     504                      17       1                               0D    272
     406     427                                                00000000D    273
     406                       1      15                               0D    274
     406     428                       0                        00000000D    275
     406            -277       1       3                               0D    276
     314     429                                                00000200D    277
     314                       1       0                               0D    278
186,3,1,0,0,1,273;                                                     1P      1
514,22,5,1,7,1,9,1,11,1,13,1,15,1,17,1,19,1,21,1,23,1,25,1,27,1,       3P      2
29,1,31,1,33,1,35,1,37,1,39,1,41,1,43,1,45,1,47,1;                     3P      3
510,225,1,1,49;                                                        5P      4
510,227,2,1,51,53;                                                     7P      5
510,229,1,1,55;                                                        9P      6
510,231,2,1,57,59;                                                    11P      7
510,233,1,1,61;                                                       13P      8
510,235,1,1,63;                                                       15P      9
510,237,1,1,65;                                                       17P     10
510,239,1,1,67;                                                       19P     11
510,241,1,1,69;                                                       21P     12
510,243,1,1,71;                                                       23P     13
510,245,1,1,73;                                                       25P     14
510,247,1,1,75;                                                       27P     15
510,249,1,1,77;                                                       29P     16
510,251,1,1,79;                                                       31P     17
510,253,2,1,81,83;                                                    33P     18
510,255,1,1,85;                                                       35P     19
510,257,1,1,87;                                                       37P     20
510,259,2,1,89,91;                                                    39P     21
510,261,1,1,93;                                                       41P     22
510,263,2,1,95,97;                                                    43P     23
510,265,1,1,99;                                                       45P     24
510,267,2,1,101,103;                                                  47P     25
508,5,0,271,1,0,0,0,271,2,0,0,0,271,3,1,0,0,271,4,0,0,0,271,3,0,      49P     26
0;                                                                    49P     27
508,4,0,271,5,1,0,0,271,6,0,0,0,271,7,0,0,0,271,8,1,0;                51P     28
508,2,0,271,1,1,0,0,271,2,1,0;                                        53P     29
508,4,0,271,9,0,0,0,271,10,1,0,0,271,5,0,0,0,271,11,0,0;              55P     30
508,4,0,271,9,1,0,0,271,12,0,0,0,271,13,0,0,0,271,14,1,0;             57P     31
508,1,0,271,4,1,0;                                                    59P     32
508,4,0,271,15,0,0,0,271,16,0,0,0,271,17,0,0,0,271,18,1,0;            61P     33
508,4,0,271,19,0,0,0,271,18,0,0,0,271,20,0,0,0,271,21,1,0;            63P     34
508,4,0,271,22,0,0,0,271,21,0,0,0,271,23,0,0,0,271,24,1,0;            65P     35
508,4,0,271,25,0,0,0,271,24,0,0,0,271,26,0,0,0,271,16,1,0;            67P     36
508,4,0,271,27,0,0,0,271,28,1,0,0,271,29,0,0,0,271,30,0,0;            69P     37
508,5,0,271,10,0,0,0,271,14,0,0,0,271,30,1,0,0,271,31,0,0,0,271,      71P     38
6,1,0;                                                                71P     39
508,5,0,271,11,1,0,0,271,8,0,0,0,271,32,0,0,0,271,33,0,0,0,271,       73P     40
12,1,0;                                                               73P     41
508,4,0,271,34,0,0,0,271,33,1,0,0,271,35,0,0,0,271,36,0,0;            75P     42
508,4,0,271,37,0,0,0,271,36,1,0,0,271,38,0,0,0,271,39,0,0;            77P     43
508,4,0,271,40,0,0,0,271,41,1,0,0,271,42,0,0,0,271,28,0,0;            79P     44
508,10,0,271,43,0,0,0,271,44,1,0,0,271,38,1,0,0,271,35,1,0,0,         81P     45
271,32,1,0,0,271,7,1,0,0,271,31,1,0,0,271,29,1,0,0,271,42,1,0,0,      81P     46
271,45,1,0;                                                           81P     47
508,4,0,271,22,1,0,0,271,25,1,0,0,271,15,1,0,0,271,19,1,0;            83P     48
508,5,0,271,46,0,0,0,271,47,0,0,0,271,48,1,0,0,271,49,0,0,0,271,      85P     49
48,0,0;                                                               85P     50
508,6,0,271,50,0,0,0,271,51,0,0,0,271,45,0,0,0,271,41,0,0,0,271,      87P     51
52,0,0,0,271,53,1,0;                                                  87P     52
508,4,0,271,43,1,0,0,271,51,1,0,0,271,54,1,0,0,271,55,0,0;            89P     53
508,1,0,271,49,1,0;                                                   91P     54
508,4,0,271,54,0,0,0,271,50,1,0,0,271,56,0,0,0,271,57,0,0;            93P     55
508,4,0,271,56,1,0,0,271,53,0,0,0,271,58,0,0,0,271,59,1,0;            95P     56
508,2,0,271,46,1,0,0,271,47,1,0;                                      97P     57
508,6,0,271,57,1,0,0,271,59,0,0,0,271,60,0,0,0,271,39,1,0,0,271,      99P     58
44,0,0,0,271,55,1,0;                                                  99P     59
508,8,0,271,52,1,0,0,271,40,1,0,0,271,27,1,0,0,271,13,1,0,0,271,     101P     60
34,1,0,0,271,37,1,0,0,271,60,1,0,0,271,58,1,0;                       101P     61
508,4,0,271,23,1,0,0,271,20,1,0,0,271,17,1,0,0,271,26,1,0;           103P     62
126,4,2,0,0,0,0,-8.12338555949014D-33,-8.12338555949014D-33,         105P     63
-8.12338555949014D-33,1.5707963267949,1.5707963267949,               105P     64
3.14159265358979,3.14159265358979,3.14159265358979,1.,               105P     65
0.707106781186547,1.,0.707106781186547,1.,1.73362555913799D-16,      105P     66
0.5,1.62,2.66621289982312D-16,0.78,1.62,2.66621289982312D-16,        105P     67
0.78,1.9,2.66621289982312D-16,0.78,2.18,1.73362555913799D-16,        105P     68
0.5,2.18,-8.12338555949014D-33,3.14159265358979,0.,0.,0.;            105P     69
126,4,2,0,0,0,0,3.14159265358979,3.14159265358979,                   107P     70
3.14159265358979,4.71238898038469,4.71238898038469,                  107P     71
6.28318530717959,6.28318530717959,6.28318530717959,1.,               107P     72
0.707106781186547,1.,0.707106781186547,1.,1.73362555913799D-16,      107P     73
0.5,2.18,8.01038218452856D-17,0.22,2.18,8.01038218452856D-17,        107P     74
0.22,1.9,8.01038218452856D-17,0.22,1.62,1.73362555913799D-16,        107P     75
0.5,1.62,3.14159265358979,6.28318530717959,0.,0.,0.;                 107P     76
126,1,1,0,0,1,0,1.07314463457538D-17,1.07314463457538D-17,           109P     77
1.42857142857143,1.42857142857143,1.,1.,1.69538258670585D-16,        109P     78
0.5,2.18,0.4,0.5,2.18,1.07314463457538D-17,1.42857142857143,0.,      109P     79
0.,0.;                                                               109P     80
126,8,2,0,1,0,0,-3.14159265358979,-3.14159265358979,                 111P     81
-3.14159265358979,-1.5707963267949,-1.5707963267949,0.,0.,           111P     82
1.5707963267949,1.5707963267949,3.14159265358979,                    111P     83
3.14159265358979,3.14159265358979,1.,0.707106781186548,1.,           111P     84
0.707106781186548,1.,0.707106781186547,1.,0.707106781186547,1.,      111P     85
0.4,0.5,2.18,0.4,0.78,2.18,0.4,0.78,1.9,0.4,0.78,1.62,0.4,0.5,       111P     86
1.62,0.4,0.22,1.62,0.4,0.22,1.9,0.4,0.22,2.18,0.4,0.5,2.18,          111P     87
-3.14159265358979,3.14159265358979,0.,0.,0.;                         111P     88
126,4,2,0,0,0,0,-1.5707963267949,-1.5707963267949,                   113P     89
-1.5707963267949,4.44089209850063D-16,4.44089209850063D-16,          113P     90
1.5707963267949,1.5707963267949,1.5707963267949,1.,                  113P     91
0.707106781186548,1.,0.707106781186547,1.,-4.93038065763132D-32,     113P     92
0.,1.9,-1.33903109406916D-32,1.26330387451858D-16,2.4,               113P     93
1.66533453693774D-16,0.5,2.4,3.33066907387547D-16,1.,2.4,            113P     94
3.33066907387547D-16,1.,1.9,-1.5707963267949,1.5707963267949,0.,     113P     95
0.,0.;                                                               113P     96
126,1,1,0,0,1,0,-0.4,-0.4,0.6,0.6,1.,1.,3.33066907387547D-16,1.,     115P     97
0.9,3.33066907387547D-16,1.,1.9,-0.4,0.6,0.,0.,0.;                   115P     98
126,1,1,0,0,1,0,-1.,-1.,0.,0.,1.,1.,0.,0.,0.9,                       117P     99
3.33066907387547D-16,1.,0.9,-1.,0.,0.,0.,0.;                         117P    100
126,1,1,0,0,1,0,-0.4,-0.4,0.6,0.6,1.,1.,0.,0.,0.9,0.,0.,1.9,         119P    101
-0.4,0.6,0.,0.,0.;                                                   119P    102
126,4,2,0,0,0,0,0.,0.,0.,1.5707963267949,1.5707963267949,            121P    103
3.14159265358979,3.14159265358979,3.14159265358979,1.,               121P    104
0.707106781186548,1.,0.707106781186547,1.,0.4,1.,1.9,0.4,1.,2.4,     121P    105
0.4,0.5,2.4,0.4,2.80416350519344D-16,2.4,0.4,                        121P    106
-1.11022302462516D-16,1.9,0.,3.14159265358979,0.,0.,0.;              121P    107
126,1,1,0,0,1,0,-0.4,-0.4,0.,0.,1.,1.,0.4,1.,1.9,                    123P    108
3.33066907387547D-16,1.,1.9,-0.4,0.,0.,0.,0.;                        123P    109
126,1,1,0,0,1,0,-0.4,-0.4,0.,0.,1.,1.,0.4,-1.33226762955019D-16,     125P    110
1.9,-4.93038065763132D-32,8.21073318940322D-48,1.9,-0.4,0.,0.,       125P    111
0.,0.;                                                               125P    112
126,1,1,0,0,1,0,0.,0.,0.6,0.6,1.,1.,0.4,0.,1.3,0.4,0.,1.9,0.,        127P    113
0.6,0.,0.,0.;                                                        127P    114
126,1,1,0,0,1,0,-0.898966362755231,-0.898966362755231,               129P    115
0.101033637244769,0.101033637244769,1.,1.,0.4,1.,1.3,0.4,0.,1.3,     129P    116
-0.898966362755231,0.101033637244769,0.,0.,0.;                       129P    117
126,1,1,0,0,1,0,0.,0.,0.6,0.6,1.,1.,0.4,1.,1.3,0.4,1.,1.9,0.,        131P    118
0.6,0.,0.,0.;                                                        131P    119
126,1,1,0,0,1,0,-0.533612393521504,-0.533612393521504,               133P    120
0.0263876064784963,0.0263876064784963,1.,1.,1.15,0.32,0.9,1.71,      133P    121
0.32,0.9,-0.533612393521504,0.0263876064784963,0.,0.,0.;             133P    122
126,1,1,0,0,1,0,0.,0.,0.4,0.4,1.,1.,1.15,0.32,1.3,1.15,0.32,0.9,     135P    123
0.,0.4,0.,0.,0.;                                                     135P    124
126,1,1,0,0,1,0,-0.0263876064784963,-0.0263876064784963,             137P    125
0.533612393521504,0.533612393521504,1.,1.,1.71,0.32,1.3,1.15,        137P    126
0.32,1.3,-0.0263876064784963,0.533612393521504,0.,0.,0.;             137P    127
126,1,1,0,0,1,0,0.,0.,0.4,0.4,1.,1.,1.71,0.32,1.3,1.71,0.32,0.9,     139P    128
0.,0.4,0.,0.,0.;                                                     139P    129
126,4,2,0,0,0,0,0.,0.,0.,1.5707963267949,1.5707963267949,            141P    130
3.14159265358979,3.14159265358979,3.14159265358979,1.,               141P    131
0.707106781186547,1.,0.707106781186549,1.,1.71,0.32,0.9,1.89,        141P    132
0.32,0.9,1.89,0.5,0.9,1.89,0.68,0.9,1.71,0.68,0.9,0.,                141P    133
3.14159265358979,0.,0.,0.;                                           141P    134
126,4,2,0,0,0,0,-3.14159265358979,-3.14159265358979,                 143P    135
-3.14159265358979,-1.5707963267949,-1.5707963267949,0.,0.,0.,1.,     143P    136
0.707106781186549,1.,0.707106781186547,1.,1.71,0.68,1.3,1.89,        143P    137
0.68,1.3,1.89,0.5,1.3,1.89,0.32,1.3,1.71,0.32,1.3,                   143P    138
-3.14159265358979,0.,0.,0.,0.;                                       143P    139
126,1,1,0,0,1,0,0.,0.,0.4,0.4,1.,1.,1.71,0.68,1.3,1.71,0.68,0.9,     145P    140
0.,0.4,0.,0.,0.;                                                     145P    141
126,1,1,0,0,1,0,-0.306387606478496,-0.306387606478496,               147P    142
0.253612393521504,0.253612393521504,1.,1.,1.71,0.68,0.9,1.15,        147P    143
0.68,0.9,-0.306387606478496,0.253612393521504,0.,0.,0.;              147P    144
126,1,1,0,0,1,0,-0.253612393521504,-0.253612393521504,               149P    145
0.306387606478496,0.306387606478496,1.,1.,1.15,0.68,1.3,1.71,        149P    146
0.68,1.3,-0.253612393521504,0.306387606478496,0.,0.,0.;              149P    147
126,1,1,0,0,1,0,0.,0.,0.4,0.4,1.,1.,1.15,0.68,1.3,1.15,0.68,0.9,     151P    148
0.,0.4,0.,0.,0.;                                                     151P    149
126,4,2,0,0,0,0,0.,0.,0.,1.5707963267949,1.5707963267949,            153P    150
3.14159265358979,3.14159265358979,3.14159265358979,1.,               153P    151
0.707106781186547,1.,0.707106781186546,1.,1.15,0.68,0.9,             153P    152
0.970000000000001,0.68,0.9,0.970000000000001,0.5,0.9,                153P    153
0.970000000000001,0.32,0.9,1.15,0.32,0.9,0.,3.14159265358979,0.,     153P    154
0.,0.;                                                               153P    155
126,4,2,0,0,0,0,-3.14159265358979,-3.14159265358979,                 155P    156
-3.14159265358979,-1.5707963267949,-1.5707963267949,0.,0.,0.,1.,     155P    157
0.707106781186546,1.,0.707106781186547,1.,1.15,0.32,1.3,             155P    158
0.970000000000001,0.32,1.3,0.970000000000001,0.5,1.3,                155P    159
0.970000000000001,0.68,1.3,1.15,0.68,1.3,-3.14159265358979,0.,       155P    160
0.,0.,0.;                                                            155P    161
126,1,1,0,0,1,0,0.,0.,1.65,1.65,1.,1.,2.05,1.,1.3,0.4,1.,1.3,0.,     157P    162
1.65,0.,0.,0.;                                                       157P    163
126,1,1,0,0,1,0,0.,0.,0.4,0.4,1.,1.,2.05,1.,1.3,2.05,1.,0.9,0.,      159P    164
0.4,0.,0.,0.;                                                        159P    165
126,1,1,0,0,1,0,-1.65,-1.65,0.,0.,1.,1.,0.4,1.,0.9,2.05,1.,0.9,      161P    166
-1.65,0.,0.,0.,0.;                                                   161P    167
126,1,1,0,0,1,0,0.,0.,0.4,0.4,1.,1.,0.4,1.,1.3,0.4,1.,0.9,0.,        163P    168
0.4,0.,0.,0.;                                                        163P    169
126,1,1,0,0,1,0,-0.4,-0.4,0.,0.,1.,1.,3.33066907387547D-16,1.,       165P    170
0.9,0.4,1.,0.9,-0.4,0.,0.,0.,0.;                                     165P    171
126,1,1,0,0,1,0,-0.4,-0.4,0.,0.,1.,1.,0.4,0.,0.9,0.,0.,0.9,-0.4,     167P    172
0.,0.,0.,0.;                                                         167P    173
126,1,1,0,0,1,0,0.,0.,0.4,0.4,1.,1.,0.4,0.,1.3,0.4,0.,0.9,0.,        169P    174
0.4,0.,0.,0.;                                                        169P    175
126,1,1,0,0,1,0,0.,0.,1.65,1.65,1.,1.,0.4,0.,1.3,2.05,0.,1.3,0.,     171P    176
1.65,0.,0.,0.;                                                       171P    177
126,1,1,0,0,1,0,-1.65,-1.65,0.,0.,1.,1.,2.05,0.,0.9,0.4,0.,0.9,      173P    178
-1.65,0.,0.,0.,0.;                                                   173P    179
126,1,1,0,0,1,0,0.,0.,0.4,0.4,1.,1.,2.05,0.,1.3,2.05,0.,0.9,0.,      175P    180
0.4,0.,0.,0.;                                                        175P    181
126,2,2,0,0,0,0,0.,0.,0.,1.57079632679489,1.57079632679489,          177P    182
1.57079632679489,1.,0.707106781186545,1.,2.05,0.,1.3,2.25,           177P    183
-4.44089209850062D-16,1.3,2.25,-0.2,1.3,0.,1.57079632679489,0.,      177P    184
0.,0.;                                                               177P    185
126,2,2,0,0,0,0,-1.57079632679489,-1.57079632679489,                 179P    186
-1.57079632679489,0.,0.,0.,1.,0.707106781186545,1.,2.25,-0.2,        179P    187
0.9,2.25,-4.44089209850062D-16,0.9,2.05,0.,0.9,                      179P    188
-1.57079632679489,0.,0.,0.,0.;                                       179P    189
126,1,1,0,0,1,0,0.,0.,0.4,0.4,1.,1.,2.25,-0.2,1.3,2.25,-0.2,0.9,     181P    190
0.,0.4,0.,0.,0.;                                                     181P    191
126,2,2,0,0,0,0,0.,0.,0.,1.5707963267949,1.5707963267949,            183P    192
1.5707963267949,1.,0.707106781186548,1.,3.25,-0.2,1.3,3.25,1.,       183P    193
1.3,2.05,1.,1.3,0.,1.5707963267949,0.,0.,0.;                         183P    194
126,1,1,0,0,1,0,0.,0.,0.4,0.4,1.,1.,3.25,-0.2,1.3,3.25,-0.2,0.9,     185P    195
0.,0.4,0.,0.,0.;                                                     185P    196
126,2,2,0,0,0,0,-1.5707963267949,-1.5707963267949,                   187P    197
-1.5707963267949,0.,0.,0.,1.,0.707106781186548,1.,2.05,1.,0.9,       187P    198
3.25,1.,0.9,3.25,-0.2,0.9,-1.5707963267949,0.,0.,0.,0.;              187P    199
126,1,1,0,0,1,0,0.296387606478496,0.296387606478496,                 189P    200
1.2963876064785,1.2963876064785,1.,1.,2.25,-0.44,0.9,3.25,-0.44,     189P    201
0.9,0.296387606478496,1.2963876064785,0.,0.,0.;                      189P    202
126,1,1,0,0,1,0,-0.24,-0.24,0.,0.,1.,1.,2.25,-0.44,0.9,2.25,         191P    203
-0.2,0.9,-0.24,0.,0.,0.,0.;                                          191P    204
126,1,1,0,0,1,0,-0.64,-0.64,-0.4,-0.4,1.,1.,3.25,-0.2,0.9,3.25,      193P    205
-0.44,0.9,-0.64,-0.4,0.,0.,0.;                                       193P    206
126,4,2,0,0,0,0,0.,0.,0.,1.5707963267949,1.5707963267949,            195P    207
3.14159265358979,3.14159265358979,3.14159265358979,1.,               195P    208
0.707106781186546,1.,0.707106781186553,1.,2.93,-0.84,0.5,2.93,       195P    209
-0.84,0.32,2.75,-0.84,0.32,2.57,-0.84,0.319999999999999,2.57,        195P    210
-0.84,0.499999999999999,0.,3.14159265358979,0.,0.,0.;                195P    211
126,4,2,0,0,0,0,3.14159265358979,3.14159265358979,                   197P    212
3.14159265358979,4.71238898038469,4.71238898038469,                  197P    213
6.28318530717959,6.28318530717959,6.28318530717959,1.,               197P    214
0.707106781186541,1.,0.707106781186553,1.,2.57,-0.84,                197P    215
0.499999999999999,2.57,-0.84,0.68,2.75,-0.84,0.68,2.93,-0.84,        197P    216
0.68,2.93,-0.84,0.5,3.14159265358979,6.28318530717959,0.,0.,0.;      197P    217
126,1,1,0,0,1,0,0.,0.,2.22222222222222,2.22222222222222,1.,1.,       199P    218
2.57,-0.84,0.499999999999999,2.57,-0.44,0.499999999999999,0.,        199P    219
2.22222222222222,0.,0.,0.;                                           199P    220
126,8,2,0,1,0,0,-3.14159265358979,-3.14159265358979,                 201P    221
-3.14159265358979,-1.5707963267949,-1.5707963267949,0.,0.,           201P    222
1.5707963267949,1.5707963267949,3.14159265358979,                    201P    223
3.14159265358979,3.14159265358979,1.,0.707106781186553,1.,           201P    224
0.707106781186546,1.,0.707106781186548,1.,0.707106781186548,1.,      201P    225
2.57,-0.44,0.499999999999999,2.57,-0.44,0.319999999999999,2.75,      201P    226
-0.44,0.32,2.93,-0.44,0.32,2.93,-0.44,0.5,2.93,-0.44,0.68,2.75,      201P    227
-0.44,0.68,2.57,-0.44,0.68,2.57,-0.44,0.499999999999999,             201P    228
-3.14159265358979,3.14159265358979,0.,0.,0.;                         201P    229
126,1,1,0,0,1,0,-0.399999999999999,-0.399999999999999,0.,0.,1.,      203P    230
1.,3.25,-0.44,0.5,3.25,-0.84,0.5,-0.399999999999999,0.,0.,0.,0.;     203P    231
126,1,1,0,0,1,0,0.4,0.4,0.8,0.8,1.,1.,3.25,-0.44,0.9,3.25,-0.44,     205P    232
0.5,0.4,0.8,0.,0.,0.;                                                205P    233
126,1,1,0,0,1,0,0.,0.,0.639999999999999,0.639999999999999,1.,1.,     207P    234
3.25,-0.84,1.3,3.25,-0.200000000000001,1.3,0.,0.639999999999999,     207P    235
0.,0.,0.;                                                            207P    236
126,1,1,0,0,1,0,0.,0.,0.8,0.8,1.,1.,3.25,-0.84,1.3,3.25,-0.84,       209P    237
0.5,0.,0.8,0.,0.,0.;                                                 209P    238
126,4,2,0,0,0,0,0.,0.,0.,1.5707963267949,1.5707963267949,            211P    239
3.14159265358979,3.14159265358979,3.14159265358979,1.,               211P    240
0.707106781186546,1.,0.707106781186548,1.,3.25,-0.44,0.5,3.25,       211P    241
-0.44,4.44089209850063D-16,2.75,-0.44,2.22044604925031D-16,2.25,     211P    242
-0.44,0.,2.25,-0.44,0.499999999999999,0.,3.14159265358979,0.,0.,     211P    243
0.;                                                                  211P    244
126,1,1,0,0,1,0,0.4,0.4,0.8,0.8,1.,1.,2.25,-0.44,0.9,2.25,-0.44,     213P    245
0.5,0.4,0.8,0.,0.,0.;                                                213P    246
126,4,2,0,0,0,0,-1.5707963267949,-1.5707963267949,                   215P    247
-1.5707963267949,1.22124532708767D-15,1.22124532708767D-15,          215P    248
1.5707963267949,1.5707963267949,1.5707963267949,1.,                  215P    249
0.707106781186547,1.,0.707106781186547,1.,2.25,-0.84,0.5,2.25,       215P    250
-0.84,-4.44089209850063D-16,2.75,-0.84,2.22044604925031D-16,         215P    251
3.25,-0.84,6.66133814775094D-16,3.25,-0.84,0.500000000000001,        215P    252
-1.5707963267949,1.5707963267949,0.,0.,0.;                           215P    253
126,1,1,0,0,1,0,-0.399999999999999,-0.399999999999999,0.,0.,1.,      217P    254
1.,2.25,-0.44,0.5,2.25,-0.84,0.5,-0.399999999999999,0.,0.,0.,0.;     217P    255
126,1,1,0,0,1,0,0.,0.,1.,1.,1.,1.,2.25,-0.84,1.3,3.25,-0.84,1.3,     219P    256
0.,1.,0.,0.,0.;                                                      219P    257
126,1,1,0,0,1,0,0.,0.,0.8,0.8,1.,1.,2.25,-0.84,1.3,2.25,-0.84,       221P    258
0.5,0.,0.8,0.,0.,0.;                                                 221P    259
126,1,1,0,0,1,0,-0.24,-0.24,0.399999999999999,0.399999999999999,     223P    260
1.,1.,2.25,-0.2,1.3,2.25,-0.84,1.3,-0.24,0.399999999999999,0.,       223P    261
0.,0.;                                                               223P    262
128,1,8,1,2,0,1,0,0,1,1.07314463457538D-17,1.07314463457538D-17,     225P    263
1.42857142857143,1.42857142857143,-3.14159265358979,                 225P    264
-3.14159265358979,-3.14159265358979,-1.5707963267949,                225P    265
-1.5707963267949,0.,0.,1.5707963267949,1.5707963267949,              225P    266
3.14159265358979,3.14159265358979,3.14159265358979,1.,1.,            225P    267
0.707106781186548,0.707106781186548,1.,1.,0.707106781186548,         225P    268
0.707106781186548,1.,1.,0.707106781186548,0.707106781186548,1.,      225P    269
1.,0.707106781186548,0.707106781186548,1.,1.,                        225P    270
1.69538258670585D-16,0.5,2.18,0.4,0.5,2.18,7.24552273588573D-17,     225P    271
0.22,2.18,0.4,0.22,2.18,7.24552273588573D-17,0.22,1.9,0.4,0.22,      225P    272
1.9,7.24552273588573D-17,0.22,1.62,0.4,0.22,1.62,                    225P    273
1.69538258670585D-16,0.5,1.62,0.4,0.5,1.62,2.66621289982312D-16,     225P    274
0.78,1.62,0.4,0.78,1.62,2.66621289982312D-16,0.78,1.9,0.4,0.78,      225P    275
1.9,2.66621289982312D-16,0.78,2.18,0.4,0.78,2.18,                    225P    276
1.69538258670585D-16,0.5,2.18,0.4,0.5,2.18,1.07314463457538D-17,     225P    277
1.42857142857143,-3.14159265358979,3.14159265358979;                 225P    278
128,1,1,1,1,0,0,1,0,0,-0.001,-0.001,1.001,1.001,-1.101,-1.101,       227P    279
0.401,0.401,1.,1.,1.,1.,-3.33066907387547D-19,-0.001,2.401,          227P    280
3.33399974294935D-16,1.001,2.401,-3.33066907387547D-19,-0.001,       227P    281
0.899,3.33399974294935D-16,1.001,0.899,-0.001,1.001,-1.101,          227P    282
0.401;                                                               227P    283
128,1,4,1,2,0,0,0,0,0,0.,0.,0.8,0.8,-1.5707963267949,                229P    284
-1.5707963267949,-1.5707963267949,-2.22044604925031D-16,             229P    285
-2.22044604925031D-16,1.5707963267949,1.5707963267949,               229P    286
1.5707963267949,1.,1.,0.707106781186548,0.707106781186548,1.,1.,     229P    287
0.707106781186548,0.707106781186548,1.,1.,0.4,1.,1.9,                229P    288
3.33066907387547D-16,1.,1.9,0.4,1.,2.4,3.33066907387547D-16,1.,      229P    289
2.4,0.4,0.5,2.4,1.66533453693773D-16,0.5,2.4,0.4,                    229P    290
-2.22044604925031D-16,2.4,-7.39557098644698D-32,                     229P    291
-1.11022302462516D-16,2.4,0.4,-1.11022302462516D-16,1.9,             229P    292
-4.93038065763132D-32,0.,1.9,0.,0.8,-1.5707963267949,                229P    293
1.5707963267949;                                                     229P    294
128,1,1,1,1,0,0,1,0,0,-0.00100000000000011,-0.00100000000000011,     231P    295
1.001,1.001,-0.001,-0.001,1.101,1.101,1.,1.,1.,1.,0.4,               231P    296
-0.00100000000000011,1.299,0.4,1.001,1.299,0.4,                      231P    297
-0.00100000000000011,2.401,0.4,1.001,2.401,-0.00100000000000011,     231P    298
1.001,-0.001,1.101;                                                  231P    299
128,1,1,1,1,0,0,1,0,0,-0.001,-0.001,0.561,0.561,-0.001,-0.001,       233P    300
0.401,0.401,1.,1.,1.,1.,1.149,0.32,1.301,1.711,0.32,1.301,1.149,     233P    301
0.32,0.899,1.711,0.32,0.899,-0.001,0.561,-0.001,0.401;               233P    302
128,1,4,1,2,0,0,0,0,0,0.,0.,2.22222222222222,2.22222222222222,       235P    303
-3.14159265358979,-3.14159265358979,-3.14159265358979,               235P    304
-1.5707963267949,-1.5707963267949,-1.36955018267537D-31,             235P    305
-1.36955018267537D-31,-1.36955018267537D-31,1.,1.,                   235P    306
0.707106781186548,0.707106781186548,1.,1.,0.707106781186548,         235P    307
0.707106781186548,1.,1.,1.71,0.68,1.3,1.71,0.68,0.9,1.89,0.68,       235P    308
1.3,1.89,0.68,0.9,1.89,0.5,1.3,1.89,0.5,0.9,1.89,0.32,1.3,1.89,      235P    309
0.32,0.9,1.71,0.32,1.3,1.71,0.32,0.9,0.,2.22222222222222,            235P    310
-3.14159265358979,-1.36955018267537D-31;                             235P    311
128,1,1,1,1,0,0,1,0,0,-0.001,-0.001,0.561,0.561,-0.001,-0.001,       237P    312
0.401,0.401,1.,1.,1.,1.,1.711,0.68,1.301,1.149,0.68,1.301,1.711,     237P    313
0.68,0.899,1.149,0.68,0.899,-0.001,0.561,-0.001,0.401;               237P    314
128,1,4,1,2,0,0,0,0,0,0.,0.,2.22222222222222,2.22222222222222,       239P    315
-3.14159265358979,-3.14159265358979,-3.14159265358979,               239P    316
-1.5707963267949,-1.5707963267949,0.,0.,0.,1.,1.,                    239P    317
0.707106781186548,0.707106781186548,1.,1.,0.707106781186548,         239P    318
0.707106781186548,1.,1.,1.15,0.32,1.3,1.15,0.32,0.9,                 239P    319
0.970000000000001,0.32,1.3,0.970000000000001,0.32,0.9,               239P    320
0.970000000000001,0.5,1.3,0.970000000000001,0.5,0.9,                 239P    321
0.970000000000001,0.68,1.3,0.970000000000001,0.68,0.9,1.15,0.68,     239P    322
1.3,1.15,0.68,0.9,0.,2.22222222222222,-3.14159265358979,0.;          239P    323
128,1,1,1,1,0,0,1,0,0,-0.001,-0.001,1.651,1.651,-0.001,-0.001,       241P    324
0.401,0.401,1.,1.,1.,1.,0.399,1.,1.301,2.051,1.,1.301,0.399,1.,      241P    325
0.899,2.051,1.,0.899,-0.001,1.651,-0.001,0.401;                      241P    326
128,1,1,1,1,0,0,1,0,0,-0.001,-0.001,0.401,0.401,-0.601,-0.601,       243P    327
0.401,0.401,1.,1.,1.,1.,-0.000999999999999667,1.,1.901,0.401,1.,     243P    328
1.901,-0.000999999999999667,1.,0.899,0.401,1.,0.899,-0.001,          243P    329
0.401,-0.601,0.401;                                                  243P    330
128,1,1,1,1,0,0,1,0,0,-0.001,-0.001,0.401,0.401,-0.601,-0.601,       245P    331
0.401,0.401,1.,1.,1.,1.,0.401,0.,1.901,-0.001,0.,1.901,0.401,0.,     245P    332
0.899,-0.001,0.,0.899,-0.001,0.401,-0.601,0.401;                     245P    333
128,1,1,1,1,0,0,1,0,0,-0.001,-0.001,1.651,1.651,-0.001,-0.001,       247P    334
0.401,0.401,1.,1.,1.,1.,2.051,0.,1.301,0.399,0.,1.301,2.051,0.,      247P    335
0.899,0.399,0.,0.899,-0.001,1.651,-0.001,0.401;                      247P    336
128,1,2,1,2,0,0,0,0,0,0.,0.,2.,2.,0.,0.,0.,1.57079632679489,         249P    337
1.57079632679489,1.57079632679489,1.,1.,0.707106781186549,           249P    338
0.707106781186549,1.,1.,2.05,0.,1.3,2.05,0.,0.9,2.25,                249P    339
-9.43689570931383D-16,1.3,2.25,-9.43689570931383D-16,0.9,2.25,       249P    340
-0.200000000000001,1.3,2.25,-0.200000000000001,0.9,0.,2.,0.,         249P    341
1.57079632679489;                                                    249P    342
128,1,2,1,2,0,0,0,0,0,0.,0.,0.333333333333333,0.333333333333333,     251P    343
-1.5707963267949,-1.5707963267949,-1.5707963267949,0.,0.,0.,1.,      251P    344
1.,0.707106781186547,0.707106781186547,1.,1.,2.05,1.,0.9,2.05,       251P    345
1.,1.3,3.25,1.,0.9,3.25,1.,1.3,3.25,-0.2,0.9,3.25,-0.2,1.3,0.,       251P    346
0.333333333333333,-1.5707963267949,0.;                               251P    347
128,1,1,1,1,0,0,1,0,0,-1.65822478704301,-1.65822478704301,           253P    348
1.59377521295699,1.59377521295699,-0.643067274489539,                253P    349
-0.643067274489539,0.798932725510462,0.798932725510462,1.,1.,1.,     253P    350
1.,3.251,-0.441,0.9,-0.00099999999999989,-0.441,0.9,3.251,1.001,     253P    351
0.9,-0.00099999999999989,1.001,0.9,-1.65822478704301,                253P    352
1.59377521295699,-0.643067274489539,0.798932725510462;               253P    353
128,1,8,1,2,0,1,0,0,1,0.,0.,2.22222222222222,2.22222222222222,       255P    354
-3.14159265358979,-3.14159265358979,-3.14159265358979,               255P    355
-1.5707963267949,-1.5707963267949,0.,0.,1.5707963267949,             255P    356
1.5707963267949,3.14159265358979,3.14159265358979,                   255P    357
3.14159265358979,1.,1.,0.707106781186548,0.707106781186548,1.,       255P    358
1.,0.707106781186548,0.707106781186548,1.,1.,0.707106781186548,      255P    359
0.707106781186548,1.,1.,0.707106781186548,0.707106781186548,1.,      255P    360
1.,2.57,-0.84,0.499999999999999,2.57,-0.44,0.499999999999999,        255P    361
2.57,-0.84,0.68,2.57,-0.44,0.68,2.75,-0.84,0.68,2.75,-0.44,0.68,     255P    362
2.93,-0.84,0.68,2.93,-0.44,0.68,2.93,-0.84,0.5,2.93,-0.44,0.5,       255P    363
2.93,-0.84,0.32,2.93,-0.44,0.32,2.75,-0.84,0.32,2.75,-0.44,0.32,     255P    364
2.57,-0.84,0.319999999999999,2.57,-0.44,0.319999999999999,2.57,      255P    365
-0.84,0.499999999999999,2.57,-0.44,0.499999999999999,0.,             255P    366
2.22222222222222,-3.14159265358979,3.14159265358979;                 255P    367
128,1,1,1,1,0,0,1,0,0,-0.241,-0.241,0.400999999999999,               257P    368
0.400999999999999,-0.001,-0.001,0.801,0.801,1.,1.,1.,1.,3.25,        257P    369
-0.199,1.301,3.25,-0.841,1.301,3.25,-0.199,0.499,3.25,-0.841,        257P    370
0.499,-0.241,0.400999999999999,-0.001,0.801;                         257P    371
128,1,1,1,1,0,0,1,0,0,-0.001,-0.001,1.001,1.001,0.399,0.399,         259P    372
1.301,1.301,1.,1.,1.,1.,2.249,-0.44,0.901,3.251,-0.44,0.901,         259P    373
2.249,-0.44,-0.00099999999999989,3.251,-0.44,                        259P    374
-0.00099999999999989,-0.001,1.001,0.399,1.301;                       259P    375
128,1,4,1,2,0,0,0,0,0,0.,0.,0.799999999999999,0.799999999999999,     261P    376
-1.5707963267949,-1.5707963267949,-1.5707963267949,                  261P    377
-6.66133814775094D-16,-6.66133814775094D-16,1.5707963267949,         261P    378
1.5707963267949,1.5707963267949,1.,1.,0.707106781186547,             261P    379
0.707106781186547,1.,1.,0.707106781186547,0.707106781186547,1.,      261P    380
1.,3.25,-0.44,0.5,3.25,-0.84,0.5,3.25,-0.44,                         261P    381
2.22044604925031D-16,3.25,-0.84,2.22044604925031D-16,2.75,-0.44,     261P    382
2.22044604925031D-16,2.75,-0.84,2.22044604925031D-16,2.25,-0.44,     261P    383
2.22044604925031D-16,2.25,-0.84,2.22044604925031D-16,2.25,-0.44,     261P    384
0.5,2.25,-0.84,0.5,0.,0.799999999999999,-1.5707963267949,            261P    385
1.5707963267949;                                                     261P    386
128,1,1,1,1,0,0,1,0,0,-0.00100000000000089,-0.00100000000000089,     263P    387
1.001,1.001,-0.001,-0.001,1.301,1.301,1.,1.,1.,1.,3.251,-0.84,       263P    388
1.301,2.249,-0.84,1.301,3.251,-0.84,-0.00100000000000033,2.249,      263P    389
-0.84,-0.00100000000000033,-0.00100000000000089,1.001,-0.001,        263P    390
1.301;                                                               263P    391
128,1,1,1,1,0,0,1,0,0,-0.001,-0.001,0.641,0.641,-0.001,-0.001,       265P    392
0.801,0.801,1.,1.,1.,1.,2.25,-0.841,1.301,2.25,-0.199,1.301,         265P    393
2.25,-0.841,0.499,2.25,-0.199,0.499,-0.001,0.641,-0.001,0.801;       265P    394
128,1,1,1,1,0,0,1,0,0,-2.351,-2.351,0.501,0.501,-0.201,-0.201,       267P    395
1.641,1.641,1.,1.,1.,1.,0.399,-0.841,1.3,3.251,-0.841,1.3,0.399,     267P    396
1.001,1.3,3.251,1.001,1.3,-2.351,0.501,-0.201,1.641;                 267P    397
502,40,1.66533453693773D-16,0.5,1.62,1.69538258670585D-16,0.5,       269P    398
2.18,0.4,0.5,2.18,-4.93038065763132D-32,0.,1.9,                      269P    399
3.33066907387547D-16,1.,1.9,4.44089209850063D-16,1.,0.9,0.,0.,       269P    400
0.9,0.4,1.,1.9,0.4,-1.33226762955019D-16,1.9,0.4,0.,1.3,0.4,1.,      269P    401
1.3,1.15,0.32,0.9,1.71,0.32,0.9,1.15,0.32,1.3,1.71,0.32,1.3,         269P    402
1.71,0.68,0.9,1.71,0.68,1.3,1.15,0.68,0.9,1.15,0.68,1.3,2.05,1.,     269P    403
1.3,2.05,1.,0.9,0.4,1.,0.9,0.4,0.,0.9,2.05,0.,1.3,2.05,0.,0.9,       269P    404
2.25,-0.2,1.3,2.25,-0.2,0.9,3.25,-0.2,1.3,3.25,-0.2,0.9,2.25,        269P    405
-0.44,0.9,3.25,-0.44,0.9,2.93,-0.84,0.5,2.57,-0.84,                  269P    406
0.499999999999999,2.57,-0.44,0.499999999999999,3.25,-0.44,0.5,       269P    407
3.25,-0.84,0.5,3.25,-0.84,1.3,2.25,-0.44,0.5,2.25,-0.84,0.5,         269P    408
2.25,-0.84,1.3;                                                      269P    409
504,60,105,269,1,269,2,107,269,2,269,1,109,269,2,269,3,111,269,      271P    410
3,269,3,113,269,4,269,5,115,269,6,269,5,117,269,7,269,6,119,269,     271P    411
7,269,4,121,269,8,269,9,123,269,8,269,5,125,269,9,269,4,127,269,     271P    412
10,269,9,129,269,11,269,10,131,269,11,269,8,133,269,12,269,13,       271P    413
135,269,14,269,12,137,269,15,269,14,139,269,15,269,13,141,269,       271P    414
13,269,16,143,269,17,269,15,145,269,17,269,16,147,269,16,269,18,     271P    415
149,269,19,269,17,151,269,19,269,18,153,269,18,269,12,155,269,       271P    416
14,269,19,157,269,20,269,11,159,269,20,269,21,161,269,22,269,21,     271P    417
163,269,11,269,22,165,269,6,269,22,167,269,23,269,7,169,269,10,      271P    418
269,23,171,269,10,269,24,173,269,25,269,23,175,269,24,269,25,        271P    419
177,269,24,269,26,179,269,27,269,25,181,269,26,269,27,183,269,       271P    420
28,269,20,185,269,28,269,29,187,269,21,269,29,189,269,30,269,31,     271P    421
191,269,30,269,27,193,269,29,269,31,195,269,32,269,33,197,269,       271P    422
33,269,32,199,269,33,269,34,201,269,34,269,34,203,269,35,269,36,     271P    423
205,269,31,269,35,207,269,37,269,28,209,269,37,269,36,211,269,       271P    424
35,269,38,213,269,30,269,38,215,269,39,269,36,217,269,38,269,39,     271P    425
219,269,40,269,37,221,269,40,269,39,223,269,26,269,40;               271P    426
406,1,2H59;                                                          273P    427
406,2,0,1H0;                                                         275P    428
314,100.,100.,100.,;                                                 277P    429
S      1G      4D    278P    429                                        T      1
